<svg xmlns="http://www.w3.org/2000/svg" width="313" height="314" viewBox="0 0 313 314">
  <metadata><?xpacket begin="﻿" id="W5M0MpCehiHzreSzNTczkc9d"?>
<x:xmpmeta xmlns:x="adobe:ns:meta/" x:xmptk="Adobe XMP Core 5.6-c138 79.159824, 2016/09/14-01:09:01        ">
   <rdf:RDF xmlns:rdf="http://www.w3.org/1999/02/22-rdf-syntax-ns#">
      <rdf:Description rdf:about=""/>
   </rdf:RDF>
</x:xmpmeta>
                                                                                                    
                                                                                                    
                                                                                                    
                                                                                                    
                                                                                                    
                                                                                                    
                                                                                                    
                                                                                                    
                                                                                                    
                                                                                                    
                                                                                                    
                                                                                                    
                                                                                                    
                                                                                                    
                                                                                                    
                                                                                                    
                                                                                                    
                                                                                                    
                                                                                                    
                                                                                                    
                           
<?xpacket end="w"?></metadata>
<defs>
    <style>
      .cls-1 {
        fill-rule: evenodd;
      }
    </style>
  </defs>
  <path class="cls-1" d="M355.44-1294.24a168.538,168.538,0,0,0-12.843-31.03,39.346,39.346,0,0,0-5.331-48.65L322-1389.19a39.27,39.27,0,0,0-48.613-5.34,168.419,168.419,0,0,0-31-12.85A39.3,39.3,0,0,0,204.237-1438H182.651a39.294,39.294,0,0,0-38.144,30.62,168.419,168.419,0,0,0-31.005,12.85,39.271,39.271,0,0,0-48.614,5.34l-15.265,15.27a39.342,39.342,0,0,0-5.33,48.65,168.392,168.392,0,0,0-12.844,31.02A39.321,39.321,0,0,0,.844-1256.07v21.6a39.318,39.318,0,0,0,30.6,38.17,168.224,168.224,0,0,0,12.844,31.02,39.344,39.344,0,0,0,5.331,48.65l15.264,15.28a39.268,39.268,0,0,0,48.613,5.33,168.343,168.343,0,0,0,31.006,12.85,39.3,39.3,0,0,0,38.143,30.63h21.588a39.306,39.306,0,0,0,38.145-30.63,168.391,168.391,0,0,0,31.005-12.85A39.281,39.281,0,0,0,322-1101.35l15.265-15.28a39.339,39.339,0,0,0,5.331-48.65,168.163,168.163,0,0,0,12.844-31.02,39.317,39.317,0,0,0,30.6-38.17v-21.6A39.293,39.293,0,0,0,355.44-1294.24Zm15.257,59.77a23.839,23.839,0,0,1-21.874,23.67,7.666,7.666,0,0,0-6.82,5.66,152.96,152.96,0,0,1-15.154,36.6,7.685,7.685,0,0,0,.821,8.83,23.856,23.856,0,0,1-1.256,32.22l-15.265,15.27a23.808,23.808,0,0,1-32.195,1.26,7.689,7.689,0,0,0-8.823-.82,153.035,153.035,0,0,1-36.583,15.17,7.675,7.675,0,0,0-5.656,6.82,23.836,23.836,0,0,1-23.655,21.89H182.651A23.837,23.837,0,0,1,159-1089.79a7.673,7.673,0,0,0-5.656-6.82,153.028,153.028,0,0,1-36.582-15.17,7.627,7.627,0,0,0-3.829-1.02,7.66,7.66,0,0,0-4.993,1.84,23.821,23.821,0,0,1-32.2-1.25l-15.264-15.28a23.857,23.857,0,0,1-1.256-32.22,7.67,7.67,0,0,0,.821-8.82,153.2,153.2,0,0,1-15.154-36.61,7.678,7.678,0,0,0-6.819-5.66,23.839,23.839,0,0,1-21.875-23.67v-21.6a23.824,23.824,0,0,1,21.875-23.67,7.691,7.691,0,0,0,6.819-5.66,153.179,153.179,0,0,1,15.154-36.61,7.684,7.684,0,0,0-.821-8.83,23.857,23.857,0,0,1,1.256-32.22l15.264-15.27a23.811,23.811,0,0,1,32.2-1.26,7.654,7.654,0,0,0,8.822.82,153.049,153.049,0,0,1,36.582-15.16,7.686,7.686,0,0,0,5.656-6.83,23.836,23.836,0,0,1,23.654-21.89h21.587a23.836,23.836,0,0,1,23.655,21.89,7.694,7.694,0,0,0,5.656,6.83,153.1,153.1,0,0,1,36.582,15.16,7.656,7.656,0,0,0,8.823-.82,23.809,23.809,0,0,1,32.2,1.26l15.263,15.27a23.857,23.857,0,0,1,1.257,32.22,7.685,7.685,0,0,0-.821,8.83A153.132,153.132,0,0,1,342-1285.41a7.687,7.687,0,0,0,6.819,5.67,23.825,23.825,0,0,1,21.875,23.67v21.6h0Zm-177.253-147.1c-75.1,0-136.2,61.15-136.2,136.3s61.1,136.29,136.2,136.29,136.2-61.14,136.2-136.29S268.545-1381.57,193.444-1381.57Zm0,257.23c-66.639,0-120.853-54.25-120.853-120.93s54.215-120.94,120.853-120.94S314.3-1311.96,314.3-1245.27,260.083-1124.34,193.444-1124.34Zm91.261-181.22a7.668,7.668,0,0,0-10.633-2.17,7.682,7.682,0,0,0-2.167,10.64,93.671,93.671,0,0,1,15.536,51.82,7.677,7.677,0,0,0,7.673,7.68,7.678,7.678,0,0,0,7.674-7.68A108.98,108.98,0,0,0,284.705-1305.56Zm-16.771-19.82c-1.2-1.12-2.451-2.23-3.707-3.3a7.677,7.677,0,0,0-10.816.88,7.69,7.69,0,0,0,.876,10.83c1.082,0.91,2.155,1.87,3.191,2.84a7.677,7.677,0,0,0,5.227,2.06,7.668,7.668,0,0,0,5.617-2.45A7.692,7.692,0,0,0,267.934-1325.38Zm-69.947,72.03v-43.17c13.811,0.75,19.109,7,23.082,7,4.351,0,6.81-5.68,6.81-8.71,0-7.57-16.46-11.92-29.893-12.49v-5.3c0-2.09-2.459-3.98-4.919-3.98-2.839,0-4.92,1.89-4.92,3.98v5.68c-17.027,1.51-35,9.84-35,33.7,0,24.23,18.162,30.48,35,36.35v50.36c-21.569-.95-26.108-15.15-31.406-15.15-3.6,0-7,4.93-7,8.71,0,7.96,14.757,21.02,38.407,21.39h0v6.25c0,2.09,2.081,3.98,4.92,3.98,2.459,0,4.919-1.89,4.919-3.98v-6.81c19.677-2.65,33.3-14.96,33.3-38.06C231.286-1239.54,214.069-1247.49,197.987-1253.35Zm-9.083-3.23c-11.162-4.16-20.622-8.51-20.621-21.58,0-12.12,9.27-17.04,20.621-18.17v39.75Zm8.325,66.27v-46.39c10.406,4.36,18.92,10.23,18.92,24.62C216.149-1199.59,209.149-1192.2,197.229-1190.31Z"/>
  <path class="cls-1" d="M-451.063-1382.73A187.256,187.256,0,0,0-584.414-1438a187.262,187.262,0,0,0-133.352,55.27A187.531,187.531,0,0,0-773-1249.29a187.531,187.531,0,0,0,55.235,133.44,187.272,187.272,0,0,0,133.352,55.28,187.266,187.266,0,0,0,133.351-55.28,187.528,187.528,0,0,0,55.236-133.44A187.528,187.528,0,0,0-451.063-1382.73Zm-133.351,307.12c-95.7,0-173.56-77.91-173.56-173.68s77.859-173.68,173.56-173.68,173.56,77.91,173.56,173.68S-488.713-1075.61-584.414-1075.61Zm96.958-270.81a26.314,26.314,0,0,0-37.189,0l-156.683,156.79a26.289,26.289,0,0,0-7.746,18.83,26.323,26.323,0,0,0,7.915,18.77,26.357,26.357,0,0,0,18.532,7.55,26.36,26.36,0,0,0,18.739-7.76l156.434-156.97A26.354,26.354,0,0,0-487.456-1346.42Zm-10.633,26.59-156.444,156.98a11.456,11.456,0,0,1-16.1.09,11.376,11.376,0,0,1-3.419-8.11A11.346,11.346,0,0,1-670.7-1179l156.683-156.79a11.291,11.291,0,0,1,15.939,0A11.3,11.3,0,0,1-498.089-1319.83Zm-146.057-22.69a33.485,33.485,0,0,0-33.435,33.46,33.485,33.485,0,0,0,33.435,33.46,33.485,33.485,0,0,0,33.435-33.46A33.485,33.485,0,0,0-644.146-1342.52Zm0,51.88a18.439,18.439,0,0,1-18.408-18.42,18.433,18.433,0,0,1,18.408-18.42,18.433,18.433,0,0,1,18.408,18.42A18.439,18.439,0,0,1-644.146-1290.64Zm119.464,67.67a33.476,33.476,0,0,0-33.434,33.45,33.485,33.485,0,0,0,33.434,33.46,33.485,33.485,0,0,0,33.434-33.46A33.477,33.477,0,0,0-524.682-1222.97Zm0,51.87a18.433,18.433,0,0,1-18.408-18.42,18.439,18.439,0,0,1,18.408-18.42,18.439,18.439,0,0,1,18.408,18.42A18.433,18.433,0,0,1-524.682-1171.1Zm92.118-47.13a7.509,7.509,0,0,0-9.135,5.43,147.123,147.123,0,0,1-142.715,110.87,7.519,7.519,0,0,0-7.513,7.52,7.519,7.519,0,0,0,7.513,7.52,162.142,162.142,0,0,0,157.277-122.2A7.517,7.517,0,0,0-432.564-1218.23Zm2.927-38.58a7.519,7.519,0,0,0-7.513,7.52c0,2.15-.047,4.32-0.139,6.44a7.519,7.519,0,0,0,7.182,7.84c0.11,0,.22.01,0.33,0.01a7.519,7.519,0,0,0,7.5-7.2c0.1-2.34.153-4.72,0.153-7.09A7.519,7.519,0,0,0-429.637-1256.81Z"/>
  <path id="Forma_1" data-name="Forma 1" class="cls-1" d="M730.955-358.849a5.188,5.188,0,0,0-3.6,1.459,4.926,4.926,0,0,0-1.5,3.515,4.922,4.922,0,0,0,1.5,3.514,5.19,5.19,0,0,0,3.6,1.461,5.188,5.188,0,0,0,3.6-1.461,4.923,4.923,0,0,0,1.5-3.514,4.927,4.927,0,0,0-1.5-3.515A5.177,5.177,0,0,0,730.955-358.849Zm132.416,1.459a4.921,4.921,0,0,0-1.5,3.515,4.934,4.934,0,0,0,1.5,3.514,5.2,5.2,0,0,0,3.605,1.459,5.2,5.2,0,0,0,3.611-1.459,4.965,4.965,0,0,0,1.489-3.514,4.952,4.952,0,0,0-1.489-3.515,5.2,5.2,0,0,0-3.611-1.459A5.19,5.19,0,0,0,863.371-357.39Zm-12.716-1.459H747.279a5.038,5.038,0,0,0-5.1,4.974,5.04,5.04,0,0,0,5.1,4.975H850.655a5.04,5.04,0,0,0,5.1-4.975A5.039,5.039,0,0,0,850.655-358.849Zm154.085-94.412a21.683,21.683,0,0,0-16.417-6.067l-7.161-15.707a15.368,15.368,0,0,0,5.174-11.468,15.643,15.643,0,0,0-10.882-14.764v-61.565l4.373-5.508a4.915,4.915,0,0,0,.911-1.822,15.4,15.4,0,0,0,5.6-11.833,15.805,15.805,0,0,0-15.982-15.584A15.871,15.871,0,0,0,954.508-584L942.99-570.97a5.147,5.147,0,0,0-1.768.658L713.187-433.121h-9.436a15.806,15.806,0,0,0-15.983,15.584v5.637H676.547a10.424,10.424,0,0,0-10.542,10.279v26.527a10.425,10.425,0,0,0,10.542,10.277h36.169a20.393,20.393,0,0,0-3.184,10.942c0,11.517,9.61,20.889,21.423,20.889H866.977c11.814,0,21.424-9.372,21.424-20.889s-9.611-20.89-21.424-20.89H850.314v-30.462L965.252-549.986v48.719A15.645,15.645,0,0,0,954.371-486.5a15.371,15.371,0,0,0,5.173,11.468l-7.283,15.977a21.769,21.769,0,0,0-18.82,5.8,20.545,20.545,0,0,0,0,29.541l7.67,7.478,0.025,0.025a0.3,0.3,0,0,1,.025.025l7.669,7.478a5.159,5.159,0,0,0,3.607,1.456,5.146,5.146,0,0,0,3.606-1.456,4.885,4.885,0,0,0,0-7.033l-4.087-3.987,17.134-16.705,17.133,16.705-4.087,3.987a4.884,4.884,0,0,0,0,7.033,5.151,5.151,0,0,0,3.605,1.456,5.15,5.15,0,0,0,3.607-1.456l7.661-7.471a0.25,0.25,0,0,0,.034-0.032,0.219,0.219,0,0,0,.034-0.034l7.663-7.469a20.507,20.507,0,0,0,6.27-14.769A20.519,20.519,0,0,0,1004.74-453.261ZM970.353-587.634a5.719,5.719,0,0,1,5.781,5.641,5.717,5.717,0,0,1-5.781,5.637,5.717,5.717,0,0,1-5.78-5.637A5.718,5.718,0,0,1,970.353-587.634ZM840.113-392.3l-15.8-4.4a16.379,16.379,0,0,1-12.084-15.621v-10.85H823.45a16.477,16.477,0,0,1,16.663,16.245V-392.3Zm-38.036-18.522a16.241,16.241,0,0,0-5.832-1.078h-5.781v-10.943a0.335,0.335,0,0,1,.341-0.329h11.222v10.85C802.027-411.82,802.047-411.32,802.077-410.822Zm19.036-22.3H790.805a10.424,10.424,0,0,0-10.541,10.28V-411.9H741.5v-5.637a15.632,15.632,0,0,0-10.472-14.627l190.655-114.7ZM697.97-417.537a5.716,5.716,0,0,1,5.781-5.635h10.876l0.011,0,0.01,0h10.866a5.716,5.716,0,0,1,5.781,5.635v5.637H697.97v-5.637Zm-21.762,42.443v-10.943h11.221a5.038,5.038,0,0,0,5.1-4.975,5.038,5.038,0,0,0-5.1-4.974H676.208v-5.635a0.335,0.335,0,0,1,.339-0.332h119.7a5.718,5.718,0,0,1,5.782,5.638v0.329H709.192a5.038,5.038,0,0,0-5.1,4.974,5.038,5.038,0,0,0,5.1,4.975h92.835v11.272H676.547A0.333,0.333,0,0,1,676.208-375.094ZM878.2-353.875a11.1,11.1,0,0,1-11.221,10.943H730.955a11.1,11.1,0,0,1-11.222-10.943,11.1,11.1,0,0,1,11.222-10.942H866.976A11.1,11.1,0,0,1,878.2-353.875Zm-65.97-20.89V-391.8a26.974,26.974,0,0,0,9.282,4.669l18.6,5.182v7.189H812.228ZM847.7-418.186a26.758,26.758,0,0,0-14.654-13.2l124.7-141.043a16.037,16.037,0,0,0,7.5,5.2v1Zm122.651-73.956a5.718,5.718,0,0,1,5.781,5.639,5.717,5.717,0,0,1-5.781,5.637,5.716,5.716,0,0,1-5.78-5.637A5.717,5.717,0,0,1,970.353-492.142Zm-25.61,65.375-4.088-3.986a10.764,10.764,0,0,1,0-15.475,11.33,11.33,0,0,1,7.934-3.2,11.329,11.329,0,0,1,7.935,3.2l4.087,3.988Zm24.347-21.275-5.352-5.219a21.071,21.071,0,0,0-2.13-1.812l7.255-15.917c0.492,0.044.987,0.073,1.489,0.073s1-.029,1.49-0.073l6.666,14.625a21.217,21.217,0,0,0-4.067,3.1Zm28.435,17.289-4.088,3.986-15.87-15.473,4.088-3.988a11.439,11.439,0,0,1,15.87,0,10.734,10.734,0,0,1,3.285,7.737A10.733,10.733,0,0,1,997.525-430.753Z"/>
  <path id="Forma_1-2" data-name="Forma 1" class="cls-1" d="M269.534-565.682L266.5-587.71a4.214,4.214,0,0,0-1.619-2.78,4.071,4.071,0,0,0-3.082-.779l-23.867,3.717a4.178,4.178,0,0,0-3.447,4.774,4.129,4.129,0,0,0,4.694,3.506l13.907-2.167c-18.6,23.381-38.6,43.3-59.55,59.254a242.71,242.71,0,0,1-56.422,32.531C104.423-476.55,82.1-477.41,81.88-477.42a4.135,4.135,0,0,0-4.306,3.982,4.162,4.162,0,0,0,3.912,4.386c0.135,0.006.7,0.03,1.66,0.03,5.934,0,27.044-.926,56.473-12.636a250.362,250.362,0,0,0,58.537-33.58c21.7-16.484,42.389-37.066,61.576-61.236l1.646,11.953a4.142,4.142,0,0,0,4.073,3.608,3.9,3.9,0,0,0,.576-0.042A4.173,4.173,0,0,0,269.534-565.682ZM315.989-365.44h-33.28a50.2,50.2,0,0,0,7.7-6.412,50.587,50.587,0,0,0,14.542-35.7,50.583,50.583,0,0,0-14.542-35.7,49.543,49.543,0,0,0-10.986-8.417v-16.907a4.152,4.152,0,0,0-4.118-4.186,4.151,4.151,0,0,0-4.118,4.186v13.188a48.762,48.762,0,0,0-34.52,1.031v-51.438a0.975,0.975,0,0,1,.966-0.982h32.587a0.975,0.975,0,0,1,.967.982V-495.4a4.154,4.154,0,0,0,4.118,4.189,4.154,4.154,0,0,0,4.118-4.189v-10.393a9.292,9.292,0,0,0-9.2-9.359H237.631a9.292,9.292,0,0,0-9.2,9.359V-450a49.673,49.673,0,0,0-8.233,6.747,50.582,50.582,0,0,0-14.542,35.7,50.583,50.583,0,0,0,14.542,35.7,50.249,50.249,0,0,0,7.7,6.412h-26V-467.8a9.29,9.29,0,0,0-9.2-9.356H160.1a9.29,9.29,0,0,0-9.2,9.356V-365.44H124.356v-67.909a9.29,9.29,0,0,0-9.2-9.356H82.567a9.29,9.29,0,0,0-9.2,9.356v67.909H56.4V-580.8a7.671,7.671,0,0,0-7.6-7.726H42.287a7.671,7.671,0,0,0-7.6,7.726v29.731a4.153,4.153,0,0,0,4.118,4.187,4.154,4.154,0,0,0,4.118-4.187v-29.082h5.239v215.36a7.673,7.673,0,0,0,7.6,7.728H315.351v6.3H42.925V-524.608a4.155,4.155,0,0,0-4.118-4.189,4.155,4.155,0,0,0-4.118,4.189v174.492a7.673,7.673,0,0,0,7.6,7.728h273.7a7.673,7.673,0,0,0,7.6-7.728v-7.6A7.672,7.672,0,0,0,315.989-365.44Zm-199.869,0H81.6v-67.909a0.974,0.974,0,0,1,.966-0.981h32.587a0.974,0.974,0,0,1,.966.981v67.909h0Zm43.012,0V-467.8a0.975,0.975,0,0,1,.967-0.981h32.586a0.974,0.974,0,0,1,.966.981V-365.44H159.132Zm114.361-4.282a41.145,41.145,0,0,1-13.319,3.984l-0.233.028c-0.315.036-.631,0.069-0.947,0.1-0.481.044-.964,0.082-1.448,0.109l-0.459.019c-0.594.026-1.188,0.045-1.786,0.045s-1.195-.019-1.79-0.045l-0.564-.027q-0.672-.041-1.341-0.1-0.556-.051-1.109-0.118c-0.264-.03-0.527-0.062-0.79-0.1-0.375-.051-0.749-0.106-1.123-0.169-0.049-.008-0.1-0.017-0.145-0.027a40.9,40.9,0,0,1-13.833-5.046c-0.022-.013-0.046-0.023-0.069-0.036a41.692,41.692,0,0,1-8.519-6.667,42.2,42.2,0,0,1-12.129-29.777,42.2,42.2,0,0,1,12.129-29.778,41.384,41.384,0,0,1,9.9-7.439l0.3-.158a40.9,40.9,0,0,1,19.077-4.715,40.943,40.943,0,0,1,15.424,3.014c0.086,0.035.172,0.067,0.258,0.1,0.512,0.213,1.021.44,1.526,0.674,0.2,0.093.4,0.19,0.6,0.287a41.231,41.231,0,0,1,11.471,8.234,42.666,42.666,0,0,1,0,59.555,41.482,41.482,0,0,1-10.94,7.989C273.594-369.763,273.542-369.746,273.493-369.722ZM257.215-411.6v-14.917c5.059,0.367,6.938,2.718,8.671,2.718,2.168,0,3.18-2.79,3.18-4.186,0-3.6-6.937-5.144-11.85-5.292v-1.984a2.094,2.094,0,0,0-2.167-1.689,1.916,1.916,0,0,0-2.1,1.689v2.132c-6.865.735-13.729,4.41-13.729,13.667,0,9.4,7.226,12.051,13.729,14.4V-387.8c-7.37-.587-9.321-5.731-11.706-5.731-1.806,0-3.324,2.425-3.324,4.189,0,3.6,6.07,8.523,15.03,8.67h0v2.279a1.917,1.917,0,0,0,2.1,1.689,2.1,2.1,0,0,0,2.167-1.689v-2.5c7.8-1.1,13.15-6.1,13.15-15.135C270.365-406.022,263.5-409.254,257.215-411.6Zm-3.829-1.4c-3.829-1.471-6.936-3.013-6.935-7.2,0-3.821,2.89-5.657,6.935-6.172V-413Zm3.4,25.055v-15.5c3.54,1.545,6.358,3.6,6.358,8.231C263.141-391.031,260.684-388.68,256.783-387.946Z"/>
  <path id="Forma_1-3" data-name="Forma 1" class="cls-1" d="M976.219-1124.73h-2.5a26.234,26.234,0,0,0-18.684-22.66v-146a4.177,4.177,0,0,0-4.109-4.24,4.177,4.177,0,0,0-4.109,4.24v145.1H946.77c-0.173.02-.344,0.03-0.516,0.05-0.321.03-.641,0.05-0.959,0.09-0.2.02-.391,0.05-0.586,0.08-0.29.04-.581,0.08-0.869,0.13l-0.608.12c-0.276.06-.553,0.12-0.825,0.19-0.206.04-.409,0.1-0.612,0.15-0.266.07-.532,0.14-0.795,0.23-0.205.06-.406,0.12-0.609,0.19-0.258.09-.515,0.17-0.77,0.27-0.2.07-.4,0.15-0.6,0.23-0.25.1-.5,0.2-0.745,0.31-0.2.08-.395,0.17-0.591,0.27s-0.407.19-.608,0.29v-28.1a5.016,5.016,0,0,0-4.936-5.08H912.278a5.016,5.016,0,0,0-4.936,5.08v28.39a5.025,5.025,0,0,0,4.936,5.09h17.606c-0.124.13-.251,0.25-0.372,0.39-0.224.25-.438,0.51-0.652,0.76-0.105.13-.214,0.25-0.316,0.38q-0.471.585-.91,1.2c-0.463.1-.918,0.21-1.369,0.34-0.146.04-.288,0.09-0.432,0.13-0.3.1-.607,0.2-0.9,0.3-0.166.06-.329,0.13-0.492,0.19-0.273.11-.543,0.22-0.81,0.34-0.167.07-.331,0.15-0.494,0.23-0.263.12-.522,0.25-0.779,0.39-0.155.08-.31,0.16-0.462,0.25q-0.407.225-.8,0.48c-0.13.08-.261,0.15-0.388,0.24-0.346.22-.684,0.46-1.016,0.71a0.8,0.8,0,0,0-.115.08c-0.369.28-.729,0.57-1.079,0.88-0.1.08-.192,0.18-0.289,0.26-0.247.23-.491,0.45-0.727,0.69-0.119.12-.232,0.24-0.348,0.36q-0.312.315-.61,0.66c-0.117.13-.231,0.27-0.344,0.4q-0.285.345-.553,0.69-0.162.21-.318,0.42c-0.183.26-.357,0.51-0.529,0.77-0.088.13-.179,0.27-0.265,0.4-0.2.32-.395,0.65-0.583,0.99-0.043.08-.09,0.15-0.132,0.23-0.226.42-.438,0.85-0.637,1.28-0.051.11-.095,0.23-0.145,0.34-0.115.27-.235,0.53-0.341,0.8H859.64v-62.22l1.554,1.06c0.306,0.21.621,0.4,0.944,0.58l0.2,0.09a10.188,10.188,0,0,0,5.55,1.08,10.2,10.2,0,0,0,1.637-.27,10.484,10.484,0,0,0,2.049-.78c0.046-.02.088-0.05,0.133-0.07,0.277-.15.552-0.3,0.813-0.47h0.008a10.419,10.419,0,0,0,.878-0.64,1.225,1.225,0,0,0,.124-0.11,10.775,10.775,0,0,0,2.661-3.29,10.992,10.992,0,0,0,.41-9.28h16.823a5.017,5.017,0,0,0,4.935-5.09v-28.39a5.015,5.015,0,0,0-4.935-5.08H873.559a5.015,5.015,0,0,0-4.935,5.08v25.89l-8.983-6.16v-19.73a5.016,5.016,0,0,0-4.936-5.08H834.843a4.988,4.988,0,0,0-4.9,4.47l-9.78-6.7V-1371.7h126.65v52.01a4.177,4.177,0,0,0,4.109,4.24,4.177,4.177,0,0,0,4.109-4.24v-53.36a7.019,7.019,0,0,0-6.908-7.11h-6.3v-11.76a6.009,6.009,0,0,0-5.914-6.09H831.072a6.009,6.009,0,0,0-5.914,6.09v11.76h-6.3a7.019,7.019,0,0,0-6.907,7.11v127.58l-5.041-3.45a5.629,5.629,0,0,0-6.42,0l-16.795,11.5v-5.71a6.707,6.707,0,0,0-6.6-6.79H757.48a6.707,6.707,0,0,0-6.6,6.79v6.74a6.835,6.835,0,0,0,3.5,6v13.06l-19.746,13.52a10.914,10.914,0,0,0-3.424,14.04,10.527,10.527,0,0,0,6.664,5.36,10.443,10.443,0,0,0,2.54.32,10.279,10.279,0,0,0,5.792-1.8h0l1.555-1.06v20.88a4.168,4.168,0,0,0,4.109,4.23,4.168,4.168,0,0,0,4.108-4.23v-26.51l47.724-32.7,47.724,32.7v67.85h-52.68v-45.46a5.981,5.981,0,0,0-5.881-6.06H766.022a5.98,5.98,0,0,0-5.881,6.06v45.46h-4.168v-15.05a4.174,4.174,0,0,0-4.108-4.23,4.174,4.174,0,0,0-4.109,4.23v15.05H726.47a11.743,11.743,0,0,0-11.55,11.9,11.734,11.734,0,0,0,11.549,11.89H976.22a11.734,11.734,0,0,0,11.549-11.89A11.743,11.743,0,0,0,976.219-1124.73Zm-47.362-24.05h-13.3v-21.63h13.3v21.63Zm-52.015-80.37h13.3v21.63h-13.3v-21.63Zm-43.465-160.4H933.605v9.39H833.377v-9.39Zm88.793,264.71,0.121-.15c0.168-.21.341-0.41,0.521-0.61a0.21,0.21,0,0,1,.048-0.05c0.193-.21.394-0.4,0.6-0.6,0.049-.04.1-0.09,0.147-0.13,0.21-.19.422-0.38,0.643-0.55a0.191,0.191,0,0,1,.055-0.04c0.209-.17.424-0.32,0.642-0.47a1.506,1.506,0,0,0,.158-0.11c0.233-.15.47-0.3,0.714-0.43,0.041-.02.083-0.05,0.125-0.07,0.219-.12.443-0.23,0.671-0.34a0.955,0.955,0,0,1,.149-0.07c0.254-.12.514-0.22,0.777-0.32a1.128,1.128,0,0,1,.168-0.06q0.365-.135.74-0.24l0.107-.03c0.274-.08.554-0.14,0.835-0.2,0.066-.01.131-0.03,0.2-0.04,0.288-.05.579-0.1,0.873-0.13a4.08,4.08,0,0,0,3.053-1.96,17.19,17.19,0,0,1,14.746-8.43c0.338,0,.678.02,1.026,0.04h0.076c0.345,0.03.7,0.06,1.06,0.11h0.046a17.677,17.677,0,0,1,14.969,14.99H922.083A0.938,0.938,0,0,1,922.17-1124.84Zm-84.046-104.31h13.3v10.72l-13.3-9.1v-1.62ZM759.1-1241.46h16.376v3.41H759.1v-3.41Zm12.882,11.87h0v0.2l-9.387,6.43v-6.63h9.387Zm34.926-3.66a5.666,5.666,0,0,0-2.182-.89c-0.064-.01-0.127-0.03-0.191-0.04h-0.049a5.5,5.5,0,0,0-3.343.56,5.782,5.782,0,0,0-.653.37l-58.839,40.31a2.168,2.168,0,0,1-1.778.32,2.233,2.233,0,0,1-1.421-1.14,2.333,2.333,0,0,1,.731-3l64.516-44.2,64.516,44.2a2.332,2.332,0,0,1,.73,3,2.231,2.231,0,0,1-1.421,1.14,2.169,2.169,0,0,1-1.778-.32l-7.939-5.44Zm-38.547,65.46h22.163v43.06H768.359v-43.06Zm207.86,58.39H726.469a3.387,3.387,0,0,1-3.332-3.43,3.387,3.387,0,0,1,3.332-3.43h249.75a3.387,3.387,0,0,1,3.333,3.43A3.387,3.387,0,0,1,976.219-1109.4Zm-135.547-60.77H808.466a5.376,5.376,0,0,0-5.294,5.45v20.17a4.177,4.177,0,0,0,4.109,4.24h34.575a4.177,4.177,0,0,0,4.109-4.24v-20.17A5.376,5.376,0,0,0,840.672-1170.17Zm-2.925,21.39H811.389v-12.93h26.358v12.93Zm16.958-206.31H834.843a5.016,5.016,0,0,0-4.936,5.08v28.4a5.016,5.016,0,0,0,4.936,5.08h19.862a5.016,5.016,0,0,0,4.936-5.08v-28.4h0A5.015,5.015,0,0,0,854.705-1355.09Zm-3.282,30.1h-13.3v-21.64h13.3v21.64Zm42-30.1H873.56a5.016,5.016,0,0,0-4.936,5.08v28.4a5.016,5.016,0,0,0,4.936,5.08h19.863a5.016,5.016,0,0,0,4.935-5.08v-28.4h0A5.015,5.015,0,0,0,893.423-1355.09Zm-3.283,30.1h-13.3v-21.64h13.3v21.64Zm42-30.1H912.277a5.016,5.016,0,0,0-4.936,5.08v28.4a5.016,5.016,0,0,0,4.936,5.08h19.862a5.016,5.016,0,0,0,4.936-5.08v-28.4A5.016,5.016,0,0,0,932.14-1355.09Zm-3.283,30.1h-13.3v-21.64h13.3v21.64Zm-74.152,28.64H834.843a5.016,5.016,0,0,0-4.936,5.08v28.4a5.016,5.016,0,0,0,4.936,5.08h19.862a5.016,5.016,0,0,0,4.936-5.08v-28.4A5.016,5.016,0,0,0,854.705-1296.35Zm-3.282,30.09h-13.3v-21.63h13.3v21.63Zm42-30.09H873.56a5.016,5.016,0,0,0-4.936,5.08v28.4a5.016,5.016,0,0,0,4.936,5.08h19.863a5.016,5.016,0,0,0,4.935-5.08v-28.4A5.016,5.016,0,0,0,893.423-1296.35Zm-3.283,30.09h-13.3v-21.63h13.3v21.63Zm42-30.09H912.277a5.016,5.016,0,0,0-4.936,5.08v28.4a5.016,5.016,0,0,0,4.936,5.08h19.862a5.016,5.016,0,0,0,4.936-5.08v-28.4A5.016,5.016,0,0,0,932.14-1296.35Zm-3.283,30.09h-13.3v-21.63h13.3v21.63Zm3.283,28.65H912.277a5.016,5.016,0,0,0-4.936,5.08v28.39a5.018,5.018,0,0,0,4.936,5.09h19.862a5.018,5.018,0,0,0,4.936-5.09v-28.39A5.016,5.016,0,0,0,932.14-1237.61Zm-3.283,30.09h-13.3v-21.63h13.3v21.63Zm-34.608,28.65H872.733a4.169,4.169,0,0,0-4.109,4.23v30.09a4.177,4.177,0,0,0,4.109,4.24h21.516a4.177,4.177,0,0,0,4.109-4.24v-30.09A4.169,4.169,0,0,0,894.249-1178.87Zm-4.109,30.09h-13.3v-21.63h13.3v21.63Z"/>
  <path id="Forma_1_copy_3" data-name="Forma 1 copy 3" class="cls-1" d="M267.173,46.665A156.487,156.487,0,0,0,.032,157.393,156.467,156.467,0,0,0,267.173,268.122,156.669,156.669,0,0,0,267.173,46.665ZM156.519,304.81C75.288,304.81,9.2,238.68,9.2,157.393S75.288,9.974,156.519,9.974,303.838,76.107,303.838,157.393,237.751,304.81,156.519,304.81Zm9.169-248.958h-9.169a4.584,4.584,0,0,0-4.584,4.588v18.35a4.585,4.585,0,0,0,4.584,4.588h9.169a37.313,37.313,0,0,1,0,74.625H151.323a4.588,4.588,0,0,0,0,9.176h14.365a46.489,46.489,0,0,0,0-92.977H161.1V65.027h4.584a83.191,83.191,0,0,1,0,166.382H114.646a4.584,4.584,0,0,0-4.584,4.586v7.276L66.115,199.294l43.947-43.978v7.276a4.586,4.586,0,0,0,4.584,4.588h18.339a4.588,4.588,0,0,0,0-9.176H119.231V144.242A4.585,4.585,0,0,0,111.405,141L56.39,196.049a4.591,4.591,0,0,0,0,6.488l55.015,55.052a4.583,4.583,0,0,0,7.826-3.243V240.582h46.457A92.365,92.365,0,0,0,165.688,55.852Z"/>
  <path class="cls-1" d="M-518.877-504.9h-12.636a5.967,5.967,0,0,0-5.924,6.007,5.964,5.964,0,0,0,5.924,6h12.636a5.966,5.966,0,0,0,5.926-6A5.968,5.968,0,0,0-518.877-504.9Zm1.558,49.616a12.118,12.118,0,0,0-9.652-4.775H-662.449a12.116,12.116,0,0,0-9.651,4.775,12.455,12.455,0,0,0-2.227,10.646l3.16,12.815a12.257,12.257,0,0,0,11.878,9.4H-530.13a12.259,12.259,0,0,0,11.879-9.4l3.16-12.813A12.462,12.462,0,0,0-517.319-455.283Zm-9.268,7.736-3.16,12.809a0.39,0.39,0,0,1-.383.3H-659.289a0.391,0.391,0,0,1-.384-0.3l-3.16-12.811a0.37,0.37,0,0,1,.072-0.343,0.361,0.361,0,0,1,.311-0.154h135.479a0.362,0.362,0,0,1,.312.154A0.37,0.37,0,0,1-526.587-447.547Zm-40.568-159.848h-55.111M-643.8-575.366h-45.06a24.981,24.981,0,0,0-23.385,16.6l-15.8,44.059a18.669,18.669,0,0,0-18.326-15.818h-6.319A18.711,18.711,0,0,0-771.258-511.7,18.711,18.711,0,0,0-752.7-492.889h6.319a18.222,18.222,0,0,0,8.139-1.91l-13.544,17.165a32.018,32.018,0,0,0-6.838,19.76V-338.74a12.342,12.342,0,0,0,12.243,12.412h18.959a12.342,12.342,0,0,0,12.244-12.412v-26.027h240.929v26.027A12.342,12.342,0,0,0-462-326.328h18.958A12.342,12.342,0,0,0-430.8-338.74V-457.874a32.019,32.019,0,0,0-6.837-19.76L-451.182-494.8a18.225,18.225,0,0,0,8.139,1.91h6.32A18.711,18.711,0,0,0-418.16-511.7a18.711,18.711,0,0,0-18.563-18.816h-6.319A18.669,18.669,0,0,0-461.368-514.7l-15.805-44.059a24.975,24.975,0,0,0-23.385-16.6h-45.059M-746.376-504.9h-6.319a6.767,6.767,0,0,1-6.714-6.806,6.767,6.767,0,0,1,6.714-6.806h6.319a6.768,6.768,0,0,1,6.715,6.806A6.769,6.769,0,0,1-746.376-504.9ZM-557.7-575.366h-74.018m-95.3,236.626a0.4,0.4,0,0,1-.4.4h-18.959a0.4,0.4,0,0,1-.394-0.4v-29.774a24.493,24.493,0,0,0,13.033,3.747h6.715v26.027h0ZM-524.8-376.779H-664.618V-389.99a0.4,0.4,0,0,1,.4-0.4H-525.2a0.4,0.4,0,0,1,.4.4v13.211h0Zm82.152,38.039a0.4,0.4,0,0,1-.395.4H-462a0.4,0.4,0,0,1-.4-0.4v-26.027h6.714a24.5,24.5,0,0,0,13.034-3.747v29.774h0Zm-4.239-131.392a19.882,19.882,0,0,1,4.24,12.258v67.884a13.138,13.138,0,0,1-13.034,13.211h-57.27V-389.99A12.342,12.342,0,0,0-525.2-402.4H-664.223a12.342,12.342,0,0,0-12.244,12.411v13.211h-57.27A13.137,13.137,0,0,1-746.77-389.99v-67.884a19.87,19.87,0,0,1,4.241-12.258l17.959-22.757h167.778a5.965,5.965,0,0,0,5.924-6,5.966,5.966,0,0,0-5.924-6H-718.959l17.85-49.759a13.078,13.078,0,0,1,12.248-8.694h188.3a13.083,13.083,0,0,1,12.249,8.694l17.849,49.759H-493.6a5.967,5.967,0,0,0-5.926,6,5.967,5.967,0,0,0,5.926,6h28.749Zm-2.87-41.573a6.767,6.767,0,0,1,6.714-6.806h6.319a6.768,6.768,0,0,1,6.715,6.806,6.768,6.768,0,0,1-6.715,6.806h-6.319A6.768,6.768,0,0,1-449.757-511.7Zm-258.7,96.491A12.342,12.342,0,0,0-720.7-402.8a12.343,12.343,0,0,0,12.245,12.412A12.343,12.343,0,0,0-696.215-402.8,12.342,12.342,0,0,0-708.459-415.214Zm227.5,0A12.342,12.342,0,0,0-493.2-402.8a12.343,12.343,0,0,0,12.244,12.412A12.342,12.342,0,0,0-468.716-402.8,12.341,12.341,0,0,0-480.959-415.214Zm-230.659-51.248a21.9,21.9,0,0,0-21.724,22.019,21.9,21.9,0,0,0,21.724,22.021A21.9,21.9,0,0,0-689.9-444.443,21.9,21.9,0,0,0-711.618-466.462Zm0,32.028a9.951,9.951,0,0,1-9.875-10.009,9.953,9.953,0,0,1,9.875-10.009,9.952,9.952,0,0,1,9.873,10.009A9.951,9.951,0,0,1-711.618-434.434ZM-477.8-466.462a21.9,21.9,0,0,0-21.723,22.019A21.9,21.9,0,0,0-477.8-422.422a21.9,21.9,0,0,0,21.723-22.021A21.9,21.9,0,0,0-477.8-466.462Zm0,32.028a9.952,9.952,0,0,1-9.874-10.009,9.953,9.953,0,0,1,9.874-10.009,9.953,9.953,0,0,1,9.874,10.009A9.951,9.951,0,0,1-477.8-434.434Z"/>
</svg>
