<svg xmlns="http://www.w3.org/2000/svg" width="289" height="249" viewBox="0 0 289 249">
  <metadata><?xpacket begin="﻿" id="W5M0MpCehiHzreSzNTczkc9d"?>
<x:xmpmeta xmlns:x="adobe:ns:meta/" x:xmptk="Adobe XMP Core 5.6-c138 79.159824, 2016/09/14-01:09:01        ">
   <rdf:RDF xmlns:rdf="http://www.w3.org/1999/02/22-rdf-syntax-ns#">
      <rdf:Description rdf:about=""/>
   </rdf:RDF>
</x:xmpmeta>
                                                                                                    
                                                                                                    
                                                                                                    
                                                                                                    
                                                                                                    
                                                                                                    
                                                                                                    
                                                                                                    
                                                                                                    
                                                                                                    
                                                                                                    
                                                                                                    
                                                                                                    
                                                                                                    
                                                                                                    
                                                                                                    
                                                                                                    
                                                                                                    
                                                                                                    
                                                                                                    
                           
<?xpacket end="w"?></metadata>
<defs>
    <style>
      .cls-1 {
        fill-rule: evenodd;
      }
    </style>
  </defs>
  <path class="cls-1" d="M320.44-703.243A168.548,168.548,0,0,0,307.6-734.271a39.343,39.343,0,0,0-5.331-48.648L287-798.193a39.267,39.267,0,0,0-48.613-5.334,168.362,168.362,0,0,0-31-12.853A39.293,39.293,0,0,0,169.237-847H147.651a39.292,39.292,0,0,0-38.144,30.622A168.214,168.214,0,0,0,78.5-803.527a39.271,39.271,0,0,0-48.614,5.332L14.624-782.921a39.34,39.34,0,0,0-5.33,48.648A168.473,168.473,0,0,0-3.55-703.247a39.314,39.314,0,0,0-30.605,38.172v21.6A39.314,39.314,0,0,0-3.552-605.3,168.524,168.524,0,0,0,9.291-574.277a39.337,39.337,0,0,0,5.331,48.646l15.264,15.278A39.269,39.269,0,0,0,78.5-505.021a168.284,168.284,0,0,0,31.006,12.853,39.3,39.3,0,0,0,38.143,30.624h21.588a39.3,39.3,0,0,0,38.145-30.624,168.333,168.333,0,0,0,31-12.853A39.273,39.273,0,0,0,287-510.353l15.265-15.278a39.334,39.334,0,0,0,5.331-48.646A168.515,168.515,0,0,0,320.438-605.3a39.313,39.313,0,0,0,30.6-38.173v-21.6A39.3,39.3,0,0,0,320.44-703.243ZM335.7-643.474A23.835,23.835,0,0,1,313.823-619.8a7.675,7.675,0,0,0-6.82,5.659,153.176,153.176,0,0,1-15.154,36.609,7.682,7.682,0,0,0,.821,8.828,23.851,23.851,0,0,1-1.256,32.216l-15.265,15.275a23.813,23.813,0,0,1-32.195,1.259,7.678,7.678,0,0,0-8.823-.822,152.738,152.738,0,0,1-36.583,15.166,7.683,7.683,0,0,0-5.656,6.823A23.831,23.831,0,0,1,169.237-476.9H147.651A23.831,23.831,0,0,1,124-498.788a7.683,7.683,0,0,0-5.656-6.825,152.745,152.745,0,0,1-36.582-15.166,7.658,7.658,0,0,0-3.829-1.023,7.664,7.664,0,0,0-4.993,1.847,23.819,23.819,0,0,1-32.2-1.259L25.474-536.489a23.854,23.854,0,0,1-1.256-32.217,7.679,7.679,0,0,0,.821-8.827A153.111,153.111,0,0,1,9.885-614.142,7.674,7.674,0,0,0,3.066-619.8a23.836,23.836,0,0,1-21.875-23.671v-21.6A23.831,23.831,0,0,1,3.066-688.743,7.68,7.68,0,0,0,9.885-694.4a153.244,153.244,0,0,1,15.154-36.607,7.68,7.68,0,0,0-.821-8.828,23.854,23.854,0,0,1,1.256-32.218l15.264-15.275a23.815,23.815,0,0,1,32.2-1.257,7.673,7.673,0,0,0,8.822.822,152.752,152.752,0,0,1,36.582-15.166A7.684,7.684,0,0,0,124-809.758a23.832,23.832,0,0,1,23.654-21.888h21.587a23.832,23.832,0,0,1,23.655,21.886,7.685,7.685,0,0,0,5.656,6.827,152.867,152.867,0,0,1,36.582,15.164,7.671,7.671,0,0,0,8.823-.822,23.812,23.812,0,0,1,32.2,1.257l15.263,15.277a23.854,23.854,0,0,1,1.257,32.218,7.681,7.681,0,0,0-.821,8.828A153.117,153.117,0,0,1,307-694.406a7.679,7.679,0,0,0,6.819,5.663A23.831,23.831,0,0,1,335.7-665.075v21.6h0ZM158.444-790.567c-75.1,0-136.2,61.143-136.2,136.293s61.1,136.295,136.2,136.295,136.2-61.141,136.2-136.295S233.545-790.567,158.444-790.567Zm0,257.23c-66.639,0-120.853-54.249-120.853-120.937S91.8-775.209,158.444-775.209,279.3-720.958,279.3-654.274,225.083-533.337,158.444-533.337Zm91.261-181.224a7.669,7.669,0,0,0-10.633-2.17,7.685,7.685,0,0,0-2.167,10.642,93.669,93.669,0,0,1,15.536,51.815,7.675,7.675,0,0,0,7.673,7.679,7.676,7.676,0,0,0,7.674-7.679A109,109,0,0,0,249.705-714.561Zm-16.771-19.815c-1.2-1.12-2.451-2.231-3.707-3.3a7.672,7.672,0,0,0-10.816.879,7.684,7.684,0,0,0,.876,10.825c1.082,0.919,2.155,1.874,3.191,2.84a7.644,7.644,0,0,0,5.227,2.06,7.646,7.646,0,0,0,5.617-2.45A7.682,7.682,0,0,0,232.934-734.376Zm-69.947,72.022v-43.17c13.811,0.757,19.109,7.006,23.082,7.006,4.351,0,6.81-5.68,6.81-8.708,0-7.573-16.46-11.929-29.893-12.5v-5.3c0-2.083-2.459-3.975-4.919-3.975-2.839,0-4.92,1.892-4.92,3.975v5.678c-17.027,1.518-35,9.846-35,33.7,0,24.235,18.162,30.482,35,36.352v50.361c-21.569-.949-26.108-15.147-31.406-15.147-3.595,0-7,4.923-7,8.71,0,7.953,14.757,21.013,38.407,21.39h0v6.25c0,2.083,2.081,3.978,4.92,3.978,2.459,0,4.919-1.895,4.919-3.978v-6.815c19.677-2.652,33.3-14.957,33.3-38.054C196.286-648.535,179.069-656.486,162.987-662.354Zm-9.083-3.223c-11.162-4.162-20.622-8.517-20.621-21.582,0-12.116,9.27-17.037,20.621-18.175v39.757Zm8.325,66.268V-645.7c10.406,4.356,18.92,10.224,18.92,24.614C181.149-608.588,174.149-601.2,162.229-599.309Z"/>
  <path class="cls-1" d="M-486.063-791.73A187.278,187.278,0,0,0-619.414-847,187.283,187.283,0,0,0-752.766-791.73,187.541,187.541,0,0,0-808-658.29a187.542,187.542,0,0,0,55.235,133.442,187.292,187.292,0,0,0,133.352,55.275,187.286,187.286,0,0,0,133.351-55.275A187.539,187.539,0,0,0-430.827-658.29,187.538,187.538,0,0,0-486.063-791.73ZM-619.414-484.61c-95.7,0-173.56-77.912-173.56-173.68s77.859-173.676,173.56-173.676,173.56,77.91,173.56,173.676S-523.713-484.61-619.414-484.61Zm96.958-270.81a26.314,26.314,0,0,0-37.189,0L-716.328-598.633a26.3,26.3,0,0,0-7.746,18.835,26.293,26.293,0,0,0,7.915,18.763,26.35,26.35,0,0,0,18.532,7.556,26.359,26.359,0,0,0,18.739-7.759l156.434-156.968A26.359,26.359,0,0,0-522.456-755.42Zm-10.633,26.589L-689.533-571.852a11.446,11.446,0,0,1-16.1.091,11.371,11.371,0,0,1-3.419-8.107A11.344,11.344,0,0,1-705.7-588L-549.02-744.789a11.284,11.284,0,0,1,15.939,0A11.3,11.3,0,0,1-533.089-728.831Zm-146.057-22.687a33.483,33.483,0,0,0-33.435,33.456A33.485,33.485,0,0,0-679.146-684.6a33.485,33.485,0,0,0,33.435-33.458A33.483,33.483,0,0,0-679.146-751.518Zm0,51.875a18.435,18.435,0,0,1-18.408-18.419,18.437,18.437,0,0,1,18.408-18.422,18.437,18.437,0,0,1,18.408,18.422A18.435,18.435,0,0,1-679.146-699.643Zm119.464,67.669a33.481,33.481,0,0,0-33.434,33.455,33.484,33.484,0,0,0,33.434,33.457,33.484,33.484,0,0,0,33.434-33.457A33.482,33.482,0,0,0-559.682-631.974Zm0,51.878a18.436,18.436,0,0,1-18.408-18.421,18.435,18.435,0,0,1,18.408-18.42,18.435,18.435,0,0,1,18.408,18.42A18.436,18.436,0,0,1-559.682-580.1Zm92.118-47.134A7.509,7.509,0,0,0-476.7-621.8,147.125,147.125,0,0,1-619.414-510.926a7.515,7.515,0,0,0-7.513,7.519,7.516,7.516,0,0,0,7.513,7.517,162.144,162.144,0,0,0,157.277-122.2A7.516,7.516,0,0,0-467.564-627.23Zm2.927-38.577a7.516,7.516,0,0,0-7.513,7.517c0,2.151-.047,4.316-0.139,6.443a7.516,7.516,0,0,0,7.182,7.836q0.165,0.006.33,0.006a7.514,7.514,0,0,0,7.5-7.194c0.1-2.339.153-4.725,0.153-7.091A7.516,7.516,0,0,0-464.637-665.807Z"/>
  <path id="Forma_1" data-name="Forma 1" class="cls-1" d="M695.955,232.151a5.188,5.188,0,0,0-3.6,1.459,4.876,4.876,0,0,0,0,7.029,5.176,5.176,0,0,0,7.208,0,4.874,4.874,0,0,0,0-7.029A5.177,5.177,0,0,0,695.955,232.151Zm132.416,1.459a4.874,4.874,0,0,0,0,7.029,5.191,5.191,0,0,0,7.216,0,4.892,4.892,0,0,0,0-7.029A5.191,5.191,0,0,0,828.371,233.61Zm-12.716-1.459H712.279a4.976,4.976,0,1,0,0,9.949H815.655A4.976,4.976,0,1,0,815.655,232.151Zm154.083-94.412a21.676,21.676,0,0,0-16.415-6.067l-7.161-15.707a15.368,15.368,0,0,0,5.174-11.468,15.643,15.643,0,0,0-10.882-14.764V28.168l4.373-5.508a4.916,4.916,0,0,0,.911-1.822A15.4,15.4,0,0,0,951.336,9a16.009,16.009,0,0,0-31.828-2L907.99,20.03a5.166,5.166,0,0,0-1.768.658L678.187,157.879h-9.436a15.806,15.806,0,0,0-15.983,15.584V179.1H641.547a10.424,10.424,0,0,0-10.542,10.279v26.527a10.425,10.425,0,0,0,10.542,10.277h36.169a20.393,20.393,0,0,0-3.184,10.942c0,11.517,9.61,20.889,21.423,20.889H831.977c11.814,0,21.424-9.372,21.424-20.889s-9.611-20.89-21.424-20.89H815.314V185.773L930.252,41.015V89.733A15.644,15.644,0,0,0,919.371,104.5a15.371,15.371,0,0,0,5.173,11.468l-7.283,15.977a21.769,21.769,0,0,0-18.82,5.8,20.545,20.545,0,0,0,0,29.541l7.67,7.478c0.009,0.008.017,0.017,0.025,0.025a0.3,0.3,0,0,1,.025.025l7.669,7.478a5.195,5.195,0,0,0,7.213,0,4.885,4.885,0,0,0,0-7.033l-4.087-3.987,17.134-16.7,17.133,16.7-4.087,3.987a4.884,4.884,0,0,0,0,7.033,5.193,5.193,0,0,0,7.212,0l7.661-7.471a0.25,0.25,0,0,0,.034-0.032,0.219,0.219,0,0,0,.034-0.034l7.66-7.469A20.52,20.52,0,0,0,969.738,137.739ZM935.353,3.366a5.719,5.719,0,0,1,5.781,5.641,5.782,5.782,0,0,1-11.561,0A5.718,5.718,0,0,1,935.353,3.366ZM805.113,198.7l-15.8-4.4a16.379,16.379,0,0,1-12.084-15.621v-10.85H788.45a16.477,16.477,0,0,1,16.663,16.245V198.7Zm-38.036-18.522a16.241,16.241,0,0,0-5.832-1.078h-5.781V168.157a0.335,0.335,0,0,1,.341-0.329h11.222v10.85C767.027,179.18,767.047,179.68,767.077,180.178Zm19.036-22.3H755.805a10.424,10.424,0,0,0-10.541,10.28V179.1H706.5v-5.637a15.632,15.632,0,0,0-10.472-14.627L886.68,44.134ZM662.97,173.463a5.716,5.716,0,0,1,5.781-5.635h10.876l0.011,0,0.01,0h10.866a5.716,5.716,0,0,1,5.781,5.635V179.1H662.97v-5.637Zm-21.762,42.443V204.963h11.221a4.976,4.976,0,1,0,0-9.949H641.208v-5.635a0.335,0.335,0,0,1,.339-0.332h119.7a5.718,5.718,0,0,1,5.782,5.638v0.329H674.192a4.976,4.976,0,1,0,0,9.949h92.835v11.272H641.547A0.333,0.333,0,0,1,641.208,215.906ZM843.2,237.125a11.1,11.1,0,0,1-11.221,10.943H695.955a10.946,10.946,0,1,1,0-21.885H831.976A11.1,11.1,0,0,1,843.2,237.125Zm-65.97-20.89V199.2a26.974,26.974,0,0,0,9.282,4.669l18.6,5.182v7.189H777.228ZM812.7,172.814a26.758,26.758,0,0,0-14.654-13.2L922.75,18.571a16.035,16.035,0,0,0,7.5,5.2v1ZM935.353,98.858a5.64,5.64,0,1,1-5.78,5.639A5.718,5.718,0,0,1,935.353,98.858Zm-25.61,65.375-4.088-3.986a10.764,10.764,0,0,1,0-15.475,11.439,11.439,0,0,1,15.869,0l4.087,3.988Zm24.347-21.275-5.352-5.219a21.071,21.071,0,0,0-2.13-1.812l7.255-15.917c0.492,0.044.987,0.073,1.489,0.073s1-.029,1.49-0.073l6.666,14.625a21.217,21.217,0,0,0-4.067,3.1Zm28.435,17.289-4.088,3.986-15.87-15.473,4.088-3.988a11.439,11.439,0,0,1,15.87,0A10.75,10.75,0,0,1,962.525,160.247Z"/>
  <path id="Forma_1-2" data-name="Forma 1" class="cls-1" d="M234.534,25.318L231.5,3.29A4.211,4.211,0,0,0,229.883.51a4.072,4.072,0,0,0-3.082-.78L202.934,3.448a4.179,4.179,0,0,0-3.447,4.774,4.129,4.129,0,0,0,4.694,3.506l13.907-2.167c-18.6,23.381-38.6,43.3-59.55,59.254a242.727,242.727,0,0,1-56.422,32.531C69.423,114.45,47.1,113.59,46.88,113.58a4.189,4.189,0,0,0-.394,8.368c0.135,0.006.7,0.03,1.66,0.03,5.934,0,27.044-.926,56.473-12.636a250.353,250.353,0,0,0,58.537-33.58c21.7-16.484,42.389-37.066,61.576-61.236l1.646,11.953a4.142,4.142,0,0,0,4.073,3.608,3.952,3.952,0,0,0,.576-0.042A4.174,4.174,0,0,0,234.534,25.318ZM280.989,225.56h-33.28a51.033,51.033,0,0,0,7.7-77.811,49.543,49.543,0,0,0-10.986-8.417V122.425a4.119,4.119,0,1,0-8.236,0v13.188a48.762,48.762,0,0,0-34.52,1.031V85.206a0.975,0.975,0,0,1,.966-0.981h32.587a0.975,0.975,0,0,1,.967.981V95.6a4.119,4.119,0,1,0,8.236,0V85.206a9.292,9.292,0,0,0-9.2-9.359H202.631a9.292,9.292,0,0,0-9.2,9.359V141a49.673,49.673,0,0,0-8.233,6.747,50.88,50.88,0,0,0,7.7,77.809h-26V123.2a9.29,9.29,0,0,0-9.2-9.356H125.1a9.29,9.29,0,0,0-9.2,9.356V225.56H89.356V157.651a9.29,9.29,0,0,0-9.2-9.356H47.567a9.29,9.29,0,0,0-9.2,9.356V225.56H21.4V10.2a7.672,7.672,0,0,0-7.6-7.727H7.287A7.672,7.672,0,0,0-.312,10.2V39.929a4.152,4.152,0,0,0,4.118,4.186,4.154,4.154,0,0,0,4.118-4.186V10.847h5.239v215.36a7.673,7.673,0,0,0,7.6,7.728H280.351v6.3H7.925V66.392A4.154,4.154,0,0,0,3.806,62.2,4.154,4.154,0,0,0-.312,66.392V240.884a7.673,7.673,0,0,0,7.6,7.728h273.7a7.673,7.673,0,0,0,7.6-7.728v-7.6A7.672,7.672,0,0,0,280.989,225.56Zm-199.869,0H46.6V157.651a0.974,0.974,0,0,1,.966-0.981H80.154a0.974,0.974,0,0,1,.966.981V225.56h0Zm43.012,0V123.2a0.975,0.975,0,0,1,.967-0.981h32.586a0.974,0.974,0,0,1,.966.981V225.56H124.132Zm114.361-4.282a41.145,41.145,0,0,1-13.319,3.984l-0.233.028c-0.315.036-.631,0.069-0.947,0.1-0.481.044-.964,0.082-1.448,0.109l-0.459.019c-0.594.026-1.188,0.045-1.786,0.045s-1.195-.019-1.79-0.045c-0.187-.008-0.376-0.017-0.564-0.027q-0.672-.04-1.341-0.1-0.556-.051-1.109-0.118c-0.264-.03-0.527-0.062-0.79-0.1-0.375-.051-0.749-0.106-1.123-0.169-0.049-.008-0.1-0.017-0.145-0.027a40.9,40.9,0,0,1-13.833-5.046c-0.022-.013-0.046-0.023-0.069-0.036a41.692,41.692,0,0,1-8.519-6.667,42.617,42.617,0,0,1,0-59.555,41.384,41.384,0,0,1,9.9-7.439l0.3-.158a40.96,40.96,0,0,1,34.5-1.7c0.086,0.035.172,0.067,0.258,0.1,0.512,0.213,1.021.44,1.526,0.674,0.2,0.093.4,0.19,0.6,0.287a41.231,41.231,0,0,1,11.471,8.234,42.666,42.666,0,0,1,0,59.555,41.482,41.482,0,0,1-10.94,7.989C238.594,221.237,238.542,221.254,238.493,221.278ZM222.215,179.4V164.478c5.059,0.367,6.938,2.718,8.671,2.718,2.168,0,3.18-2.79,3.18-4.186,0-3.6-6.937-5.144-11.85-5.292v-1.984a2.094,2.094,0,0,0-2.167-1.689,1.916,1.916,0,0,0-2.1,1.689v2.132c-6.865.735-13.729,4.41-13.729,13.667,0,9.405,7.226,12.051,13.729,14.4V203.2c-7.37-.587-9.321-5.731-11.706-5.731-1.806,0-3.324,2.425-3.324,4.189,0,3.6,6.07,8.523,15.03,8.67h0v2.279a1.917,1.917,0,0,0,2.1,1.689,2.1,2.1,0,0,0,2.167-1.689v-2.5c7.8-1.1,13.15-6.1,13.15-15.135C235.365,184.978,228.5,181.746,222.215,179.4Zm-3.829-1.4c-3.829-1.471-6.936-3.013-6.935-7.2,0-3.821,2.89-5.657,6.935-6.172V178Zm3.4,25.055v-15.5c3.54,1.545,6.358,3.6,6.358,8.231C228.141,199.969,225.684,202.32,221.783,203.054Z"/>
  <path id="Forma_1-3" data-name="Forma 1" class="cls-1" d="M941.219-533.728h-2.5a26.221,26.221,0,0,0-18.684-22.658V-702.394a4.172,4.172,0,0,0-4.109-4.232,4.171,4.171,0,0,0-4.109,4.232v145.105c-0.016,0-.03,0-0.046,0-0.173.011-.344,0.028-0.516,0.043-0.321.027-.641,0.052-0.959,0.088-0.2.025-.391,0.057-0.586,0.085-0.29.04-.581,0.082-0.869,0.133-0.2.035-.406,0.08-0.608,0.12-0.276.057-.553,0.114-0.825,0.181-0.206.048-.409,0.1-0.612,0.158-0.266.07-.532,0.141-0.795,0.222-0.205.063-.406,0.13-0.609,0.2-0.258.086-.515,0.171-0.77,0.265-0.2.074-.4,0.154-0.6,0.234-0.25.1-.5,0.2-0.745,0.306-0.2.085-.395,0.177-0.591,0.27s-0.407.19-.608,0.291v-28.1a5.016,5.016,0,0,0-4.936-5.081H877.278a5.016,5.016,0,0,0-4.936,5.081V-554.4a5.016,5.016,0,0,0,4.936,5.083h17.606c-0.124.131-.251,0.259-0.372,0.4-0.224.245-.438,0.506-0.652,0.762-0.105.124-.214,0.246-0.316,0.375q-0.471.585-.91,1.2c-0.463.1-.918,0.211-1.369,0.34-0.146.042-.288,0.09-0.432,0.136-0.3.1-.607,0.192-0.9,0.3-0.166.063-.329,0.128-0.492,0.19-0.273.109-.543,0.219-0.81,0.337-0.167.074-.331,0.148-0.494,0.228-0.263.124-.522,0.255-0.779,0.394-0.155.08-.31,0.16-0.462,0.247-0.271.15-.537,0.314-0.8,0.477-0.13.08-.261,0.156-0.388,0.242q-0.519.336-1.016,0.713c-0.037.025-.078,0.051-0.115,0.08q-0.553.423-1.079,0.877c-0.1.085-.192,0.178-0.289,0.268-0.247.22-.491,0.447-0.727,0.683-0.119.118-.232,0.239-0.348,0.357-0.208.219-.412,0.438-0.61,0.662-0.117.135-.231,0.268-0.344,0.4-0.19.226-.374,0.458-0.553,0.692-0.108.139-.214,0.278-0.318,0.421-0.183.251-.357,0.507-0.529,0.768-0.088.131-.179,0.262-0.265,0.4-0.2.323-.395,0.654-0.583,0.99-0.043.076-.09,0.152-0.132,0.231-0.226.416-.438,0.844-0.637,1.277-0.051.113-.095,0.229-0.145,0.341-0.115.266-.235,0.532-0.341,0.8H824.64v-62.225l1.554,1.065q0.459,0.31.944,0.574c0.065,0.036.134,0.061,0.2,0.093a10.185,10.185,0,0,0,5.55,1.077,10.2,10.2,0,0,0,1.637-.268,10.217,10.217,0,0,0,2.049-.774c0.046-.021.088-0.054,0.133-0.075,0.277-.146.552-0.3,0.813-0.467l0.008-.006a10.58,10.58,0,0,0,.878-0.634c0.043-.034.081-0.074,0.124-0.11a10.724,10.724,0,0,0,2.661-3.292,11,11,0,0,0,.41-9.284h16.823a5.016,5.016,0,0,0,4.935-5.082v-28.392a5.016,5.016,0,0,0-4.935-5.086H838.559a5.016,5.016,0,0,0-4.935,5.086v25.887l-8.983-6.154v-19.733a5.017,5.017,0,0,0-4.936-5.086H799.843a5,5,0,0,0-4.9,4.475l-9.78-6.7V-780.7h126.65v52.015a4.169,4.169,0,0,0,4.109,4.231,4.17,4.17,0,0,0,4.109-4.231v-53.363a7.023,7.023,0,0,0-6.908-7.115h-6.3V-800.92a6.011,6.011,0,0,0-5.914-6.09H796.072a6.011,6.011,0,0,0-5.914,6.09v11.757h-6.3a7.021,7.021,0,0,0-6.907,7.113v127.582l-5.041-3.452a5.636,5.636,0,0,0-6.42,0l-16.795,11.506v-5.709a6.706,6.706,0,0,0-6.6-6.8H722.48a6.707,6.707,0,0,0-6.6,6.8v6.74a6.831,6.831,0,0,0,3.5,5.994v13.058L699.629-612.8a10.907,10.907,0,0,0-3.424,14.037,10.533,10.533,0,0,0,6.664,5.356,10.161,10.161,0,0,0,2.54.323,10.255,10.255,0,0,0,5.792-1.8h0l1.555-1.065v20.882a4.169,4.169,0,0,0,4.109,4.231,4.169,4.169,0,0,0,4.108-4.231v-26.512L768.7-634.277l47.724,32.694v67.857h-52.68v-45.468a5.979,5.979,0,0,0-5.881-6.056H731.022a5.978,5.978,0,0,0-5.881,6.056v45.468h-4.168v-15.052a4.172,4.172,0,0,0-4.108-4.232,4.172,4.172,0,0,0-4.109,4.232v15.052H691.47a11.74,11.74,0,0,0-11.55,11.894,11.738,11.738,0,0,0,11.549,11.894H941.22a11.738,11.738,0,0,0,11.549-11.894A11.742,11.742,0,0,0,941.219-533.728Zm-47.362-24.05h-13.3v-21.633h13.3v21.633Zm-52.015-80.371h13.3v21.633h-13.3v-21.633Zm-43.465-160.4H898.605v9.384H798.377v-9.384ZM887.17-533.842c0.04-.053.081-0.1,0.121-0.152,0.168-.207.341-0.411,0.521-0.605,0.016-.019.031-0.038,0.048-0.055,0.193-.205.394-0.4,0.6-0.593,0.049-.048.1-0.093,0.147-0.137,0.21-.188.422-0.373,0.643-0.544,0.018-.017.037-0.03,0.055-0.046,0.209-.161.424-0.315,0.642-0.464,0.053-.036.105-0.072,0.158-0.11,0.233-.15.47-0.3,0.714-0.434,0.041-.022.083-0.047,0.125-0.066,0.219-.124.443-0.236,0.671-0.344,0.05-.023.1-0.048,0.149-0.071,0.254-.114.514-0.22,0.777-0.321,0.056-.021.112-0.038,0.168-0.059,0.243-.088.49-0.167,0.74-0.24,0.036-.009.071-0.021,0.107-0.03,0.274-.076.554-0.141,0.835-0.194,0.066-.015.131-0.029,0.2-0.04,0.288-.051.579-0.1,0.873-0.131a4.087,4.087,0,0,0,3.053-1.961,17.194,17.194,0,0,1,14.746-8.429c0.338,0,.678.013,1.026,0.036l0.076,0.006c0.345,0.025.7,0.057,1.06,0.1l0.046,0a17.672,17.672,0,0,1,14.969,14.992H887.083C887.113-533.766,887.139-533.806,887.17-533.842ZM803.124-638.149h13.3v10.723l-13.3-9.108v-1.615ZM724.1-650.458h16.376v3.407H724.1v-3.407Zm12.882,11.87h0v0.194l-9.387,6.432v-6.626h9.387Zm34.926-3.657a5.654,5.654,0,0,0-2.182-.892c-0.064-.016-0.127-0.035-0.191-0.046a0.4,0.4,0,0,0-.049,0,5.617,5.617,0,0,0-3.343.561,6.365,6.365,0,0,0-.653.379l-58.839,40.309a2.154,2.154,0,0,1-1.778.315,2.223,2.223,0,0,1-1.421-1.143,2.324,2.324,0,0,1,.731-2.993l64.516-44.2,64.516,44.2a2.323,2.323,0,0,1,.73,2.993,2.221,2.221,0,0,1-1.421,1.143,2.155,2.155,0,0,1-1.778-.315l-7.939-5.439Zm-38.547,65.458h22.163v43.059H733.359v-43.059ZM941.219-518.4H691.469a3.386,3.386,0,0,1-3.332-3.431,3.387,3.387,0,0,1,3.332-3.43h249.75a3.387,3.387,0,0,1,3.333,3.43A3.386,3.386,0,0,1,941.219-518.4ZM805.672-579.173H773.466a5.382,5.382,0,0,0-5.294,5.454v20.173a4.173,4.173,0,0,0,4.109,4.231h34.575a4.172,4.172,0,0,0,4.109-4.231v-20.173A5.381,5.381,0,0,0,805.672-579.173Zm-2.925,21.395H776.389v-12.93h26.358v12.93Zm16.958-206.313H799.843a5.017,5.017,0,0,0-4.936,5.085v28.392a5.016,5.016,0,0,0,4.936,5.082h19.862a5.016,5.016,0,0,0,4.936-5.082v-28.392h0A5.016,5.016,0,0,0,819.705-764.091Zm-3.282,30.1h-13.3v-21.633h13.3v21.633Zm42-30.1H838.56a5.017,5.017,0,0,0-4.936,5.085v28.392a5.016,5.016,0,0,0,4.936,5.082h19.863a5.016,5.016,0,0,0,4.935-5.082v-28.392h0A5.016,5.016,0,0,0,858.423-764.091Zm-3.283,30.1h-13.3v-21.633h13.3v21.633Zm42-30.1H877.277a5.017,5.017,0,0,0-4.936,5.085v28.392a5.016,5.016,0,0,0,4.936,5.082h19.862a5.016,5.016,0,0,0,4.936-5.082v-28.392A5.017,5.017,0,0,0,897.14-764.091Zm-3.283,30.1h-13.3v-21.633h13.3v21.633Zm-74.152,28.641H799.843a5.017,5.017,0,0,0-4.936,5.084v28.394a5.017,5.017,0,0,0,4.936,5.082h19.862a5.017,5.017,0,0,0,4.936-5.082v-28.394A5.017,5.017,0,0,0,819.705-705.352Zm-3.282,30.1h-13.3v-21.634h13.3v21.634Zm42-30.1H838.56a5.017,5.017,0,0,0-4.936,5.084v28.394a5.017,5.017,0,0,0,4.936,5.082h19.863a5.017,5.017,0,0,0,4.935-5.082v-28.394A5.017,5.017,0,0,0,858.423-705.352Zm-3.283,30.1h-13.3v-21.634h13.3v21.634Zm42-30.1H877.277a5.017,5.017,0,0,0-4.936,5.084v28.394a5.017,5.017,0,0,0,4.936,5.082h19.862a5.017,5.017,0,0,0,4.936-5.082v-28.394A5.017,5.017,0,0,0,897.14-705.352Zm-3.283,30.1h-13.3v-21.634h13.3v21.634Zm3.283,28.641H877.277a5.017,5.017,0,0,0-4.936,5.086v28.392a5.017,5.017,0,0,0,4.936,5.082h19.862a5.017,5.017,0,0,0,4.936-5.082v-28.392A5.018,5.018,0,0,0,897.14-646.614Zm-3.283,30.1h-13.3v-21.633h13.3v21.633Zm-34.608,28.642H837.733a4.173,4.173,0,0,0-4.109,4.231v30.1a4.173,4.173,0,0,0,4.109,4.231h21.516a4.172,4.172,0,0,0,4.109-4.231v-30.1A4.173,4.173,0,0,0,859.249-587.874Zm-4.109,30.1h-13.3v-21.633h13.3v21.633Z"/>
  <path id="Forma_1_copy_3" data-name="Forma 1 copy 3" class="cls-1" d="M232.173,637.665a156.414,156.414,0,0,0-221.307,0A156.593,156.593,0,0,0,121.519,904.986,156.615,156.615,0,0,0,232.173,637.665ZM121.519,895.81C40.288,895.81-25.8,829.68-25.8,748.393S40.288,600.974,121.519,600.974s147.319,66.133,147.319,147.419S202.751,895.81,121.519,895.81Zm9.169-248.958h-9.169a4.584,4.584,0,0,0-4.584,4.588v18.351a4.586,4.586,0,0,0,4.584,4.588h9.169a37.313,37.313,0,0,1,0,74.625H116.323a4.588,4.588,0,0,0,0,9.176h14.365a46.489,46.489,0,0,0,0-92.978H126.1v-9.175h4.584a83.191,83.191,0,0,1,0,166.381H79.647a4.585,4.585,0,0,0-4.585,4.586v7.276L31.115,790.294l43.947-43.978v7.276a4.586,4.586,0,0,0,4.585,4.588H97.985a4.588,4.588,0,0,0,0-9.176H84.231V735.242A4.585,4.585,0,0,0,76.4,732L21.39,787.049a4.591,4.591,0,0,0,0,6.488L76.4,848.589a4.584,4.584,0,0,0,7.826-3.243V831.582h46.457A92.365,92.365,0,0,0,130.688,646.852Z"/>
  <path class="cls-1" d="M-553.877,86.1h-12.636a5.967,5.967,0,0,0-5.924,6.007,5.964,5.964,0,0,0,5.924,6h12.636a5.966,5.966,0,0,0,5.926-6A5.968,5.968,0,0,0-553.877,86.1Zm1.558,49.616a12.118,12.118,0,0,0-9.652-4.775H-697.449a12.116,12.116,0,0,0-9.651,4.775,12.455,12.455,0,0,0-2.227,10.646l3.16,12.815a12.257,12.257,0,0,0,11.878,9.4H-565.13a12.259,12.259,0,0,0,11.879-9.4l3.16-12.813A12.462,12.462,0,0,0-552.319,135.717Zm-9.268,7.736-3.16,12.809a0.39,0.39,0,0,1-.383.3H-694.289a0.391,0.391,0,0,1-.384-0.3l-3.16-12.811a0.37,0.37,0,0,1,.072-0.343,0.361,0.361,0,0,1,.311-0.154h135.479a0.362,0.362,0,0,1,.312.154A0.37,0.37,0,0,1-561.587,143.453ZM-602.155-16.395h-55.111M-678.8,15.634h-45.06a24.982,24.982,0,0,0-23.385,16.6l-15.8,44.06a18.669,18.669,0,0,0-18.326-15.818h-6.319A18.711,18.711,0,0,0-806.258,79.3,18.711,18.711,0,0,0-787.7,98.111h6.319a18.22,18.22,0,0,0,8.139-1.91l-13.544,17.165a32.018,32.018,0,0,0-6.838,19.76V252.26a12.342,12.342,0,0,0,12.243,12.412h18.959a12.342,12.342,0,0,0,12.244-12.412V226.233h240.929V252.26A12.342,12.342,0,0,0-497,264.672h18.958A12.342,12.342,0,0,0-465.8,252.26V133.126a32.019,32.019,0,0,0-6.837-19.76L-486.182,96.2a18.224,18.224,0,0,0,8.139,1.91h6.32A18.711,18.711,0,0,0-453.16,79.3a18.711,18.711,0,0,0-18.563-18.816h-6.319A18.669,18.669,0,0,0-496.368,76.3l-15.805-44.06a24.976,24.976,0,0,0-23.385-16.6h-45.059M-781.376,86.1h-6.319a6.767,6.767,0,0,1-6.714-6.806,6.767,6.767,0,0,1,6.714-6.806h6.319a6.768,6.768,0,0,1,6.715,6.806A6.769,6.769,0,0,1-781.376,86.1ZM-592.7,15.634h-74.018m-95.3,236.626a0.4,0.4,0,0,1-.4.4h-18.959a0.4,0.4,0,0,1-.394-0.4V222.486a24.493,24.493,0,0,0,13.033,3.747h6.715V252.26h0ZM-559.8,214.221H-699.618V201.01a0.4,0.4,0,0,1,.4-0.4H-560.2a0.4,0.4,0,0,1,.4.4v13.211h0Zm82.152,38.039a0.4,0.4,0,0,1-.395.4H-497a0.4,0.4,0,0,1-.4-0.4V226.233h6.714a24.5,24.5,0,0,0,13.034-3.747V252.26h0Zm-4.239-131.392a19.882,19.882,0,0,1,4.24,12.258V201.01a13.138,13.138,0,0,1-13.034,13.211h-57.27V201.01A12.342,12.342,0,0,0-560.2,188.6H-699.223a12.342,12.342,0,0,0-12.244,12.411v13.211h-57.27A13.137,13.137,0,0,1-781.77,201.01V133.126a19.87,19.87,0,0,1,4.241-12.258l17.959-22.757h167.778a5.965,5.965,0,0,0,5.924-6.005,5.966,5.966,0,0,0-5.924-6.005H-753.959l17.85-49.758a13.078,13.078,0,0,1,12.248-8.695h188.3a13.083,13.083,0,0,1,12.249,8.695L-505.459,86.1H-528.6a5.967,5.967,0,0,0-5.926,6.005,5.966,5.966,0,0,0,5.926,6.005h28.749Zm-2.87-41.573a6.767,6.767,0,0,1,6.714-6.806h6.319a6.768,6.768,0,0,1,6.715,6.806,6.768,6.768,0,0,1-6.715,6.806h-6.319A6.768,6.768,0,0,1-484.757,79.3Zm-258.7,96.491A12.342,12.342,0,0,0-755.7,188.2a12.343,12.343,0,0,0,12.245,12.412A12.343,12.343,0,0,0-731.215,188.2,12.342,12.342,0,0,0-743.459,175.786Zm227.5,0A12.342,12.342,0,0,0-528.2,188.2a12.343,12.343,0,0,0,12.244,12.412A12.342,12.342,0,0,0-503.716,188.2,12.341,12.341,0,0,0-515.959,175.786Zm-230.659-51.248a21.9,21.9,0,0,0-21.724,22.019,21.9,21.9,0,0,0,21.724,22.021A21.9,21.9,0,0,0-724.9,146.557,21.9,21.9,0,0,0-746.618,124.538Zm0,32.028a9.951,9.951,0,0,1-9.875-10.009,9.953,9.953,0,0,1,9.875-10.009,9.952,9.952,0,0,1,9.873,10.009A9.951,9.951,0,0,1-746.618,156.566ZM-512.8,124.538a21.9,21.9,0,0,0-21.723,22.019A21.9,21.9,0,0,0-512.8,168.578a21.9,21.9,0,0,0,21.723-22.021A21.9,21.9,0,0,0-512.8,124.538Zm0,32.028a9.952,9.952,0,0,1-9.874-10.009,9.953,9.953,0,0,1,9.874-10.009,9.953,9.953,0,0,1,9.874,10.009A9.951,9.951,0,0,1-512.8,156.566Z"/>
</svg>
