<svg xmlns="http://www.w3.org/2000/svg" width="385" height="385" viewBox="0 0 385 385">
  <metadata><?xpacket begin="﻿" id="W5M0MpCehiHzreSzNTczkc9d"?>
<x:xmpmeta xmlns:x="adobe:ns:meta/" x:xmptk="Adobe XMP Core 5.6-c138 79.159824, 2016/09/14-01:09:01        ">
   <rdf:RDF xmlns:rdf="http://www.w3.org/1999/02/22-rdf-syntax-ns#">
      <rdf:Description rdf:about=""/>
   </rdf:RDF>
</x:xmpmeta>
                                                                                                    
                                                                                                    
                                                                                                    
                                                                                                    
                                                                                                    
                                                                                                    
                                                                                                    
                                                                                                    
                                                                                                    
                                                                                                    
                                                                                                    
                                                                                                    
                                                                                                    
                                                                                                    
                                                                                                    
                                                                                                    
                                                                                                    
                                                                                                    
                                                                                                    
                                                                                                    
                           
<?xpacket end="w"?></metadata>
<defs>
    <style>
      .cls-1 {
        fill-rule: evenodd;
      }
    </style>
  </defs>
  <path class="cls-1" d="M354.44,143.757A168.548,168.548,0,0,0,341.6,112.729a39.343,39.343,0,0,0-5.331-48.648L321,48.807a39.268,39.268,0,0,0-48.613-5.334,168.306,168.306,0,0,0-31-12.853A39.293,39.293,0,0,0,203.237,0H181.651A39.293,39.293,0,0,0,143.507,30.62,168.168,168.168,0,0,0,112.5,43.473a39.271,39.271,0,0,0-48.614,5.332L48.624,64.079a39.339,39.339,0,0,0-5.33,48.648A168.477,168.477,0,0,0,30.45,143.753,39.314,39.314,0,0,0-.156,181.925v21.6a39.314,39.314,0,0,0,30.6,38.173,168.519,168.519,0,0,0,12.844,31.024,39.337,39.337,0,0,0,5.331,48.646l15.264,15.278a39.269,39.269,0,0,0,48.613,5.332,168.285,168.285,0,0,0,31.006,12.853,39.3,39.3,0,0,0,38.143,30.624h21.588a39.3,39.3,0,0,0,38.145-30.624,168.333,168.333,0,0,0,31.005-12.853A39.273,39.273,0,0,0,321,336.647l15.265-15.278a39.334,39.334,0,0,0,5.331-48.646A168.515,168.515,0,0,0,354.438,241.7a39.313,39.313,0,0,0,30.6-38.173v-21.6A39.3,39.3,0,0,0,354.44,143.757ZM369.7,203.526A23.835,23.835,0,0,1,347.823,227.2a7.675,7.675,0,0,0-6.82,5.659,153.176,153.176,0,0,1-15.154,36.609,7.682,7.682,0,0,0,.821,8.828,23.851,23.851,0,0,1-1.256,32.216l-15.265,15.275a23.813,23.813,0,0,1-32.195,1.259,7.678,7.678,0,0,0-8.823-.822,152.738,152.738,0,0,1-36.583,15.166,7.683,7.683,0,0,0-5.656,6.823A23.831,23.831,0,0,1,203.237,370.1H181.651A23.831,23.831,0,0,1,158,348.212a7.683,7.683,0,0,0-5.656-6.825,152.731,152.731,0,0,1-36.582-15.166,7.674,7.674,0,0,0-8.822.824,23.82,23.82,0,0,1-32.2-1.259L59.474,310.511a23.854,23.854,0,0,1-1.256-32.217,7.679,7.679,0,0,0,.821-8.827,153.109,153.109,0,0,1-15.154-36.609,7.675,7.675,0,0,0-6.819-5.659,23.836,23.836,0,0,1-21.875-23.671v-21.6a23.831,23.831,0,0,1,21.875-23.668,7.68,7.68,0,0,0,6.819-5.661,153.242,153.242,0,0,1,15.154-36.607,7.68,7.68,0,0,0-.821-8.828,23.855,23.855,0,0,1,1.256-32.219L74.739,59.668a23.815,23.815,0,0,1,32.2-1.257,7.671,7.671,0,0,0,8.822.822A152.777,152.777,0,0,1,152.34,44.067,7.684,7.684,0,0,0,158,37.242,23.832,23.832,0,0,1,181.65,15.354h21.587A23.832,23.832,0,0,1,226.892,37.24a7.685,7.685,0,0,0,5.656,6.827A152.9,152.9,0,0,1,269.13,59.231a7.67,7.67,0,0,0,8.823-.822,23.812,23.812,0,0,1,32.2,1.257l15.263,15.276a23.854,23.854,0,0,1,1.257,32.219,7.681,7.681,0,0,0-.821,8.828A153.117,153.117,0,0,1,341,152.594a7.679,7.679,0,0,0,6.819,5.663A23.831,23.831,0,0,1,369.7,181.925v21.6h0ZM192.444,56.433c-75.1,0-136.2,61.143-136.2,136.293s61.1,136.3,136.2,136.3,136.2-61.141,136.2-136.3S267.545,56.433,192.444,56.433Zm0,257.23c-66.639,0-120.853-54.249-120.853-120.937S125.805,71.791,192.444,71.791,313.3,126.042,313.3,192.726,259.083,313.663,192.444,313.663Zm91.261-181.224a7.675,7.675,0,1,0-12.8,8.472,93.669,93.669,0,0,1,15.536,51.815,7.674,7.674,0,1,0,15.347,0A109,109,0,0,0,283.705,132.439Zm-16.771-19.815c-1.2-1.12-2.451-2.231-3.707-3.3a7.678,7.678,0,0,0-9.94,11.7c1.082,0.919,2.155,1.874,3.191,2.84A7.676,7.676,0,0,0,266.934,112.624Zm-69.947,72.022v-43.17c13.811,0.757,19.109,7.006,23.082,7.006,4.351,0,6.81-5.68,6.81-8.708,0-7.573-16.46-11.929-29.893-12.5v-5.3c0-2.083-2.459-3.975-4.919-3.975-2.839,0-4.92,1.892-4.92,3.975v5.678c-17.027,1.518-35,9.846-35,33.7,0,24.235,18.162,30.482,35,36.352v50.361c-21.569-.949-26.108-15.147-31.406-15.147-3.6,0-7,4.923-7,8.71,0,7.953,14.757,21.013,38.407,21.39h0v6.25c0,2.083,2.081,3.978,4.92,3.978,2.459,0,4.919-1.895,4.919-3.978v-6.815c19.677-2.652,33.3-14.957,33.3-38.054C230.286,198.465,213.069,190.514,196.987,184.646Zm-9.083-3.223c-11.162-4.162-20.622-8.517-20.621-21.582,0-12.116,9.27-17.037,20.621-18.175v39.757Zm8.325,66.268V201.305c10.406,4.356,18.92,10.224,18.92,24.614C215.149,238.412,208.149,245.8,196.229,247.691Z"/>
  <path class="cls-1" d="M-452.063,55.27A187.276,187.276,0,0,0-585.414,0,187.282,187.282,0,0,0-718.766,55.27,187.541,187.541,0,0,0-774,188.71a187.542,187.542,0,0,0,55.235,133.442,187.292,187.292,0,0,0,133.352,55.275,187.286,187.286,0,0,0,133.351-55.275A187.539,187.539,0,0,0-396.827,188.71,187.538,187.538,0,0,0-452.063,55.27ZM-585.414,362.39c-95.7,0-173.56-77.912-173.56-173.68s77.859-173.676,173.56-173.676,173.56,77.91,173.56,173.676S-489.713,362.39-585.414,362.39Zm96.958-270.81a26.313,26.313,0,0,0-37.189,0L-682.328,248.367a26.3,26.3,0,0,0-7.746,18.835,26.293,26.293,0,0,0,7.915,18.763,26.35,26.35,0,0,0,18.532,7.556,26.359,26.359,0,0,0,18.739-7.759l156.434-156.968A26.358,26.358,0,0,0-488.456,91.58Zm-10.633,26.589L-655.533,275.148a11.446,11.446,0,0,1-16.1.091,11.371,11.371,0,0,1-3.419-8.107A11.344,11.344,0,0,1-671.7,259L-515.02,102.211a11.285,11.285,0,0,1,15.939,0A11.3,11.3,0,0,1-499.089,118.169ZM-645.146,95.482a33.484,33.484,0,0,0-33.435,33.456A33.485,33.485,0,0,0-645.146,162.4a33.485,33.485,0,0,0,33.435-33.458A33.484,33.484,0,0,0-645.146,95.482Zm0,51.876a18.435,18.435,0,0,1-18.408-18.419,18.437,18.437,0,0,1,18.408-18.422,18.437,18.437,0,0,1,18.408,18.422A18.435,18.435,0,0,1-645.146,147.357Zm119.464,67.669a33.481,33.481,0,0,0-33.434,33.455,33.484,33.484,0,0,0,33.434,33.457,33.484,33.484,0,0,0,33.434-33.457A33.482,33.482,0,0,0-525.682,215.026Zm0,51.878a18.436,18.436,0,0,1-18.408-18.421,18.435,18.435,0,0,1,18.408-18.42,18.435,18.435,0,0,1,18.408,18.42A18.436,18.436,0,0,1-525.682,266.9Zm92.118-47.134A7.509,7.509,0,0,0-442.7,225.2,147.125,147.125,0,0,1-585.414,336.074a7.515,7.515,0,0,0-7.513,7.519,7.516,7.516,0,0,0,7.513,7.517,162.144,162.144,0,0,0,157.277-122.2A7.516,7.516,0,0,0-433.564,219.77Zm2.927-38.577a7.516,7.516,0,0,0-7.513,7.517c0,2.151-.047,4.316-0.139,6.443a7.516,7.516,0,0,0,7.182,7.836q0.165,0.006.33,0.006a7.514,7.514,0,0,0,7.5-7.194c0.1-2.339.153-4.725,0.153-7.091A7.516,7.516,0,0,0-430.637,181.193Z"/>
  <path id="Forma_1" data-name="Forma 1" class="cls-1" d="M729.955,1079.15a5.18,5.18,0,0,0-3.6,1.46,4.877,4.877,0,0,0,0,7.03,5.178,5.178,0,0,0,7.208,0,4.875,4.875,0,0,0,0-7.03A5.178,5.178,0,0,0,729.955,1079.15Zm132.416,1.46a4.875,4.875,0,0,0,0,7.03,5.188,5.188,0,0,0,7.216,0,4.893,4.893,0,0,0,0-7.03A5.188,5.188,0,0,0,862.371,1080.61Zm-12.716-1.46H746.279a4.977,4.977,0,1,0,0,9.95H849.655A4.977,4.977,0,1,0,849.655,1079.15Zm154.085-94.411a21.683,21.683,0,0,0-16.417-6.067l-7.161-15.707a15.368,15.368,0,0,0,5.174-11.468,15.643,15.643,0,0,0-10.882-14.764V875.168l4.373-5.508a4.915,4.915,0,0,0,.911-1.822,15.4,15.4,0,0,0,5.6-11.833,16.009,16.009,0,0,0-31.828-2L941.99,867.03a5.147,5.147,0,0,0-1.768.658L712.187,1004.88h-9.436a15.8,15.8,0,0,0-15.983,15.58v5.64H675.547a10.424,10.424,0,0,0-10.542,10.28v26.53a10.422,10.422,0,0,0,10.542,10.27h36.169a20.417,20.417,0,0,0-3.184,10.94c0,11.52,9.61,20.89,21.423,20.89H865.977c11.814,0,21.424-9.37,21.424-20.89s-9.611-20.89-21.424-20.89H849.314v-30.46L964.252,888.014v48.719A15.645,15.645,0,0,0,953.371,951.5a15.371,15.371,0,0,0,5.173,11.468l-7.283,15.977a21.769,21.769,0,0,0-18.82,5.8,20.545,20.545,0,0,0,0,29.541l7.67,7.48a0.048,0.048,0,0,0,.025.02l0.025,0.03,7.669,7.48a5.21,5.21,0,0,0,7.213,0,4.894,4.894,0,0,0,0-7.04l-4.087-3.98,17.134-16.71,17.133,16.71-4.087,3.98a4.892,4.892,0,0,0,0,7.04,5.209,5.209,0,0,0,7.212,0l7.661-7.47a0.141,0.141,0,0,0,.034-0.04c0.012-.01.024-0.02,0.034-0.03l7.663-7.47A20.533,20.533,0,0,0,1003.74,984.739ZM969.353,850.366a5.641,5.641,0,1,1-5.78,5.641A5.719,5.719,0,0,1,969.353,850.366ZM839.113,1045.7l-15.8-4.4a16.381,16.381,0,0,1-12.084-15.62v-10.85H822.45a16.477,16.477,0,0,1,16.663,16.24v14.63Zm-38.036-18.52a16.114,16.114,0,0,0-5.832-1.08h-5.781v-10.94a0.337,0.337,0,0,1,.341-0.33h11.222v10.85C801.027,1026.18,801.047,1026.68,801.077,1027.18Zm19.036-22.3H789.805a10.424,10.424,0,0,0-10.541,10.28v10.94H740.5v-5.64a15.624,15.624,0,0,0-10.472-14.62L920.68,891.134ZM696.97,1020.46a5.716,5.716,0,0,1,5.781-5.63h21.763a5.716,5.716,0,0,1,5.781,5.63v5.64H696.97v-5.64Zm-21.762,42.45v-10.95h11.221a4.977,4.977,0,1,0,0-9.95H675.208v-5.63a0.335,0.335,0,0,1,.339-0.33h119.7a5.719,5.719,0,0,1,5.782,5.64v0.32H708.192a4.977,4.977,0,1,0,0,9.95h92.835v11.27H675.547A0.327,0.327,0,0,1,675.208,1062.91Zm201.99,21.21a11.1,11.1,0,0,1-11.221,10.95H729.955a10.948,10.948,0,1,1,0-21.89H865.976A11.1,11.1,0,0,1,877.2,1084.12Zm-65.97-20.89v-17.04a26.819,26.819,0,0,0,9.282,4.67l18.6,5.19v7.18H811.228Zm35.474-43.42a26.8,26.8,0,0,0-14.654-13.2l124.7-141.039a16.037,16.037,0,0,0,7.5,5.2v1Zm122.651-73.952a5.64,5.64,0,1,1-5.78,5.639A5.718,5.718,0,0,1,969.353,945.858Zm-25.61,65.372-4.088-3.98a10.767,10.767,0,0,1,0-15.478,11.439,11.439,0,0,1,15.869,0l4.087,3.988Zm24.347-21.272-5.352-5.219a21.071,21.071,0,0,0-2.13-1.812l7.255-15.917c0.492,0.044.987,0.073,1.489,0.073s1-.029,1.49-0.073l6.666,14.625a21.217,21.217,0,0,0-4.067,3.1Zm28.435,17.292-4.088,3.98-15.87-15.47,4.088-3.988a11.439,11.439,0,0,1,15.87,0A10.754,10.754,0,0,1,996.525,1007.25Z"/>
  <path id="Forma_1-2" data-name="Forma 1" class="cls-1" d="M268.534,872.318L265.5,850.29a4.214,4.214,0,0,0-1.619-2.78,4.071,4.071,0,0,0-3.082-.779l-23.867,3.717a4.178,4.178,0,0,0-3.447,4.774,4.129,4.129,0,0,0,4.694,3.506l13.907-2.167c-18.6,23.381-38.6,43.3-59.55,59.254a242.71,242.71,0,0,1-56.422,32.531C103.423,961.45,81.1,960.59,80.88,960.58a4.189,4.189,0,0,0-.394,8.368c0.135,0.006.7,0.03,1.66,0.03,5.934,0,27.044-.926,56.473-12.636a250.362,250.362,0,0,0,58.537-33.58c21.7-16.484,42.389-37.066,61.576-61.236l1.646,11.953a4.142,4.142,0,0,0,4.073,3.608,3.9,3.9,0,0,0,.576-0.042A4.173,4.173,0,0,0,268.534,872.318Zm46.455,200.242h-33.28a50.072,50.072,0,0,0,7.7-6.41,51.093,51.093,0,0,0,0-71.4,49.543,49.543,0,0,0-10.986-8.417V969.425a4.119,4.119,0,1,0-8.236,0v13.188a48.762,48.762,0,0,0-34.52,1.031V932.206a0.975,0.975,0,0,1,.966-0.982h32.587a0.975,0.975,0,0,1,.967.982V942.6a4.119,4.119,0,1,0,8.236,0V932.206a9.292,9.292,0,0,0-9.2-9.359H236.631a9.292,9.292,0,0,0-9.2,9.359V988a49.673,49.673,0,0,0-8.233,6.747,50.875,50.875,0,0,0,7.7,77.811h-26V970.2a9.29,9.29,0,0,0-9.2-9.356H159.1a9.29,9.29,0,0,0-9.2,9.356V1072.56H123.356v-67.91a9.29,9.29,0,0,0-9.2-9.355H81.567a9.29,9.29,0,0,0-9.2,9.355v67.91H55.4V857.2a7.671,7.671,0,0,0-7.6-7.726H41.287a7.671,7.671,0,0,0-7.6,7.726v29.731a4.119,4.119,0,1,0,8.236,0V857.847h5.239V1073.21a7.676,7.676,0,0,0,7.6,7.73H314.351v6.3H41.925V913.392a4.119,4.119,0,1,0-8.236,0V1087.88a7.676,7.676,0,0,0,7.6,7.73h273.7a7.676,7.676,0,0,0,7.6-7.73v-7.59A7.676,7.676,0,0,0,314.989,1072.56Zm-199.869,0H80.6v-67.91a0.974,0.974,0,0,1,.966-0.98h32.587a0.975,0.975,0,0,1,.966.98v67.91h0Zm43.012,0V970.2a0.975,0.975,0,0,1,.967-0.981h32.586a0.974,0.974,0,0,1,.966.981V1072.56H158.132Zm114.361-4.28a41.213,41.213,0,0,1-13.319,3.98l-0.233.03c-0.315.04-.631,0.07-0.947,0.1-0.481.04-.964,0.08-1.448,0.11-0.154,0-.306.01-0.459,0.01-0.594.03-1.188,0.05-1.786,0.05s-1.195-.02-1.79-0.05c-0.187,0-.376-0.01-0.564-0.02-0.448-.03-0.9-0.06-1.341-0.1l-1.109-.12c-0.264-.03-0.527-0.06-0.79-0.1-0.375-.05-0.749-0.11-1.123-0.17l-0.145-.03a40.8,40.8,0,0,1-13.833-5.04c-0.022-.02-0.046-0.02-0.069-0.04a41.3,41.3,0,0,1-8.519-6.67,42.611,42.611,0,0,1,0-59.55,41.384,41.384,0,0,1,9.9-7.439l0.3-.158a40.96,40.96,0,0,1,34.5-1.7c0.086,0.035.172,0.067,0.258,0.1,0.512,0.213,1.021.44,1.526,0.674,0.2,0.093.4,0.19,0.6,0.287a41.231,41.231,0,0,1,11.471,8.234,42.66,42.66,0,0,1,0,59.55,41.242,41.242,0,0,1-10.94,7.99C272.594,1068.24,272.542,1068.25,272.493,1068.28Zm-16.278-41.89v-14.91c5.059,0.37,6.938,2.72,8.671,2.72,2.168,0,3.18-2.79,3.18-4.19,0-3.6-6.937-5.14-11.85-5.29v-1.99a2.1,2.1,0,0,0-2.167-1.69,1.917,1.917,0,0,0-2.1,1.69v2.14c-6.865.73-13.729,4.41-13.729,13.66,0,9.41,7.226,12.05,13.729,14.4v17.27c-7.37-.59-9.321-5.73-11.706-5.73-1.806,0-3.324,2.42-3.324,4.19,0,3.6,6.07,8.52,15.03,8.67h0v2.28a1.918,1.918,0,0,0,2.1,1.69,2.1,2.1,0,0,0,2.167-1.69v-2.5c7.8-1.1,13.15-6.1,13.15-15.14C269.365,1031.98,262.5,1028.75,256.215,1026.39Zm-3.829-1.39c-3.829-1.47-6.936-3.01-6.935-7.2,0-3.82,2.89-5.66,6.935-6.18V1025Zm3.4,25.05v-15.5c3.54,1.54,6.358,3.6,6.358,8.23C262.141,1046.97,259.684,1049.32,255.783,1050.05Z"/>
  <path id="Forma_1-3" data-name="Forma 1" class="cls-1" d="M975.219,313.272h-2.5a26.221,26.221,0,0,0-18.684-22.658V144.606a4.111,4.111,0,1,0-8.218,0V289.711c-0.016,0-.03,0-0.046,0-0.173.011-.344,0.028-0.516,0.043-0.321.027-.641,0.052-0.959,0.088-0.2.025-.391,0.057-0.586,0.085-0.29.04-.581,0.082-0.869,0.133-0.2.035-.406,0.08-0.608,0.12-0.276.057-.553,0.114-0.825,0.181-0.206.048-.409,0.1-0.612,0.158-0.266.07-.532,0.141-0.795,0.222-0.205.063-.406,0.13-0.609,0.2-0.258.086-.515,0.171-0.77,0.265-0.2.074-.4,0.154-0.6,0.234-0.25.1-.5,0.2-0.745,0.306-0.2.085-.395,0.177-0.591,0.27s-0.407.19-.608,0.291v-28.1a5.016,5.016,0,0,0-4.936-5.081H911.278a5.016,5.016,0,0,0-4.936,5.081V292.6a5.016,5.016,0,0,0,4.936,5.083h17.606c-0.124.131-.251,0.259-0.372,0.4-0.224.245-.438,0.506-0.652,0.762-0.105.124-.214,0.246-0.316,0.375q-0.471.585-.91,1.2c-0.463.1-.918,0.211-1.369,0.34-0.146.042-.288,0.09-0.432,0.136-0.3.095-.607,0.192-0.9,0.3-0.166.063-.329,0.128-0.492,0.19-0.273.109-.543,0.219-0.81,0.337-0.167.074-.331,0.148-0.494,0.228-0.263.124-.522,0.255-0.779,0.394-0.155.08-.31,0.16-0.462,0.247-0.271.15-.537,0.314-0.8,0.477-0.13.08-.261,0.156-0.388,0.242q-0.519.336-1.016,0.713c-0.037.025-.078,0.051-0.115,0.08q-0.553.423-1.079,0.877c-0.1.085-.192,0.178-0.289,0.268-0.247.22-.491,0.447-0.727,0.683-0.119.118-.232,0.239-0.348,0.357-0.208.219-.412,0.438-0.61,0.662-0.117.135-.231,0.268-0.344,0.4-0.19.226-.374,0.458-0.553,0.692-0.108.139-.214,0.278-0.318,0.421-0.183.251-.357,0.507-0.529,0.768-0.088.131-.179,0.262-0.265,0.4-0.2.323-.395,0.654-0.583,0.99-0.043.076-.09,0.152-0.132,0.231-0.226.416-.438,0.844-0.637,1.277-0.051.113-.095,0.229-0.145,0.341-0.115.266-.235,0.532-0.341,0.8H858.64V251.047l1.554,1.065q0.459,0.31.944,0.574c0.065,0.036.134,0.061,0.2,0.093a10.132,10.132,0,0,0,9.236.035c0.046-.021.088-0.054,0.133-0.075,0.277-.146.552-0.3,0.813-0.467a0.055,0.055,0,0,0,.008-0.006,10.58,10.58,0,0,0,.878-0.634c0.043-.034.081-0.074,0.124-0.11a10.724,10.724,0,0,0,2.661-3.292,11,11,0,0,0,.41-9.284h16.823a5.016,5.016,0,0,0,4.935-5.082V205.472a5.016,5.016,0,0,0-4.935-5.086H872.559a5.016,5.016,0,0,0-4.935,5.086v25.887l-8.983-6.154V205.472a5.017,5.017,0,0,0-4.936-5.086H833.843a5,5,0,0,0-4.9,4.475l-9.78-6.7V66.3h126.65v52.015a4.111,4.111,0,1,0,8.218,0V64.952a7.023,7.023,0,0,0-6.908-7.115h-6.3V46.08a6.011,6.011,0,0,0-5.914-6.09H830.072a6.011,6.011,0,0,0-5.914,6.09V57.837h-6.3a7.021,7.021,0,0,0-6.907,7.113V192.532l-5.041-3.452a5.636,5.636,0,0,0-6.42,0l-16.795,11.506v-5.709a6.706,6.706,0,0,0-6.6-6.8H756.48a6.707,6.707,0,0,0-6.6,6.8v6.74a6.831,6.831,0,0,0,3.5,5.994v13.058L733.629,234.2a10.907,10.907,0,0,0-3.424,14.037,10.533,10.533,0,0,0,6.664,5.356,10.2,10.2,0,0,0,8.332-1.476h0l1.555-1.065v20.882a4.11,4.11,0,1,0,8.217,0V245.417L802.7,212.723l47.724,32.694v67.857h-52.68V267.806a5.979,5.979,0,0,0-5.881-6.056H765.022a5.978,5.978,0,0,0-5.881,6.056v45.468h-4.168V298.222a4.11,4.11,0,1,0-8.217,0v15.052H725.47a11.9,11.9,0,0,0,0,23.788H975.22A11.9,11.9,0,0,0,975.219,313.272Zm-47.362-24.05h-13.3V267.589h13.3v21.633Zm-52.015-80.371h13.3v21.633h-13.3V208.851Zm-43.465-160.4H932.605v9.384H832.377V48.453Zm88.793,264.7c0.04-.053.081-0.1,0.121-0.152,0.168-.207.341-0.411,0.521-0.6,0.016-.019.031-0.038,0.048-0.055,0.193-.2.394-0.4,0.6-0.593,0.049-.048.1-0.093,0.147-0.137,0.21-.188.422-0.373,0.643-0.544,0.018-.017.037-0.03,0.055-0.046,0.209-.161.424-0.315,0.642-0.464,0.053-.036.105-0.072,0.158-0.11,0.233-.15.47-0.3,0.714-0.434,0.041-.022.083-0.047,0.125-0.066,0.219-.124.443-0.236,0.671-0.344,0.05-.023.1-0.048,0.149-0.071,0.254-.114.514-0.22,0.777-0.321,0.056-.021.112-0.038,0.168-0.059,0.243-.088.49-0.167,0.74-0.24,0.036-.009.071-0.021,0.107-0.03,0.274-.076.554-0.141,0.835-0.194,0.066-.015.131-0.029,0.2-0.04,0.288-.051.579-0.1,0.873-0.131a4.087,4.087,0,0,0,3.053-1.961,17.194,17.194,0,0,1,14.746-8.429c0.338,0,.678.013,1.026,0.036l0.076,0.006c0.345,0.025.7,0.057,1.06,0.1l0.046,0a17.672,17.672,0,0,1,14.969,14.992H921.083C921.113,313.234,921.139,313.194,921.17,313.158ZM837.124,208.851h13.3v10.723l-13.3-9.108v-1.615ZM758.1,196.542h16.376v3.407H758.1v-3.407Zm12.882,11.87h0v0.194l-9.387,6.432v-6.626h9.387Zm34.926-3.657a5.654,5.654,0,0,0-2.182-.892c-0.064-.016-0.127-0.035-0.191-0.046a0.4,0.4,0,0,0-.049,0,5.617,5.617,0,0,0-3.343.561,6.365,6.365,0,0,0-.653.379l-58.839,40.309a2.154,2.154,0,0,1-1.778.315,2.223,2.223,0,0,1-1.421-1.143,2.324,2.324,0,0,1,.731-2.993l64.516-44.2,64.516,44.2a2.323,2.323,0,0,1,.73,2.993,2.221,2.221,0,0,1-1.421,1.143,2.155,2.155,0,0,1-1.778-.315l-7.939-5.439Zm-38.547,65.458h22.163v43.059H767.359V270.213ZM975.219,328.6H725.469a3.432,3.432,0,0,1,0-6.861h249.75A3.432,3.432,0,0,1,975.219,328.6ZM839.672,267.827H807.466a5.382,5.382,0,0,0-5.294,5.454v20.173a4.173,4.173,0,0,0,4.109,4.231h34.575a4.172,4.172,0,0,0,4.109-4.231V273.281A5.381,5.381,0,0,0,839.672,267.827Zm-2.925,21.395H810.389v-12.93h26.358v12.93ZM853.705,82.909H833.843a5.017,5.017,0,0,0-4.936,5.085v28.392a5.016,5.016,0,0,0,4.936,5.082h19.862a5.016,5.016,0,0,0,4.936-5.082V87.994h0A5.017,5.017,0,0,0,853.705,82.909Zm-3.282,30.1h-13.3V91.374h13.3v21.633Zm42-30.1H872.56a5.017,5.017,0,0,0-4.936,5.085v28.392a5.016,5.016,0,0,0,4.936,5.082h19.863a5.016,5.016,0,0,0,4.935-5.082V87.994h0A5.016,5.016,0,0,0,892.423,82.909Zm-3.283,30.1h-13.3V91.374h13.3v21.633Zm42-30.1H911.277a5.017,5.017,0,0,0-4.936,5.085v28.392a5.016,5.016,0,0,0,4.936,5.082h19.862a5.016,5.016,0,0,0,4.936-5.082V87.994A5.017,5.017,0,0,0,931.14,82.909Zm-3.283,30.1h-13.3V91.374h13.3v21.633Zm-74.152,28.641H833.843a5.017,5.017,0,0,0-4.936,5.084v28.394a5.017,5.017,0,0,0,4.936,5.082h19.862a5.017,5.017,0,0,0,4.936-5.082V146.732A5.017,5.017,0,0,0,853.705,141.648Zm-3.282,30.1h-13.3V150.111h13.3v21.634Zm42-30.1H872.56a5.017,5.017,0,0,0-4.936,5.084v28.394a5.017,5.017,0,0,0,4.936,5.082h19.863a5.017,5.017,0,0,0,4.935-5.082V146.732A5.017,5.017,0,0,0,892.423,141.648Zm-3.283,30.1h-13.3V150.111h13.3v21.634Zm42-30.1H911.277a5.017,5.017,0,0,0-4.936,5.084v28.394a5.017,5.017,0,0,0,4.936,5.082h19.862a5.017,5.017,0,0,0,4.936-5.082V146.732A5.017,5.017,0,0,0,931.14,141.648Zm-3.283,30.1h-13.3V150.111h13.3v21.634Zm3.283,28.641H911.277a5.017,5.017,0,0,0-4.936,5.086v28.392a5.017,5.017,0,0,0,4.936,5.082h19.862a5.017,5.017,0,0,0,4.936-5.082V205.472A5.018,5.018,0,0,0,931.14,200.386Zm-3.283,30.1h-13.3V208.851h13.3v21.633Zm-34.608,28.642H871.733a4.173,4.173,0,0,0-4.109,4.231v30.1a4.173,4.173,0,0,0,4.109,4.231h21.516a4.172,4.172,0,0,0,4.109-4.231v-30.1A4.173,4.173,0,0,0,893.249,259.126Zm-4.109,30.1h-13.3V267.589h13.3v21.633Z"/>
  <path id="Forma_1_copy_3" data-name="Forma 1 copy 3" class="cls-1" d="M266.173,1484.67a156.661,156.661,0,1,0,45.834,110.72A155.4,155.4,0,0,0,266.173,1484.67ZM155.519,1742.81C74.288,1742.81,8.2,1676.68,8.2,1595.39s66.087-147.42,147.318-147.42,147.319,66.14,147.319,147.42S236.751,1742.81,155.519,1742.81Zm9.169-248.96h-9.169a4.583,4.583,0,0,0-4.584,4.59v18.35a4.589,4.589,0,0,0,4.584,4.59h9.169a37.31,37.31,0,0,1,0,74.62H150.323a4.59,4.59,0,0,0,0,9.18h14.365a46.49,46.49,0,0,0,0-92.98H160.1v-9.17h4.584a83.19,83.19,0,0,1,0,166.38H113.646a4.581,4.581,0,0,0-4.584,4.58v7.28l-43.947-43.98,43.947-43.97v7.27a4.584,4.584,0,0,0,4.584,4.59h18.339a4.59,4.59,0,0,0,0-9.18H118.231v-13.76a4.581,4.581,0,0,0-7.826-3.24L55.39,1634.05a4.593,4.593,0,0,0,0,6.49l55.015,55.05a4.571,4.571,0,0,0,3.243,1.34,4.49,4.49,0,0,0,1.754-.35,4.582,4.582,0,0,0,2.829-4.23v-13.77h46.457A92.365,92.365,0,0,0,164.688,1493.85Z"/>
  <path class="cls-1" d="M-519.877,933.1h-12.636a5.967,5.967,0,0,0-5.924,6.007,5.964,5.964,0,0,0,5.924,6h12.636a5.966,5.966,0,0,0,5.926-6A5.968,5.968,0,0,0-519.877,933.1Zm1.558,49.616a12.118,12.118,0,0,0-9.652-4.775H-663.449a12.116,12.116,0,0,0-9.651,4.775,12.455,12.455,0,0,0-2.227,10.646l3.16,12.817a12.263,12.263,0,0,0,11.878,9.4H-531.13a12.265,12.265,0,0,0,11.879-9.4l3.16-12.817A12.462,12.462,0,0,0-518.319,982.717Zm-9.268,7.736-3.16,12.807a0.389,0.389,0,0,1-.383.31H-660.289a0.4,0.4,0,0,1-.384-0.31l-3.16-12.807a0.37,0.37,0,0,1,.072-0.343,0.361,0.361,0,0,1,.311-0.154h135.479a0.362,0.362,0,0,1,.312.154A0.37,0.37,0,0,1-527.587,990.453Zm-40.568-159.848h-55.111M-644.8,862.634h-45.06a24.981,24.981,0,0,0-23.385,16.6l-15.8,44.059a18.669,18.669,0,0,0-18.326-15.818h-6.319A18.711,18.711,0,0,0-772.258,926.3,18.711,18.711,0,0,0-753.7,945.111h6.319a18.222,18.222,0,0,0,8.139-1.91l-13.544,17.165a32.018,32.018,0,0,0-6.838,19.76V1099.26a12.343,12.343,0,0,0,12.243,12.41h18.959a12.343,12.343,0,0,0,12.244-12.41v-26.03h240.929v26.03A12.343,12.343,0,0,0-463,1111.67h18.958a12.343,12.343,0,0,0,12.244-12.41V980.126a32.019,32.019,0,0,0-6.837-19.76L-452.182,943.2a18.225,18.225,0,0,0,8.139,1.91h6.32A18.711,18.711,0,0,0-419.16,926.3a18.711,18.711,0,0,0-18.563-18.816h-6.319A18.669,18.669,0,0,0-462.368,923.3l-15.805-44.059a24.975,24.975,0,0,0-23.385-16.6h-45.059M-747.376,933.1h-6.319a6.767,6.767,0,0,1-6.714-6.806,6.767,6.767,0,0,1,6.714-6.806h6.319a6.768,6.768,0,0,1,6.715,6.806A6.769,6.769,0,0,1-747.376,933.1ZM-558.7,862.634h-74.018m-95.3,236.626a0.4,0.4,0,0,1-.4.4h-18.959a0.4,0.4,0,0,1-.394-0.4v-29.77a24.514,24.514,0,0,0,13.033,3.74h6.715v26.03h0Zm202.222-38.04H-665.618v-13.21a0.4,0.4,0,0,1,.4-0.4H-526.2a0.4,0.4,0,0,1,.4.4v13.21h0Zm82.152,38.04a0.4,0.4,0,0,1-.395.4H-463a0.4,0.4,0,0,1-.4-0.4v-26.03h6.714a24.518,24.518,0,0,0,13.034-3.74v29.77h0Zm-4.239-131.392a19.882,19.882,0,0,1,4.24,12.258v67.884a13.134,13.134,0,0,1-13.034,13.21h-57.27v-13.21A12.344,12.344,0,0,0-526.2,1035.6H-665.223a12.344,12.344,0,0,0-12.244,12.41v13.21h-57.27a13.133,13.133,0,0,1-13.033-13.21V980.126a19.87,19.87,0,0,1,4.241-12.258l17.959-22.757h167.778a5.965,5.965,0,0,0,5.924-6,5.966,5.966,0,0,0-5.924-6H-719.959l17.85-49.759a13.078,13.078,0,0,1,12.248-8.694h188.3a13.083,13.083,0,0,1,12.249,8.694l17.849,49.759H-494.6a5.967,5.967,0,0,0-5.926,6,5.967,5.967,0,0,0,5.926,6h28.749Zm-2.87-41.573a6.767,6.767,0,0,1,6.714-6.806h6.319a6.768,6.768,0,0,1,6.715,6.806,6.768,6.768,0,0,1-6.715,6.806h-6.319A6.768,6.768,0,0,1-450.757,926.3Zm-258.7,96.5A12.338,12.338,0,0,0-721.7,1035.2a12.344,12.344,0,0,0,12.245,12.41,12.344,12.344,0,0,0,12.244-12.41A12.337,12.337,0,0,0-709.459,1022.79Zm227.5,0A12.337,12.337,0,0,0-494.2,1035.2a12.344,12.344,0,0,0,12.244,12.41,12.342,12.342,0,0,0,12.243-12.41A12.337,12.337,0,0,0-481.959,1022.79Zm-230.659-51.252a21.9,21.9,0,0,0-21.724,22.019,21.9,21.9,0,0,0,21.724,22.023A21.9,21.9,0,0,0-690.9,993.557,21.9,21.9,0,0,0-712.618,971.538Zm0,32.032a9.955,9.955,0,0,1-9.875-10.013,9.953,9.953,0,0,1,9.875-10.009,9.952,9.952,0,0,1,9.873,10.009A9.954,9.954,0,0,1-712.618,1003.57ZM-478.8,971.538a21.9,21.9,0,0,0-21.723,22.019A21.9,21.9,0,0,0-478.8,1015.58a21.9,21.9,0,0,0,21.723-22.023A21.9,21.9,0,0,0-478.8,971.538Zm0,32.032a9.955,9.955,0,0,1-9.874-10.013,9.953,9.953,0,0,1,9.874-10.009,9.953,9.953,0,0,1,9.874,10.009A9.954,9.954,0,0,1-478.8,1003.57Z"/>
</svg>
