<svg xmlns="http://www.w3.org/2000/svg" width="273" height="297" viewBox="0 0 273 297">
  <metadata><?xpacket begin="﻿" id="W5M0MpCehiHzreSzNTczkc9d"?>
<x:xmpmeta xmlns:x="adobe:ns:meta/" x:xmptk="Adobe XMP Core 5.6-c138 79.159824, 2016/09/14-01:09:01        ">
   <rdf:RDF xmlns:rdf="http://www.w3.org/1999/02/22-rdf-syntax-ns#">
      <rdf:Description rdf:about=""/>
   </rdf:RDF>
</x:xmpmeta>
                                                                                                    
                                                                                                    
                                                                                                    
                                                                                                    
                                                                                                    
                                                                                                    
                                                                                                    
                                                                                                    
                                                                                                    
                                                                                                    
                                                                                                    
                                                                                                    
                                                                                                    
                                                                                                    
                                                                                                    
                                                                                                    
                                                                                                    
                                                                                                    
                                                                                                    
                                                                                                    
                           
<?xpacket end="w"?></metadata>
<defs>
    <style>
      .cls-1 {
        fill-rule: evenodd;
      }
    </style>
  </defs>
  <path class="cls-1" d="M-359.56,103.757A168.535,168.535,0,0,0-372.4,72.729a39.343,39.343,0,0,0-5.331-48.648L-393,8.807a39.268,39.268,0,0,0-48.613-5.334,168.3,168.3,0,0,0-31-12.853A39.293,39.293,0,0,0-510.763-40h-21.586A39.293,39.293,0,0,0-570.493-9.38a168.168,168.168,0,0,0-31,12.853,39.271,39.271,0,0,0-48.614,5.332l-15.264,15.274a39.339,39.339,0,0,0-5.331,48.648,168.459,168.459,0,0,0-12.843,31.026,39.315,39.315,0,0,0-30.606,38.172v21.6a39.315,39.315,0,0,0,30.6,38.173,168.523,168.523,0,0,0,12.843,31.024,39.337,39.337,0,0,0,5.332,48.646l15.263,15.278a39.269,39.269,0,0,0,48.613,5.332,168.285,168.285,0,0,0,31.006,12.853,39.3,39.3,0,0,0,38.143,30.624h21.588a39.3,39.3,0,0,0,38.145-30.624,168.333,168.333,0,0,0,31.005-12.853A39.273,39.273,0,0,0-393,296.647l15.265-15.278a39.334,39.334,0,0,0,5.331-48.646A168.515,168.515,0,0,0-359.562,201.7a39.313,39.313,0,0,0,30.6-38.173v-21.6A39.3,39.3,0,0,0-359.56,103.757Zm15.257,59.769A23.835,23.835,0,0,1-366.177,187.2a7.675,7.675,0,0,0-6.82,5.659,153.176,153.176,0,0,1-15.154,36.609,7.682,7.682,0,0,0,.821,8.828,23.851,23.851,0,0,1-1.256,32.216l-15.265,15.275a23.813,23.813,0,0,1-32.195,1.259,7.678,7.678,0,0,0-8.823-.822,152.738,152.738,0,0,1-36.583,15.166,7.683,7.683,0,0,0-5.656,6.823A23.831,23.831,0,0,1-510.763,330.1h-21.586A23.831,23.831,0,0,1-556,308.212a7.683,7.683,0,0,0-5.656-6.825,152.731,152.731,0,0,1-36.582-15.166,7.661,7.661,0,0,0-3.829-1.023,7.662,7.662,0,0,0-4.993,1.847,23.82,23.82,0,0,1-32.2-1.259l-15.265-15.275a23.854,23.854,0,0,1-1.256-32.217,7.679,7.679,0,0,0,.821-8.827,153.068,153.068,0,0,1-15.154-36.609,7.675,7.675,0,0,0-6.819-5.659,23.836,23.836,0,0,1-21.875-23.671v-21.6a23.831,23.831,0,0,1,21.875-23.668,7.681,7.681,0,0,0,6.819-5.661,153.216,153.216,0,0,1,15.154-36.607,7.679,7.679,0,0,0-.821-8.828,23.855,23.855,0,0,1,1.256-32.219l15.265-15.274a23.815,23.815,0,0,1,32.2-1.257,7.671,7.671,0,0,0,8.822.822A152.777,152.777,0,0,1-561.66,4.067,7.684,7.684,0,0,0-556-2.758,23.832,23.832,0,0,1-532.35-24.646h21.587A23.832,23.832,0,0,1-487.108-2.76a7.685,7.685,0,0,0,5.656,6.827A152.9,152.9,0,0,1-444.87,19.231a7.67,7.67,0,0,0,8.823-.822,23.812,23.812,0,0,1,32.2,1.257l15.263,15.276a23.855,23.855,0,0,1,1.257,32.219,7.681,7.681,0,0,0-.821,8.828A153.116,153.116,0,0,1-373,112.594a7.679,7.679,0,0,0,6.819,5.663A23.831,23.831,0,0,1-344.3,141.925v21.6h0ZM-521.556,16.433c-75.1,0-136.2,61.143-136.2,136.293s61.1,136.3,136.2,136.3,136.2-61.141,136.2-136.3S-446.455,16.433-521.556,16.433Zm0,257.23c-66.639,0-120.854-54.249-120.854-120.937S-588.2,31.791-521.556,31.791-400.7,86.042-400.7,152.726-454.917,273.663-521.556,273.663Zm91.261-181.224a7.67,7.67,0,0,0-10.633-2.17,7.686,7.686,0,0,0-2.167,10.642,93.669,93.669,0,0,1,15.536,51.815,7.675,7.675,0,0,0,7.673,7.679,7.676,7.676,0,0,0,7.674-7.679A109,109,0,0,0-430.295,92.439Zm-16.771-19.815c-1.2-1.121-2.451-2.231-3.707-3.3a7.673,7.673,0,0,0-10.816.879,7.684,7.684,0,0,0,.876,10.825c1.082,0.919,2.155,1.874,3.191,2.84a7.643,7.643,0,0,0,5.227,2.06,7.645,7.645,0,0,0,5.617-2.45A7.682,7.682,0,0,0-447.066,72.624Zm-69.947,72.022v-43.17c13.811,0.757,19.109,7.006,23.082,7.006,4.351,0,6.81-5.68,6.81-8.708,0-7.573-16.46-11.928-29.893-12.5v-5.3c0-2.083-2.459-3.975-4.919-3.975-2.839,0-4.92,1.892-4.92,3.975v5.678c-17.027,1.518-35,9.846-35,33.7,0,24.235,18.162,30.482,35,36.352v50.361c-21.569-.949-26.108-15.147-31.406-15.147-3.6,0-7,4.923-7,8.71,0,7.953,14.757,21.013,38.407,21.39h0v6.25c0,2.083,2.081,3.978,4.92,3.978,2.459,0,4.919-1.9,4.919-3.978v-6.815c19.677-2.652,33.3-14.957,33.3-38.054C-483.714,158.465-500.931,150.514-517.013,144.646Zm-9.083-3.223c-11.162-4.162-20.622-8.517-20.621-21.582,0-12.116,9.27-17.037,20.621-18.175v39.757Zm8.325,66.268V161.305c10.406,4.356,18.92,10.224,18.92,24.614C-498.851,198.412-505.851,205.8-517.771,207.691Z"/>
  <path class="cls-1" d="M-1166.06,15.27A187.282,187.282,0,0,0-1299.41-40,187.288,187.288,0,0,0-1432.77,15.27,187.532,187.532,0,0,0-1488,148.71a187.533,187.533,0,0,0,55.23,133.442,187.3,187.3,0,0,0,133.36,55.275,187.292,187.292,0,0,0,133.35-55.275,187.533,187.533,0,0,0,55.23-133.442A187.532,187.532,0,0,0-1166.06,15.27Zm-133.35,307.12c-95.71,0-173.56-77.912-173.56-173.68s77.85-173.676,173.56-173.676,173.56,77.91,173.56,173.676S-1203.71,322.39-1299.41,322.39Zm96.95-270.81a26.3,26.3,0,0,0-37.18,0l-156.69,156.787a26.288,26.288,0,0,0-7.74,18.835,26.288,26.288,0,0,0,7.91,18.763,26.345,26.345,0,0,0,18.53,7.556,26.348,26.348,0,0,0,18.74-7.759l156.44-156.968A26.353,26.353,0,0,0-1202.46,51.58Zm-10.63,26.588-156.44,156.98a11.449,11.449,0,0,1-16.1.091,11.393,11.393,0,0,1-3.42-8.107,11.368,11.368,0,0,1,3.35-8.13l156.68-156.791a11.285,11.285,0,0,1,15.94,0A11.306,11.306,0,0,1-1213.09,78.169Zm-146.06-22.687a33.484,33.484,0,0,0-33.43,33.457,33.484,33.484,0,0,0,33.43,33.457,33.487,33.487,0,0,0,33.44-33.457A33.486,33.486,0,0,0-1359.15,55.482Zm0,51.876a18.428,18.428,0,0,1-18.4-18.418,18.43,18.43,0,0,1,18.4-18.422,18.438,18.438,0,0,1,18.41,18.422A18.436,18.436,0,0,1-1359.15,107.357Zm119.47,67.669a33.483,33.483,0,0,0-33.44,33.455,33.486,33.486,0,0,0,33.44,33.457,33.484,33.484,0,0,0,33.43-33.457A33.481,33.481,0,0,0-1239.68,175.026Zm0,51.878a18.438,18.438,0,0,1-18.41-18.421,18.437,18.437,0,0,1,18.41-18.42,18.437,18.437,0,0,1,18.41,18.42A18.438,18.438,0,0,1-1239.68,226.9Zm92.12-47.134a7.51,7.51,0,0,0-9.14,5.429,147.118,147.118,0,0,1-142.71,110.875,7.521,7.521,0,0,0-7.52,7.519,7.521,7.521,0,0,0,7.52,7.517,162.135,162.135,0,0,0,157.27-122.2A7.509,7.509,0,0,0-1147.56,179.77Zm2.92-38.577a7.512,7.512,0,0,0-7.51,7.517c0,2.151-.05,4.316-0.14,6.443a7.519,7.519,0,0,0,7.18,7.836q0.165,0.006.33,0.006a7.512,7.512,0,0,0,7.5-7.194c0.11-2.339.16-4.725,0.16-7.091A7.521,7.521,0,0,0-1144.64,141.193Z"/>
  <path id="Forma_1" data-name="Forma 1" class="cls-1" d="M15.955,1039.15a5.182,5.182,0,0,0-3.6,1.46,4.877,4.877,0,0,0,0,7.03,5.179,5.179,0,0,0,7.208,0,4.875,4.875,0,0,0,0-7.03A5.178,5.178,0,0,0,15.955,1039.15Zm132.416,1.46a4.875,4.875,0,0,0,0,7.03,5.188,5.188,0,0,0,7.216,0,4.893,4.893,0,0,0,0-7.03A5.188,5.188,0,0,0,148.371,1040.61Zm-12.716-1.46H32.279a4.977,4.977,0,1,0,0,9.95H135.655A4.977,4.977,0,1,0,135.655,1039.15Zm154.083-94.411a21.676,21.676,0,0,0-16.415-6.067l-7.161-15.707a15.368,15.368,0,0,0,5.174-11.468,15.643,15.643,0,0,0-10.882-14.764V835.168l4.373-5.508a4.915,4.915,0,0,0,.911-1.822,15.4,15.4,0,0,0,5.6-11.833,16.009,16.009,0,0,0-31.828-2L227.99,827.03a5.147,5.147,0,0,0-1.768.658L-1.813,964.879h-9.436a15.806,15.806,0,0,0-15.983,15.584V986.1H-38.453a10.424,10.424,0,0,0-10.541,10.279v26.531a10.422,10.422,0,0,0,10.541,10.27h36.17a20.41,20.41,0,0,0-3.184,10.94c0,11.52,9.61,20.89,21.423,20.89H151.977c11.814,0,21.424-9.37,21.424-20.89s-9.611-20.89-21.424-20.89H135.314V992.773L250.252,848.014v48.719A15.645,15.645,0,0,0,239.371,911.5a15.371,15.371,0,0,0,5.173,11.468l-7.283,15.977a21.769,21.769,0,0,0-18.82,5.8,20.545,20.545,0,0,0,0,29.541l7.67,7.478c0.009,0.008.017,0.017,0.025,0.025a0.3,0.3,0,0,1,.025.025l7.669,7.478a5.195,5.195,0,0,0,7.213,0,4.885,4.885,0,0,0,0-7.033l-4.087-3.987,17.134-16.7,17.133,16.7-4.087,3.987a4.884,4.884,0,0,0,0,7.033,5.193,5.193,0,0,0,7.212,0l7.661-7.471a0.25,0.25,0,0,0,.034-0.032,0.219,0.219,0,0,0,.034-0.034l7.66-7.469A20.52,20.52,0,0,0,289.738,944.739ZM255.353,810.366a5.641,5.641,0,1,1-5.78,5.641A5.719,5.719,0,0,1,255.353,810.366ZM125.113,1005.7l-15.8-4.4a16.381,16.381,0,0,1-12.084-15.622v-10.85H108.45a16.477,16.477,0,0,1,16.663,16.245V1005.7ZM87.077,987.178a16.24,16.24,0,0,0-5.832-1.078H75.464V975.157a0.335,0.335,0,0,1,.341-0.329H87.027v10.85C87.027,986.18,87.047,986.68,87.077,987.178Zm19.036-22.3H75.8a10.424,10.424,0,0,0-10.54,10.28V986.1H26.5v-5.637a15.633,15.633,0,0,0-10.471-14.627l190.655-114.7ZM-17.03,980.463a5.717,5.717,0,0,1,5.781-5.635H-0.373l0.011,0,0.01,0H10.514a5.717,5.717,0,0,1,5.781,5.635V986.1H-17.03v-5.637Zm-21.762,42.447v-10.95h11.221a5.033,5.033,0,0,0,5.1-4.97,5.041,5.041,0,0,0-5.1-4.98H-38.792v-5.631a0.336,0.336,0,0,1,.339-0.332h119.7a5.718,5.718,0,0,1,5.781,5.643v0.32H-5.808a5.041,5.041,0,0,0-5.1,4.98,5.033,5.033,0,0,0,5.1,4.97H87.027v11.27H-38.453A0.327,0.327,0,0,1-38.792,1022.91Zm201.99,21.21a11.1,11.1,0,0,1-11.221,10.95H15.955a10.948,10.948,0,1,1,0-21.89H151.976A11.1,11.1,0,0,1,163.2,1044.12Zm-65.97-20.89v-17.04a26.82,26.82,0,0,0,9.282,4.67l18.6,5.19v7.18H97.228ZM132.7,979.814a26.758,26.758,0,0,0-14.654-13.2l124.7-141.043a16.037,16.037,0,0,0,7.5,5.2v1Zm122.651-73.956a5.64,5.64,0,1,1-5.78,5.639A5.718,5.718,0,0,1,255.353,905.858Zm-25.61,65.375-4.088-3.986a10.764,10.764,0,0,1,0-15.475,11.439,11.439,0,0,1,15.869,0l4.087,3.988Zm24.347-21.275-5.352-5.219a21.071,21.071,0,0,0-2.13-1.812l7.255-15.917c0.492,0.044.987,0.073,1.489,0.073s1-.029,1.49-0.073l6.666,14.625a21.217,21.217,0,0,0-4.067,3.1Zm28.435,17.289-4.088,3.986-15.87-15.473,4.088-3.988a11.439,11.439,0,0,1,15.87,0A10.75,10.75,0,0,1,282.525,967.247Z"/>
  <path id="Forma_1-2" data-name="Forma 1" class="cls-1" d="M-445.466,832.318L-448.5,810.29a4.214,4.214,0,0,0-1.619-2.78,4.071,4.071,0,0,0-3.082-.779l-23.867,3.717a4.178,4.178,0,0,0-3.447,4.774,4.129,4.129,0,0,0,4.694,3.506l13.907-2.167c-18.6,23.381-38.6,43.3-59.55,59.254a242.71,242.71,0,0,1-56.422,32.531c-32.693,13.1-55.017,12.244-55.236,12.234a4.136,4.136,0,0,0-4.307,3.982,4.163,4.163,0,0,0,3.913,4.386c0.135,0.006.7,0.03,1.66,0.03,5.934,0,27.044-.926,56.473-12.636a250.362,250.362,0,0,0,58.537-33.58c21.7-16.484,42.389-37.066,61.576-61.236l1.646,11.953a4.142,4.142,0,0,0,4.073,3.608,3.9,3.9,0,0,0,.576-0.042A4.173,4.173,0,0,0-445.466,832.318Zm46.455,200.242h-33.28a50.072,50.072,0,0,0,7.7-6.41,50.605,50.605,0,0,0,14.542-35.7,50.583,50.583,0,0,0-14.542-35.7,49.543,49.543,0,0,0-10.986-8.417V929.425a4.152,4.152,0,0,0-4.118-4.186,4.151,4.151,0,0,0-4.118,4.186v13.188a48.762,48.762,0,0,0-34.52,1.031V892.206a0.975,0.975,0,0,1,.966-0.982h32.587a0.975,0.975,0,0,1,.967.982V902.6a4.154,4.154,0,0,0,4.118,4.189,4.154,4.154,0,0,0,4.118-4.189V892.206a9.292,9.292,0,0,0-9.2-9.359h-32.587a9.292,9.292,0,0,0-9.2,9.359V948a49.673,49.673,0,0,0-8.233,6.747,50.582,50.582,0,0,0-14.542,35.7,50.606,50.606,0,0,0,14.542,35.7,50.12,50.12,0,0,0,7.7,6.41h-26V930.2a9.29,9.29,0,0,0-9.2-9.356H-554.9a9.29,9.29,0,0,0-9.2,9.356V1032.56h-26.541V964.651a9.29,9.29,0,0,0-9.2-9.356h-32.587a9.291,9.291,0,0,0-9.2,9.356v67.909H-658.6V817.2a7.671,7.671,0,0,0-7.6-7.726h-6.515a7.671,7.671,0,0,0-7.6,7.726v29.731a4.153,4.153,0,0,0,4.118,4.187,4.155,4.155,0,0,0,4.119-4.187V817.847h5.239V1033.21a7.676,7.676,0,0,0,7.6,7.73h259.588v6.3H-672.075V873.392a4.155,4.155,0,0,0-4.119-4.189,4.155,4.155,0,0,0-4.118,4.189V1047.88a7.676,7.676,0,0,0,7.6,7.73h273.7a7.676,7.676,0,0,0,7.6-7.73v-7.59A7.676,7.676,0,0,0-399.011,1032.56Zm-199.869,0H-633.4V964.651a0.974,0.974,0,0,1,.966-0.981h32.587a0.974,0.974,0,0,1,.966.981v67.909h0Zm43.012,0V930.2a0.975,0.975,0,0,1,.967-0.981h32.586a0.974,0.974,0,0,1,.966.981V1032.56h-34.519Zm114.361-4.28a41.213,41.213,0,0,1-13.319,3.98l-0.233.03c-0.315.04-.631,0.07-0.947,0.1-0.481.04-.964,0.08-1.448,0.11-0.154,0-.306.01-0.459,0.01-0.594.03-1.188,0.05-1.786,0.05s-1.195-.02-1.79-0.05c-0.187,0-.376-0.01-0.564-0.02-0.448-.03-0.895-0.06-1.341-0.1l-1.109-.12c-0.264-.03-0.527-0.06-0.79-0.1-0.375-.05-0.749-0.11-1.123-0.17l-0.145-.03a40.8,40.8,0,0,1-13.833-5.04c-0.022-.02-0.046-0.02-0.069-0.04a41.3,41.3,0,0,1-8.519-6.67,42.174,42.174,0,0,1-12.129-29.772,42.2,42.2,0,0,1,12.129-29.778,41.384,41.384,0,0,1,9.9-7.439l0.3-.158a40.9,40.9,0,0,1,19.077-4.715,40.943,40.943,0,0,1,15.424,3.014c0.086,0.035.172,0.067,0.258,0.1,0.512,0.213,1.021.44,1.526,0.674,0.2,0.093.4,0.19,0.6,0.287a41.231,41.231,0,0,1,11.471,8.234,42.66,42.66,0,0,1,0,59.55,41.242,41.242,0,0,1-10.94,7.99C-441.406,1028.24-441.458,1028.25-441.507,1028.28ZM-457.785,986.4V971.478c5.059,0.367,6.938,2.718,8.671,2.718,2.168,0,3.18-2.79,3.18-4.186,0-3.6-6.937-5.144-11.85-5.292v-1.984a2.094,2.094,0,0,0-2.167-1.689,1.916,1.916,0,0,0-2.1,1.689v2.132c-6.865.735-13.729,4.41-13.729,13.667,0,9.4,7.226,12.051,13.729,14.4V1010.2c-7.37-.59-9.321-5.73-11.706-5.73-1.806,0-3.324,2.42-3.324,4.19,0,3.6,6.07,8.52,15.03,8.67h0v2.28a1.918,1.918,0,0,0,2.1,1.69,2.1,2.1,0,0,0,2.167-1.69v-2.5c7.8-1.1,13.15-6.1,13.15-15.14C-444.635,991.978-451.5,988.746-457.785,986.4Zm-3.829-1.4c-3.829-1.471-6.936-3.013-6.935-7.2,0-3.821,2.89-5.657,6.935-6.172V985Zm3.4,25.051v-15.5c3.54,1.545,6.358,3.6,6.358,8.231C-451.859,1006.97-454.316,1009.32-458.217,1010.05Z"/>
  <path id="Forma_1-3" data-name="Forma 1" class="cls-1" d="M261.219,273.272h-2.5a26.221,26.221,0,0,0-18.684-22.658V104.606a4.111,4.111,0,1,0-8.218,0V249.711c-0.016,0-.03,0-0.046,0-0.173.011-.344,0.028-0.516,0.043-0.321.027-.641,0.052-0.959,0.088-0.2.025-.391,0.057-0.586,0.085-0.29.04-.581,0.082-0.869,0.133-0.2.035-.406,0.08-0.608,0.12-0.276.057-.553,0.114-0.825,0.181-0.206.048-.409,0.1-0.612,0.158-0.266.07-.532,0.141-0.795,0.222-0.205.063-.406,0.13-0.609,0.2-0.258.086-.515,0.171-0.77,0.265-0.2.074-.4,0.154-0.6,0.234-0.25.1-.5,0.2-0.745,0.306-0.2.085-.4,0.177-0.591,0.27s-0.407.19-.608,0.291v-28.1a5.016,5.016,0,0,0-4.936-5.081H197.278a5.016,5.016,0,0,0-4.936,5.081v28.4a5.016,5.016,0,0,0,4.936,5.083h17.606c-0.124.131-.251,0.259-0.372,0.4-0.224.245-.438,0.506-0.652,0.762-0.105.124-.214,0.246-0.316,0.375q-0.471.585-.91,1.2c-0.463.1-.918,0.211-1.369,0.34-0.146.042-.288,0.09-0.432,0.136-0.3.095-.607,0.192-0.9,0.3-0.166.063-.329,0.128-0.492,0.19-0.273.109-.543,0.219-0.81,0.337-0.167.074-.331,0.148-0.494,0.228-0.263.124-.522,0.255-0.779,0.394-0.155.08-.31,0.16-0.462,0.247-0.271.15-.537,0.314-0.8,0.477-0.13.08-.261,0.156-0.388,0.242q-0.519.336-1.016,0.713c-0.037.025-.078,0.051-0.115,0.08q-0.553.423-1.079,0.877c-0.1.085-.192,0.178-0.289,0.268-0.247.22-.491,0.447-0.727,0.683-0.119.118-.232,0.239-0.348,0.357-0.208.219-.412,0.438-0.61,0.662-0.117.135-.231,0.268-0.344,0.4-0.19.226-.374,0.458-0.553,0.692-0.108.139-.214,0.278-0.318,0.421-0.183.251-.357,0.507-0.529,0.768-0.088.131-.179,0.262-0.265,0.4-0.2.323-.4,0.654-0.583,0.99-0.043.076-.09,0.152-0.132,0.231-0.226.416-.438,0.844-0.637,1.277-0.051.113-.095,0.229-0.145,0.341-0.115.266-.235,0.532-0.341,0.8H144.64V211.047l1.554,1.065q0.459,0.31.944,0.574c0.065,0.036.134,0.061,0.2,0.093a10.132,10.132,0,0,0,9.236.035c0.046-.021.088-0.054,0.133-0.075,0.277-.146.552-0.3,0.813-0.467a0.055,0.055,0,0,0,.008-0.006,10.58,10.58,0,0,0,.878-0.634c0.043-.034.081-0.074,0.124-0.11a10.724,10.724,0,0,0,2.661-3.292,11,11,0,0,0,.41-9.284h16.823a5.016,5.016,0,0,0,4.935-5.082V165.472a5.016,5.016,0,0,0-4.935-5.086H158.559a5.016,5.016,0,0,0-4.935,5.086v25.887l-8.983-6.154V165.472a5.017,5.017,0,0,0-4.936-5.086H119.843a5,5,0,0,0-4.9,4.475l-9.78-6.7V26.3h126.65V78.315a4.111,4.111,0,1,0,8.218,0V24.952a7.023,7.023,0,0,0-6.908-7.115h-6.3V6.08a6.011,6.011,0,0,0-5.914-6.09H116.072a6.011,6.011,0,0,0-5.914,6.09V17.837h-6.3a7.021,7.021,0,0,0-6.907,7.113V152.532l-5.041-3.452a5.636,5.636,0,0,0-6.42,0L68.692,160.584v-5.709a6.706,6.706,0,0,0-6.6-6.8H42.48a6.707,6.707,0,0,0-6.6,6.8v6.74a6.832,6.832,0,0,0,3.494,5.994v13.058L19.629,194.2a10.906,10.906,0,0,0-3.424,14.037,10.531,10.531,0,0,0,6.664,5.356,10.2,10.2,0,0,0,8.332-1.476h0l1.555-1.065v20.882a4.111,4.111,0,1,0,8.218,0V205.417L88.7,172.723l47.724,32.694v67.857H83.741V227.806a5.978,5.978,0,0,0-5.881-6.056H51.022a5.978,5.978,0,0,0-5.881,6.056v45.468H40.974V258.222a4.111,4.111,0,1,0-8.218,0v15.052H11.47a11.9,11.9,0,0,0,0,23.788H261.22A11.9,11.9,0,0,0,261.219,273.272Zm-47.362-24.05h-13.3V227.589h13.3v21.633Zm-52.015-80.371h13.3v21.633h-13.3V168.851ZM118.377,8.453H218.605v9.384H118.377V8.453Zm88.793,264.7c0.04-.053.081-0.1,0.121-0.152,0.168-.207.341-0.411,0.521-0.6,0.016-.019.031-0.038,0.048-0.055,0.193-.2.394-0.4,0.6-0.593,0.049-.048.1-0.093,0.147-0.137,0.21-.188.422-0.373,0.643-0.544,0.018-.017.037-0.03,0.055-0.046,0.209-.161.424-0.315,0.642-0.464,0.053-.036.1-0.072,0.158-0.11,0.233-.15.47-0.3,0.714-0.434,0.041-.022.083-0.047,0.125-0.066,0.219-.124.443-0.236,0.671-0.344,0.05-.023.1-0.048,0.149-0.071,0.254-.114.514-0.22,0.777-0.321,0.056-.021.112-0.038,0.168-0.059,0.243-.088.49-0.167,0.74-0.24,0.036-.009.071-0.021,0.107-0.03,0.274-.076.554-0.141,0.835-0.194,0.066-.015.131-0.029,0.2-0.04,0.288-.051.579-0.1,0.873-0.131a4.087,4.087,0,0,0,3.053-1.961,17.194,17.194,0,0,1,14.746-8.429c0.338,0,.678.013,1.026,0.036l0.076,0.006c0.345,0.025.7,0.057,1.06,0.1l0.046,0a17.672,17.672,0,0,1,14.969,14.992H207.083C207.113,273.234,207.139,273.194,207.17,273.158ZM123.124,168.851h13.3v10.723l-13.3-9.108v-1.615ZM44.1,156.542H60.474v3.407H44.1v-3.407Zm12.882,11.87h0v0.194l-9.387,6.432v-6.626H56.98Zm34.926-3.657a5.654,5.654,0,0,0-2.182-.892c-0.064-.016-0.127-0.035-0.191-0.046a0.411,0.411,0,0,0-.05,0,5.614,5.614,0,0,0-3.342.561,6.389,6.389,0,0,0-.654.379L26.649,205.064a2.154,2.154,0,0,1-1.778.315,2.224,2.224,0,0,1-1.422-1.143,2.325,2.325,0,0,1,.731-2.993l64.517-44.2,64.516,44.2a2.323,2.323,0,0,1,.73,2.993,2.221,2.221,0,0,1-1.421,1.143,2.155,2.155,0,0,1-1.778-.315l-7.939-5.439ZM53.359,230.213H75.522v43.059H53.359V230.213ZM261.219,288.6H11.469a3.432,3.432,0,0,1,0-6.861h249.75A3.432,3.432,0,0,1,261.219,288.6ZM125.672,227.827H93.466a5.382,5.382,0,0,0-5.294,5.454v20.173a4.172,4.172,0,0,0,4.109,4.231h34.575a4.172,4.172,0,0,0,4.109-4.231V233.281A5.381,5.381,0,0,0,125.672,227.827Zm-2.925,21.4H96.389v-12.93h26.358v12.93ZM139.705,42.909H119.843a5.017,5.017,0,0,0-4.936,5.086V76.386a5.016,5.016,0,0,0,4.936,5.082h19.862a5.016,5.016,0,0,0,4.936-5.082V47.994h0A5.017,5.017,0,0,0,139.705,42.909Zm-3.282,30.1h-13.3V51.374h13.3V73.007Zm42-30.1H158.56a5.017,5.017,0,0,0-4.936,5.086V76.386a5.016,5.016,0,0,0,4.936,5.082h19.863a5.016,5.016,0,0,0,4.935-5.082V47.994h0A5.016,5.016,0,0,0,178.423,42.909Zm-3.283,30.1h-13.3V51.374h13.3V73.007Zm42-30.1H197.277a5.017,5.017,0,0,0-4.936,5.086V76.386a5.016,5.016,0,0,0,4.936,5.082h19.862a5.016,5.016,0,0,0,4.936-5.082V47.994A5.017,5.017,0,0,0,217.14,42.909Zm-3.283,30.1h-13.3V51.374h13.3V73.007Zm-74.152,28.641H119.843a5.017,5.017,0,0,0-4.936,5.084v28.394a5.017,5.017,0,0,0,4.936,5.082h19.862a5.017,5.017,0,0,0,4.936-5.082V106.732A5.017,5.017,0,0,0,139.705,101.648Zm-3.282,30.1h-13.3V110.111h13.3v21.634Zm42-30.1H158.56a5.017,5.017,0,0,0-4.936,5.084v28.394a5.017,5.017,0,0,0,4.936,5.082h19.863a5.017,5.017,0,0,0,4.935-5.082V106.732A5.017,5.017,0,0,0,178.423,101.648Zm-3.283,30.1h-13.3V110.111h13.3v21.634Zm42-30.1H197.277a5.017,5.017,0,0,0-4.936,5.084v28.394a5.017,5.017,0,0,0,4.936,5.082h19.862a5.017,5.017,0,0,0,4.936-5.082V106.732A5.017,5.017,0,0,0,217.14,101.648Zm-3.283,30.1h-13.3V110.111h13.3v21.634Zm3.283,28.641H197.277a5.017,5.017,0,0,0-4.936,5.086v28.392a5.017,5.017,0,0,0,4.936,5.082h19.862a5.017,5.017,0,0,0,4.936-5.082V165.472A5.018,5.018,0,0,0,217.14,160.386Zm-3.283,30.1h-13.3V168.851h13.3v21.633Zm-34.608,28.642H157.733a4.173,4.173,0,0,0-4.109,4.231v30.1a4.173,4.173,0,0,0,4.109,4.231h21.516a4.172,4.172,0,0,0,4.109-4.231v-30.1A4.173,4.173,0,0,0,179.249,219.126Zm-4.109,30.1h-13.3V227.589h13.3v21.633Z"/>
  <path id="Forma_1_copy_3" data-name="Forma 1 copy 3" class="cls-1" d="M-447.827,1444.67a155.4,155.4,0,0,0-110.654-45.87,155.4,155.4,0,0,0-110.653,45.87,155.585,155.585,0,0,0-45.834,110.72,155.63,155.63,0,0,0,45.834,110.73,155.4,155.4,0,0,0,110.653,45.87,155.4,155.4,0,0,0,110.654-45.87,155.63,155.63,0,0,0,45.834-110.73A155.594,155.594,0,0,0-447.827,1444.67Zm-110.654,258.14c-81.231,0-147.318-66.13-147.318-147.42s66.087-147.42,147.318-147.42,147.319,66.14,147.319,147.42S-477.249,1702.81-558.481,1702.81Zm9.169-248.96h-9.169a4.583,4.583,0,0,0-4.584,4.59v18.35a4.589,4.589,0,0,0,4.584,4.59h9.169a37.344,37.344,0,0,1,37.289,37.31A37.337,37.337,0,0,1-549.312,1556h-14.365a4.59,4.59,0,0,0-4.584,4.59,4.584,4.584,0,0,0,4.584,4.59h14.365a46.53,46.53,0,0,0,46.458-46.49,46.53,46.53,0,0,0-46.458-46.49H-553.9v-9.17h4.584a83.258,83.258,0,0,1,83.135,83.19,83.258,83.258,0,0,1-83.135,83.19h-51.042a4.581,4.581,0,0,0-4.584,4.58v7.28l-43.947-43.98,43.947-43.97v7.27a4.584,4.584,0,0,0,4.584,4.59h18.339a4.583,4.583,0,0,0,4.584-4.59,4.589,4.589,0,0,0-4.584-4.59h-13.754v-13.76A4.6,4.6,0,0,0-598.6,1538a4.571,4.571,0,0,0-5,1l-55.015,55.05a4.593,4.593,0,0,0,0,6.49l55.015,55.05a4.571,4.571,0,0,0,3.243,1.34,4.49,4.49,0,0,0,1.754-.35,4.582,4.582,0,0,0,2.829-4.23v-13.77h46.457a92.435,92.435,0,0,0,92.3-92.36A92.444,92.444,0,0,0-549.312,1453.85Z"/>
  <path class="cls-1" d="M-1233.88,893.1h-12.63a5.972,5.972,0,0,0-5.93,6.007,5.964,5.964,0,0,0,5.93,6h12.63a5.964,5.964,0,0,0,5.93-6A5.966,5.966,0,0,0-1233.88,893.1Zm1.56,49.616a12.114,12.114,0,0,0-9.65-4.775h-135.48a12.114,12.114,0,0,0-9.65,4.775,12.453,12.453,0,0,0-2.23,10.646l3.16,12.815a12.263,12.263,0,0,0,11.88,9.4h129.16a12.262,12.262,0,0,0,11.88-9.4l3.16-12.813A12.453,12.453,0,0,0-1232.32,942.717Zm-9.27,7.736-3.16,12.809a0.385,0.385,0,0,1-.38.3h-129.16a0.386,0.386,0,0,1-.38-0.3l-3.16-12.811a0.348,0.348,0,0,1,.07-0.343,0.358,0.358,0,0,1,.31-0.154h135.48a0.358,0.358,0,0,1,.31.154A0.348,0.348,0,0,1-1241.59,950.453Zm-40.56-159.848h-55.12m-21.53,32.029h-45.06a24.989,24.989,0,0,0-23.39,16.6l-15.8,44.059a18.673,18.673,0,0,0-18.33-15.818h-6.32a18.713,18.713,0,0,0-18.56,18.816,18.713,18.713,0,0,0,18.56,18.816h6.32a18.223,18.223,0,0,0,8.14-1.91l-13.54,17.165a32.02,32.02,0,0,0-6.84,19.76V1059.26a12.341,12.341,0,0,0,12.24,12.41h18.96a12.35,12.35,0,0,0,12.25-12.41v-26.03h240.92v26.03a12.35,12.35,0,0,0,12.25,12.41h18.96a12.341,12.341,0,0,0,12.24-12.41V940.126a32.016,32.016,0,0,0-6.84-19.76l-13.54-17.165a18.223,18.223,0,0,0,8.14,1.91h6.32a18.713,18.713,0,0,0,18.56-18.816,18.713,18.713,0,0,0-18.56-18.816h-6.32a18.673,18.673,0,0,0-18.33,15.818l-15.8-44.059a24.986,24.986,0,0,0-23.39-16.6h-45.06M-1461.38,893.1h-6.32a6.766,6.766,0,0,1-6.71-6.806,6.766,6.766,0,0,1,6.71-6.806h6.32a6.768,6.768,0,0,1,6.72,6.806A6.768,6.768,0,0,1-1461.38,893.1Zm188.68-70.467h-74.02m-95.3,236.626a0.4,0.4,0,0,1-.4.4h-18.96a0.4,0.4,0,0,1-.39-0.4v-29.77a24.509,24.509,0,0,0,13.03,3.74h6.72v26.03h0Zm202.22-38.04h-139.82v-13.21a0.4,0.4,0,0,1,.4-0.4h139.02a0.4,0.4,0,0,1,.4.4v13.21h0Zm82.15,38.04a0.4,0.4,0,0,1-.39.4H-1177a0.4,0.4,0,0,1-.4-0.4v-26.03h6.72a24.509,24.509,0,0,0,13.03-3.74v29.77h0Zm-4.24-131.392a19.839,19.839,0,0,1,4.24,12.258v67.884a13.129,13.129,0,0,1-13.03,13.21h-57.27v-13.21A12.344,12.344,0,0,0-1240.2,995.6h-139.02a12.35,12.35,0,0,0-12.25,12.411v13.21h-57.27a13.135,13.135,0,0,1-13.03-13.21V940.126a19.9,19.9,0,0,1,4.24-12.258l17.96-22.757h167.78a5.962,5.962,0,0,0,5.92-6,5.964,5.964,0,0,0-5.92-6h-162.17l17.85-49.759a13.086,13.086,0,0,1,12.25-8.694h188.3a13.079,13.079,0,0,1,12.25,8.694l17.85,49.759h-23.14a5.964,5.964,0,0,0-5.92,6,5.964,5.964,0,0,0,5.92,6h28.75Zm-2.87-41.573a6.768,6.768,0,0,1,6.72-6.806h6.32a6.766,6.766,0,0,1,6.71,6.806,6.766,6.766,0,0,1-6.71,6.806h-6.32A6.774,6.774,0,0,1-1164.76,886.3Zm-258.7,96.491A12.339,12.339,0,0,0-1435.7,995.2a12.342,12.342,0,0,0,12.24,12.413,12.342,12.342,0,0,0,12.24-12.413A12.339,12.339,0,0,0-1423.46,982.786Zm227.5,0A12.339,12.339,0,0,0-1208.2,995.2a12.342,12.342,0,0,0,12.24,12.413,12.342,12.342,0,0,0,12.24-12.413A12.339,12.339,0,0,0-1195.96,982.786Zm-230.66-51.248a21.9,21.9,0,0,0-21.72,22.019,21.894,21.894,0,0,0,21.72,22.021,21.894,21.894,0,0,0,21.72-22.021A21.9,21.9,0,0,0-1426.62,931.538Zm0,32.028a9.951,9.951,0,0,1-9.87-10.009,9.952,9.952,0,0,1,9.87-10.009,9.954,9.954,0,0,1,9.88,10.009A9.953,9.953,0,0,1-1426.62,963.566Zm233.82-32.028a21.9,21.9,0,0,0-21.72,22.019,21.894,21.894,0,0,0,21.72,22.021,21.894,21.894,0,0,0,21.72-22.021A21.9,21.9,0,0,0-1192.8,931.538Zm0,32.028a9.951,9.951,0,0,1-9.87-10.009,9.946,9.946,0,0,1,9.87-10.009,9.952,9.952,0,0,1,9.87,10.009A9.945,9.945,0,0,1-1192.8,963.566Z"/>
</svg>
