<svg xmlns="http://www.w3.org/2000/svg" width="345" height="265" viewBox="0 0 345 265">
  <metadata><?xpacket begin="﻿" id="W5M0MpCehiHzreSzNTczkc9d"?>
<x:xmpmeta xmlns:x="adobe:ns:meta/" x:xmptk="Adobe XMP Core 5.6-c138 79.159824, 2016/09/14-01:09:01        ">
   <rdf:RDF xmlns:rdf="http://www.w3.org/1999/02/22-rdf-syntax-ns#">
      <rdf:Description rdf:about=""/>
   </rdf:RDF>
</x:xmpmeta>
                                                                                                    
                                                                                                    
                                                                                                    
                                                                                                    
                                                                                                    
                                                                                                    
                                                                                                    
                                                                                                    
                                                                                                    
                                                                                                    
                                                                                                    
                                                                                                    
                                                                                                    
                                                                                                    
                                                                                                    
                                                                                                    
                                                                                                    
                                                                                                    
                                                                                                    
                                                                                                    
                           
<?xpacket end="w"?></metadata>
<defs>
    <style>
      .cls-1 {
        fill-rule: evenodd;
      }
    </style>
  </defs>
  <path class="cls-1" d="M-310.56-696.243A168.548,168.548,0,0,0-323.4-727.271a39.343,39.343,0,0,0-5.331-48.648L-344-791.193a39.267,39.267,0,0,0-48.613-5.334,168.362,168.362,0,0,0-31-12.853A39.293,39.293,0,0,0-461.763-840h-21.586a39.292,39.292,0,0,0-38.144,30.622,168.223,168.223,0,0,0-31,12.853,39.271,39.271,0,0,0-48.614,5.332l-15.264,15.274a39.339,39.339,0,0,0-5.331,48.648,168.461,168.461,0,0,0-12.843,31.026,39.315,39.315,0,0,0-30.606,38.172v21.6a39.315,39.315,0,0,0,30.6,38.173,168.523,168.523,0,0,0,12.843,31.024,39.337,39.337,0,0,0,5.332,48.646l15.263,15.278a39.269,39.269,0,0,0,48.613,5.332,168.285,168.285,0,0,0,31.006,12.853,39.3,39.3,0,0,0,38.143,30.624h21.588a39.3,39.3,0,0,0,38.145-30.624,168.333,168.333,0,0,0,31.005-12.853A39.273,39.273,0,0,0-344-503.353l15.265-15.278a39.334,39.334,0,0,0,5.331-48.646A168.515,168.515,0,0,0-310.562-598.3a39.313,39.313,0,0,0,30.6-38.173v-21.6A39.3,39.3,0,0,0-310.56-696.243Zm15.257,59.769A23.835,23.835,0,0,1-317.177-612.8a7.675,7.675,0,0,0-6.82,5.659,153.176,153.176,0,0,1-15.154,36.609,7.682,7.682,0,0,0,.821,8.828,23.851,23.851,0,0,1-1.256,32.216l-15.265,15.275a23.813,23.813,0,0,1-32.195,1.259,7.678,7.678,0,0,0-8.823-.822,152.738,152.738,0,0,1-36.583,15.166,7.683,7.683,0,0,0-5.656,6.823A23.831,23.831,0,0,1-461.763-469.9h-21.586A23.831,23.831,0,0,1-507-491.788a7.683,7.683,0,0,0-5.656-6.825,152.731,152.731,0,0,1-36.582-15.166,7.661,7.661,0,0,0-3.829-1.023,7.662,7.662,0,0,0-4.993,1.847,23.82,23.82,0,0,1-32.2-1.259l-15.265-15.275a23.854,23.854,0,0,1-1.256-32.217,7.679,7.679,0,0,0,.821-8.827,153.068,153.068,0,0,1-15.154-36.609,7.675,7.675,0,0,0-6.819-5.659,23.836,23.836,0,0,1-21.875-23.671v-21.6a23.831,23.831,0,0,1,21.875-23.668,7.681,7.681,0,0,0,6.819-5.661,153.217,153.217,0,0,1,15.154-36.607,7.68,7.68,0,0,0-.821-8.828,23.854,23.854,0,0,1,1.256-32.218l15.265-15.275a23.815,23.815,0,0,1,32.2-1.257,7.672,7.672,0,0,0,8.822.822,152.74,152.74,0,0,1,36.582-15.166A7.684,7.684,0,0,0-507-802.758a23.832,23.832,0,0,1,23.654-21.888h21.587a23.832,23.832,0,0,1,23.655,21.886,7.685,7.685,0,0,0,5.656,6.827,152.867,152.867,0,0,1,36.582,15.164,7.671,7.671,0,0,0,8.823-.822,23.812,23.812,0,0,1,32.2,1.257l15.263,15.277a23.854,23.854,0,0,1,1.257,32.218,7.681,7.681,0,0,0-.821,8.828A153.117,153.117,0,0,1-324-687.406a7.679,7.679,0,0,0,6.819,5.663A23.831,23.831,0,0,1-295.3-658.075v21.6h0ZM-472.556-783.567c-75.1,0-136.2,61.143-136.2,136.293s61.1,136.3,136.2,136.3,136.2-61.141,136.2-136.3S-397.455-783.567-472.556-783.567Zm0,257.23c-66.639,0-120.854-54.249-120.854-120.937S-539.2-768.209-472.556-768.209-351.7-713.958-351.7-647.274-405.917-526.337-472.556-526.337Zm91.261-181.224a7.669,7.669,0,0,0-10.633-2.17,7.685,7.685,0,0,0-2.167,10.642,93.669,93.669,0,0,1,15.536,51.815,7.675,7.675,0,0,0,7.673,7.679,7.676,7.676,0,0,0,7.674-7.679A109,109,0,0,0-381.295-707.561Zm-16.771-19.815c-1.2-1.12-2.451-2.231-3.707-3.3a7.672,7.672,0,0,0-10.816.879,7.684,7.684,0,0,0,.876,10.825c1.082,0.919,2.155,1.874,3.191,2.84a7.644,7.644,0,0,0,5.227,2.06,7.646,7.646,0,0,0,5.617-2.45A7.682,7.682,0,0,0-398.066-727.376Zm-69.947,72.022v-43.17c13.811,0.757,19.109,7.006,23.082,7.006,4.351,0,6.81-5.68,6.81-8.708,0-7.573-16.46-11.929-29.893-12.5v-5.3c0-2.083-2.459-3.975-4.919-3.975-2.839,0-4.92,1.892-4.92,3.975v5.678c-17.027,1.518-35,9.846-35,33.7,0,24.235,18.162,30.482,35,36.352v50.361c-21.569-.949-26.108-15.147-31.406-15.147-3.6,0-7,4.923-7,8.71,0,7.953,14.757,21.013,38.407,21.39h0v6.25c0,2.083,2.081,3.978,4.92,3.978,2.459,0,4.919-1.895,4.919-3.978v-6.815c19.677-2.652,33.3-14.957,33.3-38.054C-434.714-641.535-451.931-649.486-468.013-655.354Zm-9.083-3.223c-11.162-4.162-20.622-8.517-20.621-21.582,0-12.116,9.27-17.037,20.621-18.175v39.757Zm8.325,66.268V-638.7c10.406,4.356,18.92,10.224,18.92,24.614C-449.851-601.588-456.851-594.2-468.771-592.309Z"/>
  <path class="cls-1" d="M-1117.06-784.73A187.284,187.284,0,0,0-1250.41-840a187.29,187.29,0,0,0-133.36,55.275A187.532,187.532,0,0,0-1439-651.29a187.533,187.533,0,0,0,55.23,133.442,187.3,187.3,0,0,0,133.36,55.275,187.292,187.292,0,0,0,133.35-55.275,187.533,187.533,0,0,0,55.23-133.442A187.532,187.532,0,0,0-1117.06-784.73Zm-133.35,307.12c-95.71,0-173.56-77.912-173.56-173.68s77.85-173.676,173.56-173.676,173.56,77.91,173.56,173.676S-1154.71-477.61-1250.41-477.61Zm96.95-270.81a26.3,26.3,0,0,0-37.18,0l-156.69,156.787a26.288,26.288,0,0,0-7.74,18.835,26.288,26.288,0,0,0,7.91,18.763,26.345,26.345,0,0,0,18.53,7.556,26.348,26.348,0,0,0,18.74-7.759l156.44-156.968A26.353,26.353,0,0,0-1153.46-748.42Zm-10.63,26.589-156.44,156.979a11.449,11.449,0,0,1-16.1.091,11.393,11.393,0,0,1-3.42-8.107,11.368,11.368,0,0,1,3.35-8.13l156.68-156.791a11.285,11.285,0,0,1,15.94,0A11.308,11.308,0,0,1-1164.09-721.831Zm-146.06-22.687a33.483,33.483,0,0,0-33.43,33.456,33.485,33.485,0,0,0,33.43,33.458,33.487,33.487,0,0,0,33.44-33.458A33.486,33.486,0,0,0-1310.15-744.518Zm0,51.875a18.428,18.428,0,0,1-18.4-18.419,18.43,18.43,0,0,1,18.4-18.422,18.438,18.438,0,0,1,18.41,18.422A18.436,18.436,0,0,1-1310.15-692.643Zm119.47,67.669a33.483,33.483,0,0,0-33.44,33.455,33.486,33.486,0,0,0,33.44,33.457,33.484,33.484,0,0,0,33.43-33.457A33.481,33.481,0,0,0-1190.68-624.974Zm0,51.878a18.438,18.438,0,0,1-18.41-18.421,18.437,18.437,0,0,1,18.41-18.42,18.437,18.437,0,0,1,18.41,18.42A18.438,18.438,0,0,1-1190.68-573.1Zm92.12-47.134a7.51,7.51,0,0,0-9.14,5.429,147.118,147.118,0,0,1-142.71,110.875,7.521,7.521,0,0,0-7.52,7.519,7.521,7.521,0,0,0,7.52,7.517,162.135,162.135,0,0,0,157.27-122.2A7.509,7.509,0,0,0-1098.56-620.23Zm2.92-38.577a7.512,7.512,0,0,0-7.51,7.517c0,2.151-.05,4.316-0.14,6.443a7.519,7.519,0,0,0,7.18,7.836q0.165,0.006.33,0.006a7.512,7.512,0,0,0,7.5-7.194c0.11-2.339.16-4.725,0.16-7.091A7.521,7.521,0,0,0-1095.64-658.807Z"/>
  <path id="Forma_1" data-name="Forma 1" class="cls-1" d="M64.955,239.151a5.19,5.19,0,0,0-3.6,1.459,4.876,4.876,0,0,0,0,7.029,5.176,5.176,0,0,0,7.208,0,4.874,4.874,0,0,0,0-7.029A5.177,5.177,0,0,0,64.955,239.151Zm132.416,1.459a4.874,4.874,0,0,0,0,7.029,5.191,5.191,0,0,0,7.216,0,4.892,4.892,0,0,0,0-7.029A5.191,5.191,0,0,0,197.371,240.61Zm-12.716-1.459H81.279a4.976,4.976,0,1,0,0,9.949H184.655A4.976,4.976,0,1,0,184.655,239.151Zm154.083-94.412a21.676,21.676,0,0,0-16.415-6.067l-7.161-15.707a15.368,15.368,0,0,0,5.174-11.468,15.643,15.643,0,0,0-10.882-14.764V35.168l4.373-5.508a4.916,4.916,0,0,0,.911-1.822A15.4,15.4,0,0,0,320.336,16a16.009,16.009,0,0,0-31.828-2L276.99,27.03a5.166,5.166,0,0,0-1.768.658L47.187,164.879H37.751a15.806,15.806,0,0,0-15.983,15.584V186.1H10.547A10.424,10.424,0,0,0,.005,196.379v26.527a10.425,10.425,0,0,0,10.541,10.277h36.17a20.386,20.386,0,0,0-3.184,10.942c0,11.517,9.61,20.889,21.423,20.889H200.977c11.814,0,21.424-9.372,21.424-20.889s-9.611-20.89-21.424-20.89H184.314V192.773L299.252,48.015V96.733A15.644,15.644,0,0,0,288.371,111.5a15.371,15.371,0,0,0,5.173,11.468l-7.283,15.977a21.769,21.769,0,0,0-18.82,5.8,20.545,20.545,0,0,0,0,29.541l7.67,7.478c0.009,0.008.017,0.017,0.025,0.025a0.3,0.3,0,0,1,.025.025l7.669,7.478a5.195,5.195,0,0,0,7.213,0,4.885,4.885,0,0,0,0-7.033l-4.087-3.987,17.134-16.7,17.133,16.7-4.087,3.987a4.884,4.884,0,0,0,0,7.033,5.193,5.193,0,0,0,7.212,0l7.661-7.471a0.25,0.25,0,0,0,.034-0.032,0.219,0.219,0,0,0,.034-0.034l7.66-7.469A20.52,20.52,0,0,0,338.738,144.739ZM304.353,10.366a5.641,5.641,0,1,1-5.78,5.641A5.719,5.719,0,0,1,304.353,10.366ZM174.113,205.7l-15.8-4.4a16.379,16.379,0,0,1-12.084-15.621v-10.85H157.45a16.477,16.477,0,0,1,16.663,16.245V205.7Zm-38.036-18.522a16.241,16.241,0,0,0-5.832-1.078h-5.781V175.157a0.335,0.335,0,0,1,.341-0.329h11.222v10.85C136.027,186.18,136.047,186.68,136.077,187.178Zm19.036-22.3H124.805a10.424,10.424,0,0,0-10.541,10.28V186.1H75.5v-5.637a15.633,15.633,0,0,0-10.471-14.627L255.68,51.134ZM31.97,180.463a5.717,5.717,0,0,1,5.781-5.635H48.627l0.011,0,0.01,0H59.514a5.717,5.717,0,0,1,5.781,5.635V186.1H31.97v-5.637ZM10.208,222.906V211.963H21.429a4.976,4.976,0,1,0,0-9.949H10.208v-5.635a0.336,0.336,0,0,1,.339-0.332h119.7a5.718,5.718,0,0,1,5.782,5.638v0.329H43.192a4.976,4.976,0,1,0,0,9.949h92.835v11.272H10.547A0.334,0.334,0,0,1,10.208,222.906ZM212.2,244.125a11.1,11.1,0,0,1-11.221,10.943H64.955a10.946,10.946,0,1,1,0-21.885H200.976A11.1,11.1,0,0,1,212.2,244.125Zm-65.97-20.89V206.2a26.974,26.974,0,0,0,9.282,4.669l18.6,5.182v7.189H146.228ZM181.7,179.814a26.758,26.758,0,0,0-14.654-13.2L291.75,25.571a16.035,16.035,0,0,0,7.5,5.2v1Zm122.651-73.956a5.64,5.64,0,1,1-5.78,5.639A5.718,5.718,0,0,1,304.353,105.858Zm-25.61,65.375-4.088-3.986a10.764,10.764,0,0,1,0-15.475,11.439,11.439,0,0,1,15.869,0l4.087,3.988Zm24.347-21.275-5.352-5.219a21.071,21.071,0,0,0-2.13-1.812l7.255-15.917c0.492,0.044.987,0.073,1.489,0.073s1-.029,1.49-0.073l6.666,14.625a21.217,21.217,0,0,0-4.067,3.1Zm28.435,17.289-4.088,3.986-15.87-15.473,4.088-3.988a11.439,11.439,0,0,1,15.87,0A10.75,10.75,0,0,1,331.525,167.247Z"/>
  <path id="Forma_1-2" data-name="Forma 1" class="cls-1" d="M-396.466,32.318L-399.5,10.29a4.211,4.211,0,0,0-1.619-2.779,4.072,4.072,0,0,0-3.082-.78l-23.867,3.717a4.179,4.179,0,0,0-3.447,4.774,4.129,4.129,0,0,0,4.694,3.506l13.907-2.167c-18.6,23.381-38.6,43.3-59.55,59.254a242.72,242.72,0,0,1-56.422,32.531c-32.693,13.1-55.017,12.244-55.236,12.234a4.136,4.136,0,0,0-4.307,3.982,4.163,4.163,0,0,0,3.913,4.386c0.135,0.006.7,0.03,1.66,0.03,5.934,0,27.044-.926,56.473-12.636a250.353,250.353,0,0,0,58.537-33.58c21.7-16.484,42.389-37.066,61.576-61.236l1.646,11.953a4.142,4.142,0,0,0,4.073,3.608,3.952,3.952,0,0,0,.576-0.042A4.174,4.174,0,0,0-396.466,32.318Zm46.455,200.242h-33.28a50.2,50.2,0,0,0,7.7-6.412,50.587,50.587,0,0,0,14.542-35.7,50.583,50.583,0,0,0-14.542-35.7,49.543,49.543,0,0,0-10.986-8.417V129.425a4.152,4.152,0,0,0-4.118-4.186,4.151,4.151,0,0,0-4.118,4.186v13.188a48.762,48.762,0,0,0-34.52,1.031V92.206a0.975,0.975,0,0,1,.966-0.981h32.587a0.975,0.975,0,0,1,.967.981V102.6a4.154,4.154,0,0,0,4.118,4.189,4.154,4.154,0,0,0,4.118-4.189V92.206a9.292,9.292,0,0,0-9.2-9.359h-32.587a9.292,9.292,0,0,0-9.2,9.359V148a49.673,49.673,0,0,0-8.233,6.747,50.582,50.582,0,0,0-14.542,35.7,50.583,50.583,0,0,0,14.542,35.7,50.249,50.249,0,0,0,7.7,6.412h-26V130.2a9.29,9.29,0,0,0-9.2-9.356H-505.9a9.29,9.29,0,0,0-9.2,9.356V232.56h-26.541V164.651a9.29,9.29,0,0,0-9.2-9.356h-32.587a9.291,9.291,0,0,0-9.2,9.356V232.56H-609.6V17.2a7.672,7.672,0,0,0-7.6-7.727h-6.515a7.672,7.672,0,0,0-7.6,7.727V46.929a4.153,4.153,0,0,0,4.118,4.186,4.154,4.154,0,0,0,4.119-4.186V17.847h5.239v215.36a7.673,7.673,0,0,0,7.6,7.728h259.588v6.3H-623.075V73.392a4.155,4.155,0,0,0-4.119-4.189,4.155,4.155,0,0,0-4.118,4.189V247.884a7.673,7.673,0,0,0,7.6,7.728h273.7a7.673,7.673,0,0,0,7.6-7.728v-7.6A7.672,7.672,0,0,0-350.011,232.56Zm-199.869,0H-584.4V164.651a0.974,0.974,0,0,1,.966-0.981h32.587a0.974,0.974,0,0,1,.966.981V232.56h0Zm43.012,0V130.2a0.975,0.975,0,0,1,.967-0.981h32.586a0.974,0.974,0,0,1,.966.981V232.56h-34.519Zm114.361-4.282a41.145,41.145,0,0,1-13.319,3.984l-0.233.028c-0.315.036-.631,0.069-0.947,0.1-0.481.044-.964,0.082-1.448,0.109l-0.459.019c-0.594.026-1.188,0.045-1.786,0.045s-1.195-.019-1.79-0.045c-0.187-.008-0.376-0.017-0.564-0.027q-0.672-.04-1.341-0.1-0.556-.051-1.109-0.118c-0.264-.03-0.527-0.062-0.79-0.1-0.375-.051-0.749-0.106-1.123-0.169-0.049-.008-0.1-0.017-0.145-0.027a40.9,40.9,0,0,1-13.833-5.046c-0.022-.013-0.046-0.023-0.069-0.036a41.692,41.692,0,0,1-8.519-6.667,42.2,42.2,0,0,1-12.129-29.777,42.2,42.2,0,0,1,12.129-29.778,41.384,41.384,0,0,1,9.9-7.439l0.3-.158a40.9,40.9,0,0,1,19.077-4.715,40.943,40.943,0,0,1,15.424,3.014c0.086,0.035.172,0.067,0.258,0.1,0.512,0.213,1.021.44,1.526,0.674,0.2,0.093.4,0.19,0.6,0.287a41.231,41.231,0,0,1,11.471,8.234,42.666,42.666,0,0,1,0,59.555,41.482,41.482,0,0,1-10.94,7.989C-392.406,228.237-392.458,228.254-392.507,228.278ZM-408.785,186.4V171.478c5.059,0.367,6.938,2.718,8.671,2.718,2.168,0,3.18-2.79,3.18-4.186,0-3.6-6.937-5.144-11.85-5.292v-1.984a2.094,2.094,0,0,0-2.167-1.689,1.916,1.916,0,0,0-2.1,1.689v2.132c-6.865.735-13.729,4.41-13.729,13.667,0,9.405,7.226,12.051,13.729,14.4V210.2c-7.37-.587-9.321-5.731-11.706-5.731-1.806,0-3.324,2.425-3.324,4.189,0,3.6,6.07,8.523,15.03,8.67h0v2.279a1.917,1.917,0,0,0,2.1,1.689,2.1,2.1,0,0,0,2.167-1.689v-2.5c7.8-1.1,13.15-6.1,13.15-15.135C-395.635,191.978-402.5,188.746-408.785,186.4Zm-3.829-1.4c-3.829-1.471-6.936-3.013-6.935-7.2,0-3.821,2.89-5.657,6.935-6.172V185Zm3.4,25.055v-15.5c3.54,1.545,6.358,3.6,6.358,8.231C-402.859,206.969-405.316,209.32-409.217,210.054Z"/>
  <path id="Forma_1-3" data-name="Forma 1" class="cls-1" d="M310.219-526.728h-2.5a26.221,26.221,0,0,0-18.684-22.658V-695.394a4.172,4.172,0,0,0-4.109-4.232,4.171,4.171,0,0,0-4.109,4.232v145.105c-0.016,0-.03,0-0.046,0-0.173.011-.344,0.028-0.516,0.043-0.321.027-.641,0.052-0.959,0.088-0.2.025-.391,0.057-0.586,0.085-0.29.04-.581,0.082-0.869,0.133-0.2.035-.406,0.08-0.608,0.12-0.276.057-.553,0.114-0.825,0.181-0.206.048-.409,0.1-0.612,0.158-0.266.07-.532,0.141-0.8,0.222-0.2.063-.406,0.13-0.609,0.2-0.258.086-.515,0.171-0.77,0.265-0.2.074-.4,0.154-0.6,0.234-0.25.1-.5,0.2-0.745,0.306-0.2.085-.395,0.177-0.591,0.27s-0.407.19-.608,0.291v-28.1a5.016,5.016,0,0,0-4.936-5.081H246.278a5.016,5.016,0,0,0-4.936,5.081V-547.4a5.016,5.016,0,0,0,4.936,5.083h17.606c-0.124.131-.251,0.259-0.372,0.4-0.224.245-.438,0.506-0.652,0.762-0.105.124-.214,0.246-0.316,0.375q-0.471.585-.91,1.2c-0.463.1-.918,0.211-1.369,0.34-0.146.042-.288,0.09-0.432,0.136-0.3.1-.607,0.192-0.9,0.3-0.166.063-.329,0.128-0.492,0.19-0.273.109-.543,0.219-0.81,0.337-0.167.074-.331,0.148-0.494,0.228-0.263.124-.522,0.255-0.779,0.394-0.155.08-.31,0.16-0.462,0.247-0.271.15-.537,0.314-0.8,0.477-0.13.08-.261,0.156-0.388,0.242q-0.519.336-1.016,0.713c-0.037.025-.078,0.051-0.115,0.08q-0.553.423-1.079,0.877c-0.1.085-.192,0.178-0.289,0.268-0.247.22-.491,0.447-0.727,0.683-0.119.118-.232,0.239-0.348,0.357-0.208.219-.412,0.438-0.61,0.662-0.117.135-.231,0.268-0.344,0.4-0.19.226-.374,0.458-0.553,0.692-0.108.139-.214,0.278-0.318,0.421-0.183.251-.357,0.507-0.529,0.768-0.088.131-.179,0.262-0.265,0.4-0.2.323-.4,0.654-0.583,0.99-0.043.076-.09,0.152-0.132,0.231-0.226.416-.438,0.844-0.637,1.277-0.051.113-.095,0.229-0.145,0.341-0.115.266-.235,0.532-0.341,0.8H193.64v-62.225l1.554,1.065q0.459,0.31.944,0.574c0.065,0.036.134,0.061,0.2,0.093a10.185,10.185,0,0,0,5.55,1.077,10.2,10.2,0,0,0,1.637-.268,10.217,10.217,0,0,0,2.049-.774c0.046-.021.088-0.054,0.133-0.075,0.277-.146.552-0.3,0.813-0.467l0.008-.006a10.58,10.58,0,0,0,.878-0.634c0.043-.034.081-0.074,0.124-0.11a10.724,10.724,0,0,0,2.661-3.292,11,11,0,0,0,.41-9.284h16.823a5.016,5.016,0,0,0,4.935-5.082v-28.392a5.016,5.016,0,0,0-4.935-5.086H207.559a5.016,5.016,0,0,0-4.935,5.086v25.887l-8.983-6.154v-19.733a5.017,5.017,0,0,0-4.936-5.086H168.843a5,5,0,0,0-4.9,4.475l-9.78-6.7V-773.7h126.65v52.015a4.169,4.169,0,0,0,4.109,4.231,4.17,4.17,0,0,0,4.109-4.231v-53.363a7.023,7.023,0,0,0-6.908-7.115h-6.3V-793.92a6.011,6.011,0,0,0-5.914-6.09H165.072a6.011,6.011,0,0,0-5.914,6.09v11.757h-6.3a7.021,7.021,0,0,0-6.907,7.113v127.582l-5.041-3.452a5.636,5.636,0,0,0-6.42,0l-16.8,11.506v-5.709a6.706,6.706,0,0,0-6.6-6.8H91.48a6.707,6.707,0,0,0-6.6,6.8v6.74a6.832,6.832,0,0,0,3.494,5.994v13.058L68.629-605.8a10.906,10.906,0,0,0-3.424,14.037,10.531,10.531,0,0,0,6.664,5.356,10.157,10.157,0,0,0,2.539.323,10.254,10.254,0,0,0,5.792-1.8h0l1.555-1.065v20.882a4.17,4.17,0,0,0,4.109,4.231,4.17,4.17,0,0,0,4.109-4.231v-26.512L137.7-627.277l47.724,32.694v67.857h-52.68v-45.468a5.979,5.979,0,0,0-5.881-6.056H100.022a5.978,5.978,0,0,0-5.881,6.056v45.468H89.974v-15.052a4.173,4.173,0,0,0-4.109-4.232,4.173,4.173,0,0,0-4.109,4.232v15.052H60.47a11.74,11.74,0,0,0-11.55,11.894,11.738,11.738,0,0,0,11.55,11.894H310.22a11.738,11.738,0,0,0,11.549-11.894A11.742,11.742,0,0,0,310.219-526.728Zm-47.362-24.05h-13.3v-21.633h13.3v21.633Zm-52.015-80.371h13.3v21.633h-13.3v-21.633Zm-43.465-160.4H267.605v9.384H167.377v-9.384ZM256.17-526.842c0.04-.053.081-0.1,0.121-0.152,0.168-.207.341-0.411,0.521-0.605,0.016-.019.031-0.038,0.048-0.055,0.193-.205.394-0.4,0.6-0.593,0.049-.048.1-0.093,0.147-0.137,0.21-.188.422-0.373,0.643-0.544,0.018-.017.037-0.03,0.055-0.046,0.209-.161.424-0.315,0.642-0.464,0.053-.036.1-0.072,0.158-0.11,0.233-.15.47-0.3,0.714-0.434,0.041-.022.083-0.047,0.125-0.066,0.219-.124.443-0.236,0.671-0.344,0.05-.023.1-0.048,0.149-0.071,0.254-.114.514-0.22,0.777-0.321,0.056-.021.112-0.038,0.168-0.059,0.243-.088.49-0.167,0.74-0.24,0.036-.009.071-0.021,0.107-0.03,0.274-.076.554-0.141,0.835-0.194,0.066-.015.131-0.029,0.195-0.04,0.288-.051.579-0.1,0.873-0.131a4.087,4.087,0,0,0,3.053-1.961,17.194,17.194,0,0,1,14.746-8.429c0.338,0,.678.013,1.026,0.036l0.076,0.006c0.345,0.025.7,0.057,1.06,0.1l0.046,0a17.672,17.672,0,0,1,14.969,14.992H256.083C256.113-526.766,256.139-526.806,256.17-526.842ZM172.124-631.149h13.3v10.723l-13.3-9.108v-1.615ZM93.1-643.458h16.376v3.407H93.1v-3.407Zm12.882,11.87h0v0.194l-9.387,6.432v-6.626h9.387Zm34.926-3.657a5.654,5.654,0,0,0-2.182-.892c-0.064-.016-0.127-0.035-0.191-0.046a0.4,0.4,0,0,0-.049,0,5.617,5.617,0,0,0-3.343.561,6.365,6.365,0,0,0-.653.379L75.649-594.936a2.154,2.154,0,0,1-1.778.315,2.224,2.224,0,0,1-1.422-1.143,2.325,2.325,0,0,1,.731-2.993l64.516-44.2,64.516,44.2a2.323,2.323,0,0,1,.73,2.993,2.221,2.221,0,0,1-1.421,1.143,2.155,2.155,0,0,1-1.778-.315l-7.939-5.439Zm-38.547,65.458h22.163v43.059H102.359v-43.059ZM310.219-511.4H60.469a3.386,3.386,0,0,1-3.333-3.431,3.387,3.387,0,0,1,3.333-3.43h249.75a3.387,3.387,0,0,1,3.333,3.43A3.386,3.386,0,0,1,310.219-511.4ZM174.672-572.173H142.466a5.382,5.382,0,0,0-5.294,5.454v20.173a4.173,4.173,0,0,0,4.109,4.231h34.575a4.172,4.172,0,0,0,4.109-4.231v-20.173A5.381,5.381,0,0,0,174.672-572.173Zm-2.925,21.395H145.389v-12.93h26.358v12.93Zm16.958-206.313H168.843a5.017,5.017,0,0,0-4.936,5.085v28.392a5.016,5.016,0,0,0,4.936,5.082h19.862a5.016,5.016,0,0,0,4.936-5.082v-28.392h0A5.016,5.016,0,0,0,188.705-757.091Zm-3.282,30.1h-13.3v-21.633h13.3v21.633Zm42-30.1H207.56a5.017,5.017,0,0,0-4.936,5.085v28.392a5.016,5.016,0,0,0,4.936,5.082h19.863a5.016,5.016,0,0,0,4.935-5.082v-28.392h0A5.016,5.016,0,0,0,227.423-757.091Zm-3.283,30.1h-13.3v-21.633h13.3v21.633Zm42-30.1H246.277a5.017,5.017,0,0,0-4.936,5.085v28.392a5.016,5.016,0,0,0,4.936,5.082h19.862a5.016,5.016,0,0,0,4.936-5.082v-28.392A5.017,5.017,0,0,0,266.14-757.091Zm-3.283,30.1h-13.3v-21.633h13.3v21.633Zm-74.152,28.641H168.843a5.017,5.017,0,0,0-4.936,5.084v28.394a5.017,5.017,0,0,0,4.936,5.082h19.862a5.017,5.017,0,0,0,4.936-5.082v-28.394A5.017,5.017,0,0,0,188.705-698.352Zm-3.282,30.1h-13.3v-21.634h13.3v21.634Zm42-30.1H207.56a5.017,5.017,0,0,0-4.936,5.084v28.394a5.017,5.017,0,0,0,4.936,5.082h19.863a5.017,5.017,0,0,0,4.935-5.082v-28.394A5.017,5.017,0,0,0,227.423-698.352Zm-3.283,30.1h-13.3v-21.634h13.3v21.634Zm42-30.1H246.277a5.017,5.017,0,0,0-4.936,5.084v28.394a5.017,5.017,0,0,0,4.936,5.082h19.862a5.017,5.017,0,0,0,4.936-5.082v-28.394A5.017,5.017,0,0,0,266.14-698.352Zm-3.283,30.1h-13.3v-21.634h13.3v21.634Zm3.283,28.641H246.277a5.017,5.017,0,0,0-4.936,5.086v28.392a5.017,5.017,0,0,0,4.936,5.082h19.862a5.017,5.017,0,0,0,4.936-5.082v-28.392A5.018,5.018,0,0,0,266.14-639.614Zm-3.283,30.1h-13.3v-21.633h13.3v21.633Zm-34.608,28.642H206.733a4.173,4.173,0,0,0-4.109,4.231v30.1a4.173,4.173,0,0,0,4.109,4.231h21.516a4.172,4.172,0,0,0,4.109-4.231v-30.1A4.173,4.173,0,0,0,228.249-580.874Zm-4.109,30.1h-13.3v-21.633h13.3v21.633Z"/>
  <path id="Forma_1_copy_3" data-name="Forma 1 copy 3" class="cls-1" d="M-398.827,644.665A155.409,155.409,0,0,0-509.481,598.8a155.407,155.407,0,0,0-110.653,45.865,155.616,155.616,0,0,0-45.834,110.728,155.627,155.627,0,0,0,45.834,110.729,155.41,155.41,0,0,0,110.653,45.864,155.421,155.421,0,0,0,110.654-45.864,155.627,155.627,0,0,0,45.834-110.729A155.628,155.628,0,0,0-398.827,644.665ZM-509.481,902.81c-81.231,0-147.318-66.13-147.318-147.417s66.087-147.419,147.318-147.419,147.319,66.133,147.319,147.419S-428.249,902.81-509.481,902.81Zm9.169-248.958h-9.169a4.584,4.584,0,0,0-4.584,4.588v18.351a4.586,4.586,0,0,0,4.584,4.588h9.169a37.342,37.342,0,0,1,37.289,37.312A37.342,37.342,0,0,1-500.312,756h-14.365a4.586,4.586,0,0,0-4.584,4.588,4.586,4.586,0,0,0,4.584,4.588h14.365a46.526,46.526,0,0,0,46.458-46.489A46.527,46.527,0,0,0-500.312,672.2H-504.9v-9.175h4.584a83.258,83.258,0,0,1,83.135,83.19,83.258,83.258,0,0,1-83.135,83.191h-51.042a4.584,4.584,0,0,0-4.584,4.586v7.276l-43.947-43.976,43.947-43.978v7.276a4.586,4.586,0,0,0,4.584,4.588h18.339a4.585,4.585,0,0,0,4.584-4.588A4.585,4.585,0,0,0-533.015,756h-13.754V742.242A4.585,4.585,0,0,0-549.6,738a4.578,4.578,0,0,0-5,.993l-55.015,55.052a4.591,4.591,0,0,0,0,6.488l55.015,55.052a4.578,4.578,0,0,0,3.243,1.343,4.6,4.6,0,0,0,1.754-.348,4.587,4.587,0,0,0,2.829-4.238V838.582h46.457a92.439,92.439,0,0,0,92.3-92.365A92.44,92.44,0,0,0-500.312,653.852Z"/>
  <path class="cls-1" d="M-1184.88,93.1h-12.63a5.972,5.972,0,0,0-5.93,6.007,5.964,5.964,0,0,0,5.93,6h12.63a5.964,5.964,0,0,0,5.93-6A5.966,5.966,0,0,0-1184.88,93.1Zm1.56,49.616a12.114,12.114,0,0,0-9.65-4.775h-135.48a12.114,12.114,0,0,0-9.65,4.775,12.453,12.453,0,0,0-2.23,10.646l3.16,12.815a12.263,12.263,0,0,0,11.88,9.4h129.16a12.262,12.262,0,0,0,11.88-9.4l3.16-12.813A12.453,12.453,0,0,0-1183.32,142.717Zm-9.27,7.736-3.16,12.809a0.385,0.385,0,0,1-.38.3h-129.16a0.386,0.386,0,0,1-.38-0.3l-3.16-12.811a0.348,0.348,0,0,1,.07-0.343,0.358,0.358,0,0,1,.31-0.154h135.48a0.358,0.358,0,0,1,.31.154A0.348,0.348,0,0,1-1192.59,150.453ZM-1233.15-9.395h-55.12m-21.53,32.029h-45.06a24.99,24.99,0,0,0-23.39,16.6l-15.8,44.06a18.673,18.673,0,0,0-18.33-15.818h-6.32A18.712,18.712,0,0,0-1437.26,86.3a18.712,18.712,0,0,0,18.56,18.816h6.32a18.223,18.223,0,0,0,8.14-1.91l-13.54,17.165a32.02,32.02,0,0,0-6.84,19.76V259.26a12.34,12.34,0,0,0,12.24,12.412h18.96a12.349,12.349,0,0,0,12.25-12.412V233.233h240.92V259.26A12.349,12.349,0,0,0-1128,271.672h18.96a12.34,12.34,0,0,0,12.24-12.412V140.126a32.016,32.016,0,0,0-6.84-19.76l-13.54-17.165a18.223,18.223,0,0,0,8.14,1.91h6.32A18.712,18.712,0,0,0-1084.16,86.3a18.712,18.712,0,0,0-18.56-18.816h-6.32A18.673,18.673,0,0,0-1127.37,83.3l-15.8-44.06a24.987,24.987,0,0,0-23.39-16.6h-45.06M-1412.38,93.1h-6.32a6.766,6.766,0,0,1-6.71-6.806,6.766,6.766,0,0,1,6.71-6.806h6.32a6.768,6.768,0,0,1,6.72,6.806A6.768,6.768,0,0,1-1412.38,93.1Zm188.68-70.467h-74.02m-95.3,236.626a0.4,0.4,0,0,1-.4.4h-18.96a0.4,0.4,0,0,1-.39-0.4V229.486a24.488,24.488,0,0,0,13.03,3.747h6.72V259.26h0Zm202.22-38.039h-139.82V208.01a0.4,0.4,0,0,1,.4-0.4h139.02a0.4,0.4,0,0,1,.4.4v13.211h0Zm82.15,38.039a0.4,0.4,0,0,1-.39.4H-1128a0.4,0.4,0,0,1-.4-0.4V233.233h6.72a24.488,24.488,0,0,0,13.03-3.747V259.26h0Zm-4.24-131.392a19.839,19.839,0,0,1,4.24,12.258V208.01a13.133,13.133,0,0,1-13.03,13.211h-57.27V208.01A12.341,12.341,0,0,0-1191.2,195.6h-139.02a12.348,12.348,0,0,0-12.25,12.411v13.211h-57.27a13.139,13.139,0,0,1-13.03-13.211V140.126a19.9,19.9,0,0,1,4.24-12.258l17.96-22.757h167.78a5.962,5.962,0,0,0,5.92-6.005,5.964,5.964,0,0,0-5.92-6.005h-162.17l17.85-49.758a13.086,13.086,0,0,1,12.25-8.695h188.3a13.079,13.079,0,0,1,12.25,8.695l17.85,49.758h-23.14a5.964,5.964,0,0,0-5.92,6.005,5.964,5.964,0,0,0,5.92,6.005h28.75Zm-2.87-41.573a6.768,6.768,0,0,1,6.72-6.806h6.32a6.766,6.766,0,0,1,6.71,6.806,6.766,6.766,0,0,1-6.71,6.806h-6.32A6.774,6.774,0,0,1-1115.76,86.3Zm-258.7,96.491A12.339,12.339,0,0,0-1386.7,195.2a12.34,12.34,0,0,0,12.24,12.412,12.34,12.34,0,0,0,12.24-12.412A12.339,12.339,0,0,0-1374.46,182.786Zm227.5,0A12.339,12.339,0,0,0-1159.2,195.2a12.34,12.34,0,0,0,12.24,12.412,12.34,12.34,0,0,0,12.24-12.412A12.339,12.339,0,0,0-1146.96,182.786Zm-230.66-51.248a21.9,21.9,0,0,0-21.72,22.019,21.894,21.894,0,0,0,21.72,22.021,21.894,21.894,0,0,0,21.72-22.021A21.9,21.9,0,0,0-1377.62,131.538Zm0,32.028a9.951,9.951,0,0,1-9.87-10.009,9.952,9.952,0,0,1,9.87-10.009,9.954,9.954,0,0,1,9.88,10.009A9.953,9.953,0,0,1-1377.62,163.566Zm233.82-32.028a21.9,21.9,0,0,0-21.72,22.019,21.894,21.894,0,0,0,21.72,22.021,21.894,21.894,0,0,0,21.72-22.021A21.9,21.9,0,0,0-1143.8,131.538Zm0,32.028a9.951,9.951,0,0,1-9.87-10.009,9.946,9.946,0,0,1,9.87-10.009,9.952,9.952,0,0,1,9.87,10.009A9.945,9.945,0,0,1-1143.8,163.566Z"/>
</svg>
