<?xml version="1.0" encoding="iso-8859-1"?>
<!-- Generator: Adobe Illustrator 19.0.0, SVG Export Plug-In . SVG Version: 6.00 Build 0)  -->
<svg version="1.1" id="Layer_1" xmlns="http://www.w3.org/2000/svg" xmlns:xlink="http://www.w3.org/1999/xlink" x="0px" y="0px"
	 viewBox="0 0 512.001 512.001" style="enable-background:new 0 0 512.001 512.001;" xml:space="preserve">
<g>
	<g>
		<path d="M428.767,48.742c-2.074-24.121-23.309-41.995-47.43-39.922c-18.903,1.625-33.965,15.019-38.602,32.347h-31.092
			c-6.257,0-11.329,5.072-11.329,11.329c0,6.258,5.074,11.329,11.329,11.329h31.106c5.373,20.169,24.58,34.197,46.097,32.347
			C412.968,94.098,430.841,72.863,428.767,48.742z"/>
	</g>
</g>
<g>
	<g>
		<path d="M172.816,133.782c-8.759,0-15.861,7.102-15.861,15.861v7.881l34.192,0.13c7.889,0.029,15.219,2.383,21.366,6.396
			c0-14.218,0-27.245,0-30.268H172.816z"/>
	</g>
</g>
<g>
	<g>
		<path d="M308.046,276.881c-19.732,4.927-39.756-7.096-44.682-26.834c-4.921-19.716,7.116-39.761,26.833-44.682l28.388-7.085
			v-48.637c0-8.759-7.102-15.861-15.861-15.861h-39.696c0,9.482,0,63.344,0,70.377l-8.418-8.42l-8.42,8.42l-8.418-8.42l-7.909,7.909
			c-3.142,18.699-19.434,32.916-39.013,32.84l-33.893-0.129v43.19c0,8.759,7.102,15.861,15.861,15.861h129.908
			c8.759,0,15.861-7.102,15.861-15.861v-5.3L308.046,276.881z"/>
	</g>
</g>
<g>
	<g>
		<path d="M491.435,479.751l-37.982-100.703l14.229-90.631c0.173-1.094,0.714,7.094-11.559-152.418
			c-1.401-16.295-15.747-28.369-32.041-26.968l-52.615,4.523c-16.294,1.401-28.368,15.747-26.968,32.041l3.89,45.249l35.157-49.052
			l-22.574,63.427l-66.657,16.636c-10.673,2.664-17.112,13.463-14.46,24.08c2.635,10.563,13.378,17.132,24.08,14.46l76.989-19.215
			c6.195-1.546,11.592-6.125,13.903-12.61l24.928-70.041l-8.039,71.929c-0.987,8.83-10.324,23.13-26.675,27.211l-30.255,7.551
			l1.872,21.772l-32.76,72.49c-0.658,1.455-1.169,2.974-1.522,4.531l-27.025,118.867c-2.918,12.836,5.122,25.605,17.956,28.524
			c12.838,2.918,25.606-5.124,28.524-17.956L368.32,376.92l38.027-84.147l12.571-1.08c-2.78,17.708-10.79,68.725-13.53,86.18
			c-0.641,4.075-0.211,8.248,1.244,12.107l40.203,106.592c4.645,12.315,18.393,18.534,30.71,13.889
			C489.861,505.816,496.08,492.066,491.435,479.751z"/>
	</g>
</g>
<g>
	<g>
		<path d="M191.081,175.409l-61.48-0.233l-33.071-42.259l31.089,22.993v-20.486c0-15.587-12.636-28.222-28.222-28.222H47.715
			c-15.587,0-28.222,12.636-28.222,28.222c0,338.35-1.098-34.775,0.077,352.251c0.04,13.452,10.957,24.327,24.398,24.327
			c0.024,0,0.05,0,0.075-0.001c13.475-0.04,24.366-10.998,24.324-24.474c-0.626-206.273,0.172-192.551,0-194.393h10.439
			l0.015,194.469c0.001,13.476,10.925,24.398,24.402,24.397c13.475-0.001,24.398-10.925,24.397-24.402l-0.002-251.349
			c-6.522-0.025-10.974-0.042-17.116-0.065c-10.157-0.039-18.849-6.274-22.528-15.093L62.41,159.616l39.546,50.532
			c4.064,5.194,10.304,8.286,16.977,8.312l71.984,0.273c11.963,0.046,21.698-9.616,21.744-21.58
			C212.706,185.19,203.056,175.455,191.081,175.409z"/>
	</g>
</g>
<g>
	<g>
		<circle cx="86.25" cy="44.891" r="44.891"/>
	</g>
</g>
<g>
</g>
<g>
</g>
<g>
</g>
<g>
</g>
<g>
</g>
<g>
</g>
<g>
</g>
<g>
</g>
<g>
</g>
<g>
</g>
<g>
</g>
<g>
</g>
<g>
</g>
<g>
</g>
<g>
</g>
</svg>
