<?xml version="1.0" encoding="utf-8"?>
<!-- Generator: Adobe Illustrator 21.0.0, SVG Export Plug-In . SVG Version: 6.00 Build 0)  -->
<svg version="1.1" id="_x31_" xmlns="http://www.w3.org/2000/svg" xmlns:xlink="http://www.w3.org/1999/xlink" x="0px" y="0px"
	 viewBox="0 0 271.1 131.3" style="enable-background:new 0 0 271.1 131.3;" xml:space="preserve">
<style type="text/css">
	.st0{fill-rule:evenodd;clip-rule:evenodd;fill:url(#SVGID_1_);}
	.st1{fill-rule:evenodd;clip-rule:evenodd;fill:url(#SVGID_2_);}
	.st2{fill-rule:evenodd;clip-rule:evenodd;fill:url(#SVGID_3_);}
	.st3{fill-rule:evenodd;clip-rule:evenodd;fill:#266D81;}
	.st4{fill-rule:evenodd;clip-rule:evenodd;fill:#ffffff;}
	.st5{fill:#ffffff;}
	.st6{font-family:sans-serif;}
	.st7{font-size:23.7173px;}
	.st8{fill-rule:evenodd;clip-rule:evenodd;stroke:#000000;stroke-width:0.5669;stroke-miterlimit:22.9256;}
	.st9{fill-rule:evenodd;clip-rule:evenodd;fill:url(#SVGID_4_);}
	.st10{fill-rule:evenodd;clip-rule:evenodd;fill:url(#SVGID_5_);}
	.st11{fill-rule:evenodd;clip-rule:evenodd;fill:url(#SVGID_6_);}
	.st12{fill-rule:evenodd;clip-rule:evenodd;fill:#FFFFFF;}
</style>
<g>
	<linearGradient id="SVGID_1_" gradientUnits="userSpaceOnUse" x1="137.0386" y1="58.1767" x2="137.0386" y2="75.4076">
		<stop  offset="0" style="stop-color:#1B5C6D"/>
		<stop  offset="1" style="stop-color:#58B1C8"/>
	</linearGradient>
	<polygon class="st0" points="157.8,79 116.2,79 127.5,60.3 146.6,60.3 	"/>
	<linearGradient id="SVGID_2_" gradientUnits="userSpaceOnUse" x1="130.4235" y1="14.1355" x2="102.2014" y2="63.0173">
		<stop  offset="0" style="stop-color:#1B5C6D"/>
		<stop  offset="1" style="stop-color:#58B1C8"/>
	</linearGradient>
	<polygon class="st1" points="108.1,79 76.1,79 121,4.2 153,4.2 	"/>
	<linearGradient id="SVGID_3_" gradientUnits="userSpaceOnUse" x1="154.061" y1="31.5553" x2="175.828" y2="69.2562">
		<stop  offset="0" style="stop-color:#1B5C6D"/>
		<stop  offset="0.1358" style="stop-color:#206376"/>
		<stop  offset="0.3875" style="stop-color:#2D778C"/>
		<stop  offset="0.7247" style="stop-color:#4196AD"/>
		<stop  offset="1" style="stop-color:#58B1C8"/>
	</linearGradient>
	<polygon class="st2" points="166,79 198,79 155.1,7.6 139.1,34.2 	"/>
	<polygon class="st3" points="142.4,53.3 139.7,48.9 134.3,48.8 131.7,53.3 	"/>
	<path class="st4" d="M144.1,121.8v-1.3h1.2v1.3h1.3v1.1h-1.3v2.9c0,0.8,0.1,1.2,1,1.2c0.1,0,0.2,0,0.3,0h0.2v1.1l-0.1,0
		c-0.1,0-0.4,0-0.6,0c-1.4,0-1.9-1-1.9-2.3v-3h-0.7v-1.1H144.1L144.1,121.8z M148.7,122.3c0.4-0.4,1-0.7,1.6-0.7
		c1.5,0,2.3,1.1,2.3,2.6v3.9h-1.2v-3.9c0-0.8-0.5-1.4-1.3-1.4c-0.9,0-1.4,0.7-1.4,1.5v3.8h-1.2v-8.7h1.2V122.3L148.7,122.3z
		 M154.7,125.3c0.1,1.1,0.8,1.8,2,1.8c0.7,0,1.3-0.3,1.7-0.9l0.1-0.1l0.8,0.6l-0.1,0.1c-0.5,0.9-1.6,1.4-2.6,1.4
		c-1.9,0-3.2-1.4-3.2-3.3c0-1.8,1.2-3.3,3.1-3.3c1.9,0,3,1.4,3,3.2c0,0.1,0,0.2,0,0.3l0,0.1H154.7L154.7,125.3z M164.4,122.4
		c0.5-0.5,1.2-0.8,1.9-0.8c1.9,0,3.1,1.5,3.1,3.3c0,1.8-1.1,3.3-3,3.3c-0.7,0-1.5-0.3-2-0.8v2.8h-1.2v-8.5h1.2V122.4L164.4,122.4z
		 M169.9,124.9c0-1.9,1.4-3.3,3.3-3.3c1.9,0,3.3,1.4,3.3,3.3c0,1.9-1.4,3.3-3.3,3.3C171.3,128.2,169.9,126.8,169.9,124.9
		L169.9,124.9z M181.4,123.7l-1.5,4.4h-1.2l-2.1-6.3h1.3l1.5,4.6c0.5-1.5,1-3,1.5-4.5l0-0.1h1.1l0,0.1c0.5,1.5,1,3,1.5,4.5l1.5-4.6
		h1.3l-2.1,6.3h-1.2L181.4,123.7L181.4,123.7z M187.6,125.3c0.1,1.1,0.8,1.8,2,1.8c0.7,0,1.3-0.3,1.7-0.9l0.1-0.1l0.8,0.6l-0.1,0.1
		c-0.5,0.9-1.6,1.4-2.6,1.4c-1.9,0-3.2-1.4-3.2-3.3c0-1.8,1.2-3.3,3.1-3.3c1.9,0,3,1.4,3,3.2c0,0.1,0,0.2,0,0.3l0,0.1H187.6
		L187.6,125.3z M194.5,122.4c0.4-0.5,1-0.7,1.6-0.7h0.2v1.2h-0.2c-1.3,0-1.6,1.1-1.6,2.2v3h-1.2v-6.3h1.2V122.4L194.5,122.4z
		 M199.5,124.9c0-1.9,1.4-3.3,3.3-3.3c1.9,0,3.3,1.4,3.3,3.3c0,1.9-1.4,3.3-3.3,3.3C200.9,128.2,199.5,126.8,199.5,124.9
		L199.5,124.9z M207.2,122.9h-0.7v-1.1h0.7v-0.2c0-1.3,0.7-2.2,2-2.2c0.1,0,0.3,0,0.4,0l0.1,0v1.1h-0.2c-0.1,0-0.2,0-0.3,0
		c-0.7,0-0.9,0.4-0.9,1v0.2h1.3v1.1h-1.3v5.2h-1.2V122.9L207.2,122.9z M214.2,125.3c0.1,1.1,0.8,1.8,2,1.8c0.7,0,1.3-0.3,1.7-0.9
		l0.1-0.1l0.8,0.6l-0.1,0.1c-0.5,0.9-1.6,1.4-2.6,1.4c-1.9,0-3.2-1.4-3.2-3.3c0-1.8,1.2-3.3,3.1-3.3c1.9,0,3,1.4,3,3.2
		c0,0.1,0,0.2,0,0.3l0,0.1H214.2L214.2,125.3z M221.9,125.8l1.7,2.3h1.4l-2.4-3.3l2.2-3.1h-1.5l-1.5,2.1l-1.5-2.1H219l2.2,3.1
		l-2.4,3.3h1.4L221.9,125.8L221.9,125.8z M226.6,122.4c0.5-0.5,1.2-0.8,1.9-0.8c1.9,0,3.1,1.5,3.1,3.3c0,1.8-1.1,3.3-3,3.3
		c-0.7,0-1.5-0.3-2-0.8v2.8h-1.2v-8.5h1.2V122.4L226.6,122.4z M233.3,125.3c0.1,1.1,0.8,1.8,2,1.8c0.7,0,1.3-0.3,1.7-0.9l0.1-0.1
		l0.8,0.6l-0.1,0.1c-0.5,0.9-1.6,1.4-2.6,1.4c-1.9,0-3.2-1.4-3.2-3.3c0-1.8,1.2-3.3,3.1-3.3c1.9,0,3,1.4,3,3.2c0,0.1,0,0.2,0,0.3
		l0,0.1H233.3L233.3,125.3z M240.2,122.4c0.4-0.5,1-0.7,1.6-0.7h0.2v1.2h-0.2c-1.3,0-1.6,1.1-1.6,2.2v3H239v-6.3h1.2V122.4
		L240.2,122.4z M242.7,128.1v-6.3h1.2v6.3H242.7L242.7,128.1z M242.5,120.4c0-0.4,0.3-0.8,0.8-0.8c0.4,0,0.8,0.3,0.8,0.8
		c0,0.4-0.3,0.8-0.8,0.8C242.9,121.2,242.5,120.8,242.5,120.4L242.5,120.4z M246.1,125.3c0.1,1.1,0.8,1.8,2,1.8
		c0.7,0,1.3-0.3,1.7-0.9l0.1-0.1l0.8,0.6l-0.1,0.1c-0.5,0.9-1.6,1.4-2.6,1.4c-1.9,0-3.2-1.4-3.2-3.3c0-1.8,1.2-3.3,3.1-3.3
		c1.9,0,3,1.4,3,3.2c0,0.1,0,0.2,0,0.3l0,0.1H246.1L246.1,125.3z M252.9,122.3c0.4-0.4,1-0.7,1.6-0.7c1.5,0,2.3,1.1,2.3,2.6v3.9
		h-1.2v-3.9c0-0.8-0.4-1.4-1.3-1.4c-0.9,0-1.4,0.7-1.4,1.5v3.8h-1.2v-6.3h1.2V122.3L252.9,122.3z M263.2,122.6l-0.4,1.1l-0.2-0.2
		c-0.4-0.4-1-0.7-1.7-0.7c-1.2,0-2,1-2,2.2c0,1.2,0.8,2.2,2,2.2c0.7,0,1.2-0.3,1.7-0.8l0.2-0.2l0.4,1.1l-0.1,0.1
		c-0.6,0.6-1.4,0.9-2.2,0.9c-1.9,0-3.2-1.4-3.2-3.3c0-1.8,1.4-3.3,3.2-3.3C261.7,121.6,262.5,121.9,263.2,122.6L263.2,122.6
		L263.2,122.6z M264.8,125.3c0.1,1.1,0.8,1.8,2,1.8c0.7,0,1.3-0.3,1.7-0.9l0.1-0.1l0.8,0.6l-0.1,0.1c-0.5,0.9-1.6,1.4-2.6,1.4
		c-1.9,0-3.2-1.4-3.2-3.3c0-1.8,1.2-3.3,3.1-3.3c1.9,0,3,1.4,3,3.2c0,0.1,0,0.2,0,0.3l0,0.1H264.8L264.8,125.3z M154.7,124.3h3.5
		c-0.1-0.9-0.8-1.6-1.8-1.6C155.5,122.7,154.8,123.4,154.7,124.3L154.7,124.3z M164.4,124.9c0,1.2,0.7,2.2,1.9,2.2
		c1.2,0,1.9-1,1.9-2.2c0-1.2-0.7-2.2-1.9-2.2C165.1,122.8,164.4,123.8,164.4,124.9L164.4,124.9z M171.2,124.9c0,1.2,0.8,2.2,2,2.2
		c1.2,0,2.1-1,2.1-2.2c0-1.2-0.8-2.2-2.1-2.2C172,122.8,171.2,123.7,171.2,124.9L171.2,124.9z M187.7,124.3h3.5
		c-0.1-0.9-0.8-1.6-1.8-1.6C188.5,122.7,187.8,123.4,187.7,124.3L187.7,124.3z M200.8,124.9c0,1.2,0.8,2.2,2,2.2
		c1.2,0,2.1-1,2.1-2.2c0-1.2-0.8-2.2-2.1-2.2C201.6,122.8,200.8,123.7,200.8,124.9L200.8,124.9z M214.2,124.3h3.5
		c-0.1-0.9-0.8-1.6-1.8-1.6C215,122.7,214.3,123.4,214.2,124.3L214.2,124.3z M226.6,124.9c0,1.2,0.7,2.2,1.9,2.2
		c1.2,0,1.9-1,1.9-2.2c0-1.2-0.7-2.2-1.9-2.2C227.3,122.8,226.6,123.8,226.6,124.9L226.6,124.9z M233.4,124.3h3.5
		c-0.1-0.9-0.8-1.6-1.8-1.6C234.2,122.7,233.5,123.4,233.4,124.3L233.4,124.3z M246.1,124.3h3.5c-0.1-0.9-0.8-1.6-1.8-1.6
		C246.9,122.7,246.2,123.4,246.1,124.3L246.1,124.3z M264.9,124.3h3.5c-0.1-0.9-0.8-1.6-1.8-1.6C265.7,122.7,265,123.4,264.9,124.3z
		"/>
	<text transform="matrix(0.9326 0 0 1 3.3922 114.7463)"><tspan x="0" y="0" class="st5 st6 st7">A</tspan><tspan x="15.8" y="0" class="st5 st6 st7">UTO FINANCE LEASING</tspan></text>
</g>
<rect x="246.7" y="353.1" class="st8" width="251.1" height="118.1"/>
<g>
	<linearGradient id="SVGID_4_" gradientUnits="userSpaceOnUse" x1="372.6703" y1="406.0116" x2="372.6703" y2="417.6355">
		<stop  offset="0" style="stop-color:#1B5C6D"/>
		<stop  offset="1" style="stop-color:#58B1C8"/>
	</linearGradient>
	<polygon class="st9" points="386.7,420.1 358.6,420.1 366.2,407.4 379.1,407.4 	"/>
	<linearGradient id="SVGID_5_" gradientUnits="userSpaceOnUse" x1="368.2078" y1="376.3016" x2="349.1693" y2="409.2771">
		<stop  offset="0" style="stop-color:#1B5C6D"/>
		<stop  offset="1" style="stop-color:#58B1C8"/>
	</linearGradient>
	<polygon class="st10" points="353.1,420.1 331.6,420.1 361.9,369.6 383.5,369.6 	"/>
	<linearGradient id="SVGID_6_" gradientUnits="userSpaceOnUse" x1="384.1535" y1="388.053" x2="398.8374" y2="413.4858">
		<stop  offset="0" style="stop-color:#1B5C6D"/>
		<stop  offset="0.1358" style="stop-color:#206376"/>
		<stop  offset="0.3875" style="stop-color:#2D778C"/>
		<stop  offset="0.7247" style="stop-color:#4196AD"/>
		<stop  offset="1" style="stop-color:#58B1C8"/>
	</linearGradient>
	<polygon class="st11" points="392.2,420.1 413.8,420.1 384.8,371.9 374,389.8 	"/>
	<polygon class="st3" points="376.3,402.7 374.5,399.7 370.9,399.7 369,402.7 	"/>
	<path class="st12" d="M377.5,448.9v-0.8h0.8v0.8h0.9v0.7h-0.9v2c0,0.5,0.1,0.8,0.6,0.8c0.1,0,0.1,0,0.2,0h0.1v0.7l-0.1,0
		c-0.1,0-0.3,0-0.4,0c-1,0-1.3-0.7-1.3-1.5v-2H377v-0.7H377.5L377.5,448.9z M380.5,449.3c0.3-0.3,0.7-0.5,1.1-0.5
		c1,0,1.5,0.8,1.5,1.7v2.6h-0.8v-2.7c0-0.5-0.3-0.9-0.9-0.9c-0.6,0-1,0.4-1,1v2.6h-0.8v-5.8h0.8V449.3L380.5,449.3z M384.6,451.3
		c0,0.8,0.6,1.2,1.3,1.2c0.5,0,0.9-0.2,1.2-0.6l0.1-0.1l0.6,0.4l0,0.1c-0.4,0.6-1.1,0.9-1.8,0.9c-1.3,0-2.2-0.9-2.2-2.2
		c0-1.2,0.8-2.2,2.1-2.2c1.3,0,2,0.9,2,2.2c0,0.1,0,0.1,0,0.2l0,0.1H384.6L384.6,451.3z M391.2,449.4c0.3-0.4,0.8-0.6,1.3-0.6
		c1.3,0,2.1,1,2.1,2.2c0,1.2-0.8,2.2-2,2.2c-0.5,0-1-0.2-1.3-0.6v1.9h-0.8v-5.7h0.8V449.4L391.2,449.4z M394.9,451
		c0-1.3,0.9-2.2,2.2-2.2c1.3,0,2.2,1,2.2,2.2c0,1.3-0.9,2.2-2.2,2.2C395.8,453.3,394.9,452.3,394.9,451L394.9,451z M402.6,450.2
		l-1,3h-0.8l-1.4-4.3h0.9l1,3.1c0.3-1,0.7-2,1-3l0-0.1h0.8l0,0.1c0.3,1,0.6,2,1,3l1-3.1h0.9l-1.4,4.3h-0.8L402.6,450.2L402.6,450.2z
		 M406.8,451.3c0,0.8,0.6,1.2,1.3,1.2c0.5,0,0.9-0.2,1.2-0.6l0.1-0.1l0.6,0.4l0,0.1c-0.4,0.6-1.1,0.9-1.8,0.9
		c-1.3,0-2.2-0.9-2.2-2.2c0-1.2,0.8-2.2,2.1-2.2c1.3,0,2,0.9,2,2.2c0,0.1,0,0.1,0,0.2l0,0.1H406.8L406.8,451.3z M411.4,449.3
		c0.3-0.3,0.7-0.5,1.1-0.5h0.1v0.8h-0.1c-0.9,0-1.1,0.7-1.1,1.5v2h-0.8v-4.3h0.8V449.3L411.4,449.3z M414.8,451
		c0-1.3,0.9-2.2,2.2-2.2c1.3,0,2.2,1,2.2,2.2c0,1.3-0.9,2.2-2.2,2.2C415.8,453.3,414.8,452.3,414.8,451L414.8,451z M420,449.6h-0.5
		v-0.7h0.5v-0.1c0-0.9,0.5-1.5,1.4-1.5c0.1,0,0.2,0,0.3,0l0.1,0v0.7h-0.1c-0.1,0-0.1,0-0.2,0c-0.5,0-0.6,0.3-0.6,0.7v0.1h0.9v0.7
		h-0.9v3.5H420V449.6L420,449.6z M424.7,451.3c0,0.8,0.6,1.2,1.3,1.2c0.5,0,0.9-0.2,1.2-0.6l0.1-0.1l0.6,0.4l0,0.1
		c-0.4,0.6-1.1,0.9-1.8,0.9c-1.3,0-2.2-0.9-2.2-2.2c0-1.2,0.8-2.2,2.1-2.2c1.3,0,2,0.9,2,2.2c0,0.1,0,0.1,0,0.2l0,0.1H424.7
		L424.7,451.3z M429.9,451.6l1.1,1.6h1l-1.6-2.2l1.5-2.1h-1l-1,1.4l-1-1.4h-1l1.5,2.1l-1.6,2.2h1L429.9,451.6L429.9,451.6z
		 M433.1,449.4c0.3-0.4,0.8-0.6,1.3-0.6c1.3,0,2.1,1,2.1,2.2c0,1.2-0.8,2.2-2,2.2c-0.5,0-1-0.2-1.3-0.6v1.9h-0.8v-5.7h0.8V449.4
		L433.1,449.4z M437.6,451.3c0,0.8,0.6,1.2,1.3,1.2c0.5,0,0.9-0.2,1.2-0.6l0.1-0.1l0.6,0.4l0,0.1c-0.4,0.6-1.1,0.9-1.8,0.9
		c-1.3,0-2.2-0.9-2.2-2.2c0-1.2,0.8-2.2,2.1-2.2c1.3,0,2,0.9,2,2.2c0,0.1,0,0.1,0,0.2l0,0.1H437.6L437.6,451.3z M442.3,449.3
		c0.3-0.3,0.7-0.5,1.1-0.5h0.1v0.8h-0.1c-0.9,0-1.1,0.7-1.1,1.5v2h-0.8v-4.3h0.8V449.3L442.3,449.3z M444,453.2v-4.3h0.8v4.3H444
		L444,453.2z M443.8,448c0-0.3,0.2-0.5,0.5-0.5c0.3,0,0.5,0.2,0.5,0.5c0,0.3-0.2,0.5-0.5,0.5C444.1,448.5,443.8,448.3,443.8,448
		L443.8,448z M446.2,451.3c0,0.8,0.6,1.2,1.3,1.2c0.5,0,0.9-0.2,1.2-0.6l0.1-0.1l0.6,0.4l0,0.1c-0.4,0.6-1.1,0.9-1.8,0.9
		c-1.3,0-2.2-0.9-2.2-2.2c0-1.2,0.8-2.2,2.1-2.2c1.3,0,2,0.9,2,2.2c0,0.1,0,0.1,0,0.2l0,0.1H446.2L446.2,451.3z M450.8,449.3
		c0.3-0.3,0.7-0.5,1.1-0.5c1,0,1.5,0.8,1.5,1.7v2.6h-0.8v-2.7c0-0.5-0.3-0.9-0.9-0.9c-0.6,0-0.9,0.4-0.9,1v2.6H450v-4.3h0.8V449.3
		L450.8,449.3z M457.8,449.4l-0.3,0.7l-0.1-0.1c-0.3-0.3-0.7-0.5-1.1-0.5c-0.8,0-1.3,0.7-1.3,1.5c0,0.8,0.6,1.5,1.4,1.5
		c0.5,0,0.8-0.2,1.1-0.5l0.1-0.1l0.3,0.7l0,0c-0.4,0.4-1,0.6-1.5,0.6c-1.3,0-2.2-1-2.2-2.2c0-1.2,0.9-2.2,2.2-2.2
		C456.8,448.8,457.3,449,457.8,449.4L457.8,449.4L457.8,449.4z M458.9,451.3c0,0.8,0.6,1.2,1.3,1.2c0.5,0,0.9-0.2,1.2-0.6l0.1-0.1
		l0.6,0.4l0,0.1c-0.4,0.6-1.1,0.9-1.8,0.9c-1.3,0-2.2-0.9-2.2-2.2c0-1.2,0.8-2.2,2.1-2.2c1.3,0,2,0.9,2,2.2c0,0.1,0,0.1,0,0.2l0,0.1
		H458.9L458.9,451.3z M384.6,450.6h2.4c-0.1-0.6-0.5-1.1-1.2-1.1C385.2,449.6,384.7,450,384.6,450.6L384.6,450.6z M391.2,451
		c0,0.8,0.4,1.5,1.3,1.5c0.8,0,1.3-0.7,1.3-1.5c0-0.8-0.5-1.5-1.3-1.5C391.6,449.6,391.2,450.3,391.2,451L391.2,451z M395.7,451
		c0,0.8,0.5,1.5,1.4,1.5c0.8,0,1.4-0.6,1.4-1.5c0-0.8-0.6-1.5-1.4-1.5C396.2,449.6,395.7,450.2,395.7,451L395.7,451z M406.8,450.6
		h2.4c-0.1-0.6-0.5-1.1-1.2-1.1C407.4,449.6,406.9,450,406.8,450.6L406.8,450.6z M415.7,451c0,0.8,0.5,1.5,1.4,1.5
		c0.8,0,1.4-0.6,1.4-1.5c0-0.8-0.6-1.5-1.4-1.5C416.2,449.6,415.7,450.2,415.7,451L415.7,451z M424.7,450.6h2.4
		c-0.1-0.6-0.5-1.1-1.2-1.1C425.3,449.6,424.8,450,424.7,450.6L424.7,450.6z M433.1,451c0,0.8,0.4,1.5,1.3,1.5
		c0.8,0,1.3-0.7,1.3-1.5c0-0.8-0.5-1.5-1.3-1.5C433.5,449.6,433.1,450.3,433.1,451L433.1,451z M437.7,450.6h2.4
		c-0.1-0.6-0.5-1.1-1.2-1.1C438.2,449.6,437.8,450,437.7,450.6L437.7,450.6z M446.2,450.6h2.4c-0.1-0.6-0.5-1.1-1.2-1.1
		C446.8,449.6,446.3,450,446.2,450.6L446.2,450.6z M458.9,450.6h2.4c-0.1-0.6-0.5-1.1-1.2-1.1C459.5,449.6,459,450,458.9,450.6z"/>
	<text transform="matrix(0.9326 0 0 1 282.5138 444.1734)"><tspan x="0" y="0" class="st6" style="fill:#FFFFFF; font-size:15.9996px;">A</tspan><tspan x="10.7" y="0" class="st6" style="fill:#FFFFFF; font-size:15.9996px;">UTO FINANCE LEASING</tspan></text>
</g>
</svg>
