<?xml version="1.0" encoding="iso-8859-1"?>
<!-- Generator: Adobe Illustrator 19.0.0, SVG Export Plug-In . SVG Version: 6.00 Build 0)  -->
<svg version="1.1" id="Layer_1" xmlns="http://www.w3.org/2000/svg" xmlns:xlink="http://www.w3.org/1999/xlink" x="0px" y="0px"
	 viewBox="0 0 512 512" style="enable-background:new 0 0 512 512;" xml:space="preserve">
<g>
	<g>
		<path d="M15.673,399.151V90.906H122.04V18.808H73.454v56.425H0v339.592h316.082v-15.673H15.673z M89.128,34.482h17.24v40.751
			h-17.24V34.482z"/>
	</g>
</g>
<g>
	<g>
		<path d="M360.174,75.233V18.808h-48.587v56.425H145.55v15.673h272.409v47.02H39.184V153.6h394.449V75.233H360.174z
			 M344.501,75.233h-17.24V34.482h17.24V75.233z"/>
	</g>
</g>
<g>
	<g>
		<path d="M433.633,321.156V177.11h-15.673v144.045c-43.872,3.975-78.367,40.942-78.367,85.832
			c0,47.533,38.672,86.204,86.204,86.204S512,454.521,512,406.988C512,362.098,477.505,325.13,433.633,321.156z M425.796,477.518
			c-38.891,0-70.531-31.64-70.531-70.531c0-38.891,31.639-70.531,70.531-70.531s70.531,31.64,70.531,70.531
			C496.327,445.879,464.687,477.518,425.796,477.518z"/>
	</g>
</g>
<g>
	<g>
		<polygon points="433.633,399.151 433.633,359.967 417.959,359.967 417.959,414.824 472.816,414.824 472.816,399.151 		"/>
	</g>
</g>
<g>
	<g>
		<path d="M156.733,179.722v47.02h47.02v-47.02H156.733z M188.08,211.069h-15.673v-15.673h15.673V211.069z"/>
	</g>
</g>
<g>
	<g>
		<path d="M229.875,179.722v47.02h47.02v-47.02H229.875z M261.222,211.069h-15.673v-15.673h15.673V211.069z"/>
	</g>
</g>
<g>
	<g>
		<path d="M303.018,179.722v47.02h47.02v-47.02H303.018z M334.365,211.069h-15.673v-15.673h15.673V211.069z"/>
	</g>
</g>
<g>
	<g>
		<path d="M83.59,252.865v47.02h47.02v-47.02H83.59z M114.937,284.212H99.263v-15.673h15.673V284.212z"/>
	</g>
</g>
<g>
	<g>
		<path d="M156.733,252.865v47.02h47.02v-47.02H156.733z M188.08,284.212h-15.673v-15.673h15.673V284.212z"/>
	</g>
</g>
<g>
	<g>
		<path d="M229.875,252.865v47.02h47.02v-47.02H229.875z M261.222,284.212h-15.673v-15.673h15.673V284.212z"/>
	</g>
</g>
<g>
	<g>
		<path d="M303.018,252.865v47.02h47.02v-47.02H303.018z M334.365,284.212h-15.673v-15.673h15.673V284.212z"/>
	</g>
</g>
<g>
	<g>
		<path d="M83.59,326.008v47.02h47.02v-47.02H83.59z M114.937,357.355H99.263v-15.673h15.673V357.355z"/>
	</g>
</g>
<g>
	<g>
		<path d="M156.733,326.008v47.02h47.02v-47.02H156.733z M188.08,357.355h-15.673v-15.673h15.673V357.355z"/>
	</g>
</g>
<g>
	<g>
		<path d="M229.875,326.008v47.02h0h47.02v-47.02H229.875z M261.222,357.355h-15.673v-15.673h15.673V357.355z"/>
	</g>
</g>
<g>
</g>
<g>
</g>
<g>
</g>
<g>
</g>
<g>
</g>
<g>
</g>
<g>
</g>
<g>
</g>
<g>
</g>
<g>
</g>
<g>
</g>
<g>
</g>
<g>
</g>
<g>
</g>
<g>
</g>
</svg>
