<?xml version="1.0" encoding="iso-8859-1"?>
<!-- Generator: Adobe Illustrator 19.0.0, SVG Export Plug-In . SVG Version: 6.00 Build 0)  -->
<svg version="1.1" id="Layer_1" xmlns="http://www.w3.org/2000/svg" xmlns:xlink="http://www.w3.org/1999/xlink" x="0px" y="0px"
	 viewBox="0 0 512 512" style="enable-background:new 0 0 512 512;" xml:space="preserve">
<g>
	<g>
		<path d="M85.333,460.8c-5.12,0-8.533,3.413-8.533,8.533s3.413,8.533,8.533,8.533c5.12,0,8.533-3.413,8.533-8.533
			S90.453,460.8,85.333,460.8z"/>
	</g>
</g>
<g>
	<g>
		<path d="M51.2,460.8c-5.12,0-8.533,3.413-8.533,8.533s3.413,8.533,8.533,8.533s8.533-3.413,8.533-8.533S56.32,460.8,51.2,460.8z"
			/>
	</g>
</g>
<g>
	<g>
		<path d="M119.467,460.8c-5.12,0-8.533,3.413-8.533,8.533s3.413,8.533,8.533,8.533s8.533-3.413,8.533-8.533
			S124.587,460.8,119.467,460.8z"/>
	</g>
</g>
<g>
	<g>
		<path d="M153.6,460.8c-5.12,0-8.533,3.413-8.533,8.533s3.413,8.533,8.533,8.533c5.12,0,8.533-3.413,8.533-8.533
			S158.72,460.8,153.6,460.8z"/>
	</g>
</g>
<g>
	<g>
		<path d="M187.733,460.8c-5.12,0-8.533,3.413-8.533,8.533s3.413,8.533,8.533,8.533s8.533-3.413,8.533-8.533
			S192.853,460.8,187.733,460.8z"/>
	</g>
</g>
<g>
	<g>
		<path d="M221.867,460.8c-5.12,0-8.533,3.413-8.533,8.533s3.413,8.533,8.533,8.533s8.533-3.413,8.533-8.533
			S226.987,460.8,221.867,460.8z"/>
	</g>
</g>
<g>
	<g>
		<path d="M256,460.8c-5.12,0-8.533,3.413-8.533,8.533s3.413,8.533,8.533,8.533s8.533-3.413,8.533-8.533S261.12,460.8,256,460.8z"/>
	</g>
</g>
<g>
	<g>
		<path d="M290.133,460.8c-5.12,0-8.533,3.413-8.533,8.533s3.413,8.533,8.533,8.533s8.533-3.413,8.533-8.533
			S295.253,460.8,290.133,460.8z"/>
	</g>
</g>
<g>
	<g>
		<path d="M324.267,460.8c-5.12,0-8.533,3.413-8.533,8.533s3.413,8.533,8.533,8.533s8.533-3.413,8.533-8.533
			S329.387,460.8,324.267,460.8z"/>
	</g>
</g>
<g>
	<g>
		<path d="M358.4,460.8c-5.12,0-8.533,3.413-8.533,8.533s3.413,8.533,8.533,8.533s8.533-3.413,8.533-8.533S363.52,460.8,358.4,460.8
			z"/>
	</g>
</g>
<g>
	<g>
		<path d="M392.533,460.8c-5.12,0-8.533,3.413-8.533,8.533s3.413,8.533,8.533,8.533c5.12,0,8.533-3.413,8.533-8.533
			S397.653,460.8,392.533,460.8z"/>
	</g>
</g>
<g>
	<g>
		<path d="M426.667,460.8c-5.12,0-8.533,3.413-8.533,8.533s3.413,8.533,8.533,8.533s8.533-3.413,8.533-8.533
			S431.787,460.8,426.667,460.8z"/>
	</g>
</g>
<g>
	<g>
		<path d="M460.8,460.8c-5.12,0-8.533,3.413-8.533,8.533s3.413,8.533,8.533,8.533c5.12,0,8.533-3.413,8.533-8.533
			S465.92,460.8,460.8,460.8z"/>
	</g>
</g>
<g>
	<g>
		<path d="M469.333,426.667H42.667C18.773,426.667,0,445.44,0,469.333C0,493.227,18.773,512,42.667,512h426.667
			C493.227,512,512,493.227,512,469.333C512,445.44,493.227,426.667,469.333,426.667z M469.333,494.933H42.667
			c-14.507,0-25.6-11.093-25.6-25.6c0-14.507,11.093-25.6,25.6-25.6h426.667c14.507,0,25.6,11.093,25.6,25.6
			C494.933,483.84,483.84,494.933,469.333,494.933z"/>
	</g>
</g>
<g>
	<g>
		<path d="M128.853,307.2h-87.04c-13.653,0-24.747,11.093-24.747,24.747v111.787H153.6V331.947
			C153.6,318.293,142.507,307.2,128.853,307.2z M136.533,426.667h-102.4v-94.72c0-4.267,3.413-7.68,7.68-7.68h87.04
			c4.267,0,7.68,3.413,7.68,7.68V426.667z"/>
	</g>
</g>
<g>
	<g>
		<path d="M299.52,307.2h-87.04c-13.653,0-24.747,11.093-24.747,24.747v111.787h136.533V331.947
			C324.267,318.293,313.173,307.2,299.52,307.2z M307.2,426.667H204.8v-94.72c0-4.267,3.413-7.68,7.68-7.68h87.04
			c4.267,0,7.68,3.413,7.68,7.68V426.667z"/>
	</g>
</g>
<g>
	<g>
		<path d="M470.187,307.2h-87.04c-13.653,0-24.747,11.093-24.747,24.747v111.787h136.533V331.947
			C494.933,318.293,483.84,307.2,470.187,307.2z M477.867,426.667h-102.4v-94.72c0-4.267,3.413-7.68,7.68-7.68h87.04
			c4.267,0,7.68,3.413,7.68,7.68V426.667z"/>
	</g>
</g>
<g>
	<g>
		<path d="M179.2,51.2c-28.16,0-51.2,23.04-51.2,51.2c0,28.16,23.04,51.2,51.2,51.2s51.2-23.04,51.2-51.2
			C230.4,74.24,207.36,51.2,179.2,51.2z M179.2,136.533c-18.773,0-34.133-15.36-34.133-34.133c0-18.773,15.36-34.133,34.133-34.133
			s34.133,15.36,34.133,34.133C213.333,121.173,197.973,136.533,179.2,136.533z"/>
	</g>
</g>
<g>
	<g>
		<path d="M366.933,51.2c-28.16,0-51.2,23.04-51.2,51.2c0,28.16,23.04,51.2,51.2,51.2s51.2-23.04,51.2-51.2
			C418.133,74.24,395.093,51.2,366.933,51.2z M366.933,136.533c-18.773,0-34.133-15.36-34.133-34.133
			c0-18.773,15.36-34.133,34.133-34.133s34.133,15.36,34.133,34.133C401.067,121.173,385.707,136.533,366.933,136.533z"/>
	</g>
</g>
<g>
	<g>
		<path d="M366.08,188.587c-23.893,0-42.667,18.773-42.667,42.667c0,14.507,2.56,24.747,11.093,31.573
			c3.413,3.413,8.533,2.56,11.947-0.853c4.267-4.267,4.267-9.387,0.853-11.947c-4.267-4.267-5.973-9.387-5.973-19.627
			c0-14.507,11.093-25.6,25.6-25.6s25.6,11.093,25.6,25.6c0,10.24-1.707,15.36-5.973,19.627c-3.413,3.413-4.267,8.533-0.853,11.947
			c3.413,3.413,8.533,4.267,11.947,0.853c8.533-7.68,11.093-17.92,11.093-31.573C408.747,207.36,389.973,188.587,366.08,188.587z"/>
	</g>
</g>
<g>
	<g>
		<path d="M366.933,136.533c-5.12,0-8.533,3.413-8.533,8.533v51.2c0,5.12,3.413,8.533,8.533,8.533s8.533-3.413,8.533-8.533v-51.2
			C375.467,139.947,372.053,136.533,366.933,136.533z"/>
	</g>
</g>
<g>
	<g>
		<path d="M332.8,102.4c0-7.68,2.56-14.507,6.827-20.48c0.853-0.853,1.707-3.413,1.707-5.12c0-5.12-3.413-8.533-8.533-8.533H213.333
			c-6.827,0-11.093,7.68-6.827,13.653c4.267,5.973,6.827,12.8,6.827,20.48s-2.56,14.507-6.827,20.48
			c-4.267,5.973,0,13.653,6.827,13.653H332.8c5.12,0,8.533-3.413,8.533-8.533c0-1.707-0.853-3.413-1.707-5.12
			C335.36,116.907,332.8,110.08,332.8,102.4z M318.293,119.467h-91.307c1.707-5.12,3.413-11.093,3.413-17.067
			s-0.853-11.947-3.413-17.067h91.307c-1.707,5.12-3.413,11.093-3.413,17.067S315.733,114.347,318.293,119.467z"/>
	</g>
</g>
<g>
	<g>
		<path d="M221.867,0h-85.333C131.413,0,128,3.413,128,8.533v85.333c0,5.12,3.413,8.533,8.533,8.533h0.853
			c4.267,0,7.68-2.56,8.533-6.827c3.413-15.36,17.067-27.307,33.28-27.307s29.867,11.947,33.28,27.307
			c0.853,4.267,4.267,6.827,8.533,6.827h0.853c5.12,0,8.533-3.413,8.533-8.533V8.533C230.4,3.413,226.987,0,221.867,0z M213.333,64
			C203.947,56.32,192,51.2,179.2,51.2s-24.747,5.12-34.133,12.8V17.067h68.267V64z"/>
	</g>
</g>
<g>
</g>
<g>
</g>
<g>
</g>
<g>
</g>
<g>
</g>
<g>
</g>
<g>
</g>
<g>
</g>
<g>
</g>
<g>
</g>
<g>
</g>
<g>
</g>
<g>
</g>
<g>
</g>
<g>
</g>
</svg>
