<svg xmlns="http://www.w3.org/2000/svg" width="378" height="378" viewBox="0 0 378 378">
  <metadata><?xpacket begin="﻿" id="W5M0MpCehiHzreSzNTczkc9d"?>
<x:xmpmeta xmlns:x="adobe:ns:meta/" x:xmptk="Adobe XMP Core 5.6-c138 79.159824, 2016/09/14-01:09:01        ">
   <rdf:RDF xmlns:rdf="http://www.w3.org/1999/02/22-rdf-syntax-ns#">
      <rdf:Description rdf:about=""/>
   </rdf:RDF>
</x:xmpmeta>
                                                                                                    
                                                                                                    
                                                                                                    
                                                                                                    
                                                                                                    
                                                                                                    
                                                                                                    
                                                                                                    
                                                                                                    
                                                                                                    
                                                                                                    
                                                                                                    
                                                                                                    
                                                                                                    
                                                                                                    
                                                                                                    
                                                                                                    
                                                                                                    
                                                                                                    
                                                                                                    
                           
<?xpacket end="w"?></metadata>
<defs>
    <style>
      .cls-1 {
        fill-rule: evenodd;
      }
    </style>
  </defs>
  <path class="cls-1" d="M1128.44,143.757a168.537,168.537,0,0,0-12.84-31.028,39.359,39.359,0,0,0-5.33-48.648L1095,48.807a39.264,39.264,0,0,0-48.61-5.334,168.266,168.266,0,0,0-31.01-12.853A39.287,39.287,0,0,0,977.237,0H955.651A39.293,39.293,0,0,0,917.507,30.62a168.168,168.168,0,0,0-31,12.853,39.271,39.271,0,0,0-48.614,5.332L822.624,64.079a39.339,39.339,0,0,0-5.331,48.648,168.461,168.461,0,0,0-12.843,31.026,39.315,39.315,0,0,0-30.606,38.172v21.6a39.315,39.315,0,0,0,30.6,38.173,168.523,168.523,0,0,0,12.843,31.024,39.337,39.337,0,0,0,5.332,48.646l15.263,15.278a39.269,39.269,0,0,0,48.613,5.332,168.285,168.285,0,0,0,31.006,12.853,39.3,39.3,0,0,0,38.143,30.624h21.588a39.293,39.293,0,0,0,38.144-30.624,168.609,168.609,0,0,0,31.01-12.853,39.271,39.271,0,0,0,48.61-5.332l15.26-15.278a39.328,39.328,0,0,0,5.33-48.646,168.538,168.538,0,0,0,12.85-31.024,39.312,39.312,0,0,0,30.6-38.173v-21.6A39.3,39.3,0,0,0,1128.44,143.757Zm15.26,59.769a23.836,23.836,0,0,1-21.88,23.671,7.681,7.681,0,0,0-6.82,5.659,152.838,152.838,0,0,1-15.15,36.609,7.68,7.68,0,0,0,.82,8.828,23.856,23.856,0,0,1-1.26,32.216l-15.26,15.275a23.819,23.819,0,0,1-32.2,1.259,7.672,7.672,0,0,0-8.82-.822,152.818,152.818,0,0,1-36.58,15.166,7.682,7.682,0,0,0-5.66,6.823A23.827,23.827,0,0,1,977.237,370.1H955.651A23.831,23.831,0,0,1,932,348.212a7.683,7.683,0,0,0-5.656-6.825,152.731,152.731,0,0,1-36.582-15.166,7.674,7.674,0,0,0-8.822.824,23.82,23.82,0,0,1-32.2-1.259l-15.265-15.275a23.854,23.854,0,0,1-1.256-32.217,7.679,7.679,0,0,0,.821-8.827,153.068,153.068,0,0,1-15.154-36.609,7.675,7.675,0,0,0-6.819-5.659,23.836,23.836,0,0,1-21.875-23.671v-21.6a23.831,23.831,0,0,1,21.875-23.668,7.681,7.681,0,0,0,6.819-5.661,153.217,153.217,0,0,1,15.154-36.607,7.68,7.68,0,0,0-.821-8.828,23.854,23.854,0,0,1,1.256-32.219l15.265-15.274a23.815,23.815,0,0,1,32.2-1.257,7.671,7.671,0,0,0,8.822.822A152.777,152.777,0,0,1,926.34,44.067,7.684,7.684,0,0,0,932,37.242,23.832,23.832,0,0,1,955.65,15.354h21.587A23.829,23.829,0,0,1,1000.89,37.24a7.688,7.688,0,0,0,5.66,6.827,152.881,152.881,0,0,1,36.58,15.164,7.665,7.665,0,0,0,8.82-.822,23.816,23.816,0,0,1,32.2,1.257l15.26,15.276a23.859,23.859,0,0,1,1.26,32.219,7.663,7.663,0,0,0-.82,8.828,152.776,152.776,0,0,1,15.15,36.6,7.687,7.687,0,0,0,6.82,5.663,23.832,23.832,0,0,1,21.88,23.668v21.6h0ZM966.444,56.433c-75.1,0-136.2,61.143-136.2,136.293s61.1,136.3,136.2,136.3,136.2-61.141,136.2-136.3S1041.55,56.433,966.444,56.433Zm0,257.23c-66.639,0-120.854-54.249-120.854-120.937S899.805,71.791,966.444,71.791,1087.3,126.042,1087.3,192.726,1033.08,313.663,966.444,313.663ZM1057.7,132.439a7.675,7.675,0,1,0-12.8,8.472,93.633,93.633,0,0,1,15.54,51.815,7.675,7.675,0,1,0,15.35,0A109,109,0,0,0,1057.7,132.439Zm-16.77-19.815c-1.2-1.12-2.45-2.231-3.7-3.3a7.678,7.678,0,1,0-9.94,11.7c1.08,0.919,2.15,1.874,3.19,2.84A7.674,7.674,0,0,0,1040.93,112.624Zm-69.943,72.022v-43.17c13.811,0.757,19.109,7.006,23.082,7.006,4.351,0,6.811-5.68,6.811-8.708,0-7.573-16.461-11.929-29.894-12.5v-5.3c0-2.083-2.459-3.975-4.919-3.975-2.839,0-4.92,1.892-4.92,3.975v5.678c-17.027,1.518-35,9.846-35,33.7,0,24.235,18.162,30.482,35,36.352v50.361c-21.569-.949-26.108-15.147-31.406-15.147-3.6,0-7,4.923-7,8.71,0,7.953,14.757,21.013,38.407,21.39h0v6.25c0,2.083,2.081,3.978,4.92,3.978,2.459,0,4.919-1.895,4.919-3.978v-6.815c19.677-2.652,33.3-14.957,33.3-38.054C1004.29,198.465,987.069,190.514,970.987,184.646Zm-9.083-3.223c-11.162-4.162-20.622-8.517-20.621-21.582,0-12.116,9.27-17.037,20.621-18.175v39.757Zm8.325,66.268V201.305c10.406,4.356,18.92,10.224,18.92,24.614C989.149,238.412,982.149,245.8,970.229,247.691Z"/>
  <path class="cls-1" d="M321.937,55.27A188.587,188.587,0,0,0,0,188.71,188.559,188.559,0,0,0,321.937,322.152,188.8,188.8,0,0,0,321.937,55.27ZM188.586,362.39c-95.7,0-173.56-77.912-173.56-173.68S92.885,15.034,188.586,15.034s173.56,77.91,173.56,173.676S284.287,362.39,188.586,362.39ZM285.544,91.58a26.313,26.313,0,0,0-37.189,0L91.672,248.367a26.458,26.458,0,0,0,37.44,37.4L285.546,128.794A26.358,26.358,0,0,0,285.544,91.58Zm-10.633,26.589L118.467,275.148A11.425,11.425,0,1,1,102.3,259L258.98,102.211A11.274,11.274,0,1,1,274.911,118.169ZM128.854,95.482a33.457,33.457,0,1,0,33.435,33.456A33.483,33.483,0,0,0,128.854,95.482Zm0,51.876a18.421,18.421,0,1,1,18.408-18.419A18.435,18.435,0,0,1,128.854,147.357Zm119.464,67.669a33.456,33.456,0,1,0,33.434,33.455A33.481,33.481,0,0,0,248.318,215.026Zm0,51.878a18.421,18.421,0,1,1,18.408-18.421A18.436,18.436,0,0,1,248.318,266.9Zm92.118-47.134A7.509,7.509,0,0,0,331.3,225.2,147.125,147.125,0,0,1,188.586,336.074a7.518,7.518,0,0,0,0,15.036,162.144,162.144,0,0,0,157.277-122.2A7.516,7.516,0,0,0,340.436,219.77Zm2.927-38.577a7.516,7.516,0,0,0-7.513,7.517c0,2.151-.047,4.316-0.139,6.443a7.516,7.516,0,0,0,7.182,7.836q0.165,0.006.33,0.006a7.514,7.514,0,0,0,7.5-7.194c0.1-2.339.153-4.725,0.153-7.091A7.516,7.516,0,0,0,343.363,181.193Z"/>
  <path id="Forma_1" data-name="Forma 1" class="cls-1" d="M1503.96,1079.15a5.2,5.2,0,0,0-3.61,1.46,4.868,4.868,0,0,0,0,7.03,5.181,5.181,0,0,0,7.21,0,4.868,4.868,0,0,0,0-7.03A5.178,5.178,0,0,0,1503.96,1079.15Zm132.41,1.46a4.868,4.868,0,0,0,0,7.03,5.193,5.193,0,0,0,7.22,0,4.891,4.891,0,0,0,0-7.03A5.193,5.193,0,0,0,1636.37,1080.61Zm-12.71-1.46H1520.28a4.977,4.977,0,1,0,0,9.95h103.38A4.977,4.977,0,1,0,1623.66,1079.15Zm154.08-94.411a21.69,21.69,0,0,0-16.42-6.067l-7.16-15.707a15.37,15.37,0,0,0,5.18-11.468,15.649,15.649,0,0,0-10.89-14.764V875.168l4.38-5.508a5.005,5.005,0,0,0,.91-1.822,15.414,15.414,0,0,0,5.6-11.833,16.011,16.011,0,0,0-31.83-2l-11.52,13.028a5.164,5.164,0,0,0-1.77.658L1486.19,1004.88h-9.44a15.8,15.8,0,0,0-15.98,15.58v5.64h-11.22a10.418,10.418,0,0,0-10.54,10.28v26.53a10.416,10.416,0,0,0,10.54,10.27h36.17a20.387,20.387,0,0,0-3.19,10.94c0,11.52,9.61,20.89,21.43,20.89h136.02c11.81,0,21.42-9.37,21.42-20.89s-9.61-20.89-21.42-20.89h-16.67v-30.46l114.94-144.756v48.719a15.64,15.64,0,0,0-10.88,14.764,15.4,15.4,0,0,0,5.17,11.468l-7.28,15.977a21.77,21.77,0,0,0-18.82,5.8,20.55,20.55,0,0,0,0,29.541l7.67,7.48a0.092,0.092,0,0,1,.05.05l7.67,7.48a5.206,5.206,0,0,0,7.21,0,4.88,4.88,0,0,0,0-7.04l-4.08-3.98,17.13-16.71,17.13,16.71-4.08,3.98a4.88,4.88,0,0,0,0,7.04,5.206,5.206,0,0,0,7.21,0l7.66-7.47a0.138,0.138,0,0,0,.03-0.04c0.01-.01.03-0.02,0.04-0.03l7.66-7.47A20.533,20.533,0,0,0,1777.74,984.739Zm-34.39-134.373a5.641,5.641,0,1,1-5.78,5.641A5.717,5.717,0,0,1,1743.35,850.366ZM1613.11,1045.7l-15.8-4.4a16.383,16.383,0,0,1-12.08-15.62v-10.85h11.22a16.473,16.473,0,0,1,16.66,16.24v14.63Zm-38.03-18.52a16.143,16.143,0,0,0-5.83-1.08h-5.79v-10.94a0.342,0.342,0,0,1,.34-0.33h11.23v10.85C1575.03,1026.18,1575.05,1026.68,1575.08,1027.18Zm19.03-22.3H1563.8a10.424,10.424,0,0,0-10.54,10.28v10.94H1514.5v-5.64a15.632,15.632,0,0,0-10.47-14.62l190.65-114.706Zm-123.14,15.58a5.714,5.714,0,0,1,5.78-5.63h21.76a5.723,5.723,0,0,1,5.79,5.63v5.64h-33.33v-5.64Zm-21.76,42.45v-10.95h11.22a4.977,4.977,0,1,0,0-9.95h-11.22v-5.63a0.335,0.335,0,0,1,.34-0.33h119.7a5.722,5.722,0,0,1,5.78,5.64v0.32h-92.84a4.977,4.977,0,1,0,0,9.95h92.84v11.27H1449.55A0.327,0.327,0,0,1,1449.21,1062.91Zm201.99,21.21a11.1,11.1,0,0,1-11.22,10.95H1503.96a10.949,10.949,0,1,1,0-21.89h136.02A11.1,11.1,0,0,1,1651.2,1084.12Zm-65.97-20.89v-17.04a26.792,26.792,0,0,0,9.28,4.67l18.6,5.19v7.18h-27.88Zm35.47-43.42a26.771,26.771,0,0,0-14.65-13.2l124.7-141.039a16.081,16.081,0,0,0,7.5,5.2v1Zm122.65-73.952a5.64,5.64,0,1,1-5.78,5.639A5.716,5.716,0,0,1,1743.35,945.858Zm-25.61,65.372-4.08-3.98a10.759,10.759,0,0,1,0-15.478,11.428,11.428,0,0,1,15.86,0l4.09,3.988Zm24.35-21.272-5.35-5.219a21.406,21.406,0,0,0-2.13-1.812l7.25-15.917c0.49,0.044.99,0.073,1.49,0.073s1-.029,1.49-0.073l6.67,14.625a21.3,21.3,0,0,0-4.07,3.1Zm28.44,17.292-4.09,3.98-15.87-15.47,4.08-3.988a11.452,11.452,0,0,1,15.88,0A10.77,10.77,0,0,1,1770.53,1007.25Z"/>
  <path id="Forma_1-2" data-name="Forma 1" class="cls-1" d="M1042.53,872.318l-3.03-22.028a4.172,4.172,0,0,0-1.62-2.78,4.061,4.061,0,0,0-3.08-.779l-23.87,3.717a4.175,4.175,0,0,0-3.44,4.774,4.122,4.122,0,0,0,4.69,3.506l13.91-2.167c-18.6,23.381-38.6,43.3-59.552,59.254a242.71,242.71,0,0,1-56.422,32.531c-32.693,13.1-55.017,12.244-55.236,12.234a4.189,4.189,0,0,0-.394,8.368c0.135,0.006.7,0.03,1.66,0.03,5.934,0,27.044-.926,56.473-12.636a250.362,250.362,0,0,0,58.537-33.58c21.7-16.484,42.384-37.066,61.574-61.236l1.65,11.953a4.141,4.141,0,0,0,4.07,3.608,4,4,0,0,0,.58-0.042A4.167,4.167,0,0,0,1042.53,872.318Zm46.46,200.242h-33.28a51.036,51.036,0,0,0,7.7-77.811,49.519,49.519,0,0,0-10.99-8.417V969.425a4.121,4.121,0,1,0-8.24,0v13.188a48.734,48.734,0,0,0-34.51,1.031V932.206a0.972,0.972,0,0,1,.96-0.982h32.59a0.972,0.972,0,0,1,.96.982V942.6a4.121,4.121,0,1,0,8.24,0V932.206a9.293,9.293,0,0,0-9.2-9.359h-32.59a9.293,9.293,0,0,0-9.2,9.359V988a49.6,49.6,0,0,0-8.235,6.747,50.883,50.883,0,0,0,7.695,77.811h-26V970.2a9.29,9.29,0,0,0-9.2-9.356H933.1a9.29,9.29,0,0,0-9.2,9.356V1072.56H897.356v-67.91a9.29,9.29,0,0,0-9.2-9.355H855.567a9.29,9.29,0,0,0-9.2,9.355v67.91H829.4V857.2a7.671,7.671,0,0,0-7.6-7.726h-6.515a7.671,7.671,0,0,0-7.6,7.726v29.731a4.119,4.119,0,1,0,8.237,0V857.847h5.239V1073.21a7.676,7.676,0,0,0,7.6,7.73H1088.35v6.3H815.925V913.392a4.119,4.119,0,1,0-8.237,0V1087.88a7.676,7.676,0,0,0,7.6,7.73h273.7a7.676,7.676,0,0,0,7.6-7.73v-7.59A7.676,7.676,0,0,0,1088.99,1072.56Zm-199.87,0H854.6v-67.91a0.974,0.974,0,0,1,.966-0.98h32.587a0.975,0.975,0,0,1,.966.98v67.91h0Zm43.012,0V970.2a0.975,0.975,0,0,1,.967-0.981h32.586a0.974,0.974,0,0,1,.966.981V1072.56H932.132Zm114.358-4.28a41.181,41.181,0,0,1-13.32,3.98l-0.23.03c-0.31.04-.63,0.07-0.95,0.1-0.48.04-.96,0.08-1.44,0.11-0.16,0-.31.01-0.46,0.01-0.6.03-1.19,0.05-1.79,0.05s-1.19-.02-1.79-0.05c-0.19,0-.38-0.01-0.56-0.02-0.45-.03-0.9-0.06-1.34-0.1l-1.11-.12c-0.27-.03-0.53-0.06-0.79-0.1-0.38-.05-0.75-0.11-1.13-0.17-0.04-.01-0.09-0.02-0.14-0.03a40.764,40.764,0,0,1-13.83-5.04,0.435,0.435,0,0,1-.07-0.04,41.153,41.153,0,0,1-8.522-6.67,42.611,42.611,0,0,1,0-59.55,41.359,41.359,0,0,1,9.9-7.439l0.3-.158a40.981,40.981,0,0,1,34.51-1.7c0.08,0.035.17,0.067,0.25,0.1,0.52,0.213,1.02.44,1.53,0.674,0.2,0.093.4,0.19,0.6,0.287a41.241,41.241,0,0,1,11.47,8.234,42.653,42.653,0,0,1,0,59.55,41.114,41.114,0,0,1-10.94,7.99C1046.59,1068.24,1046.54,1068.25,1046.49,1068.28Zm-16.27-41.89v-14.91c5.05,0.37,6.93,2.72,8.67,2.72,2.16,0,3.18-2.79,3.18-4.19,0-3.6-6.94-5.14-11.85-5.29v-1.99a2.1,2.1,0,0,0-2.17-1.69,1.921,1.921,0,0,0-2.1,1.69v2.14c-6.86.73-13.73,4.41-13.73,13.66,0,9.41,7.23,12.05,13.73,14.4v17.27c-7.37-.59-9.32-5.73-11.7-5.73-1.81,0-3.33,2.42-3.33,4.19,0,3.6,6.07,8.52,15.03,8.67h0v2.28a1.921,1.921,0,0,0,2.1,1.69,2.1,2.1,0,0,0,2.17-1.69v-2.5c7.8-1.1,13.15-6.1,13.15-15.14C1043.37,1031.98,1036.5,1028.75,1030.22,1026.39Zm-3.83-1.39c-3.83-1.47-6.94-3.01-6.94-7.2,0-3.82,2.89-5.66,6.94-6.18V1025Zm3.39,25.05v-15.5c3.54,1.54,6.36,3.6,6.36,8.23C1036.14,1046.97,1033.68,1049.32,1029.78,1050.05Z"/>
  <path id="Forma_1-3" data-name="Forma 1" class="cls-1" d="M1749.22,313.272h-2.5a26.221,26.221,0,0,0-18.69-22.658V144.606a4.107,4.107,0,1,0-8.21,0V289.711c-0.02,0-.03,0-0.05,0-0.17.011-.34,0.028-0.52,0.043-0.32.027-.64,0.052-0.96,0.088-0.19.025-.39,0.057-0.58,0.085-0.29.04-.58,0.082-0.87,0.133-0.2.035-.41,0.08-0.61,0.12-0.27.057-.55,0.114-0.82,0.181-0.21.048-.41,0.1-0.62,0.158-0.26.07-.53,0.141-0.79,0.222-0.21.063-.41,0.13-0.61,0.2-0.26.086-.51,0.171-0.77,0.265-0.2.074-.4,0.154-0.6,0.234-0.25.1-.5,0.2-0.75,0.306-0.19.085-.39,0.177-0.59,0.27s-0.4.19-.6,0.291v-28.1a5.021,5.021,0,0,0-4.94-5.081h-19.86a5.021,5.021,0,0,0-4.94,5.081V292.6a5.021,5.021,0,0,0,4.94,5.083h17.6c-0.12.131-.25,0.259-0.37,0.4-0.22.245-.44,0.506-0.65,0.762-0.11.124-.21,0.246-0.32,0.375-0.31.39-.61,0.789-0.91,1.2-0.46.1-.91,0.211-1.36,0.34-0.15.042-.29,0.09-0.44,0.136-0.3.095-.6,0.192-0.9,0.3-0.17.063-.33,0.128-0.49,0.19-0.28.109-.55,0.219-0.81,0.337-0.17.074-.33,0.148-0.5,0.228q-0.39.186-.78,0.394c-0.15.08-.31,0.16-0.46,0.247-0.27.15-.53,0.314-0.8,0.477-0.13.08-.26,0.156-0.38,0.242q-0.525.336-1.02,0.713c-0.04.025-.08,0.051-0.12,0.08q-0.555.423-1.08,0.877c-0.09.085-.19,0.178-0.28,0.268-0.25.22-.5,0.447-0.73,0.683-0.12.118-.23,0.239-0.35,0.357-0.21.219-.41,0.438-0.61,0.662-0.12.135-.23,0.268-0.34,0.4-0.19.226-.38,0.458-0.56,0.692-0.1.139-.21,0.278-0.31,0.421-0.19.251-.36,0.507-0.53,0.768-0.09.131-.18,0.262-0.27,0.4-0.2.323-.39,0.654-0.58,0.99-0.04.076-.09,0.152-0.13,0.231-0.23.416-.44,0.844-0.64,1.277-0.05.113-.09,0.229-0.14,0.341-0.12.266-.24,0.532-0.35,0.8h-53.03V251.047l1.55,1.065a10.891,10.891,0,0,0,.95.574,2.068,2.068,0,0,0,.2.093,10.185,10.185,0,0,0,5.55,1.077,10.379,10.379,0,0,0,1.64-.268,10.207,10.207,0,0,0,2.04-.774c0.05-.021.09-0.054,0.14-0.075,0.27-.146.55-0.3,0.81-0.467,0,0,0,0,.01-0.006,0.3-.2.59-0.409,0.88-0.634,0.04-.034.08-0.074,0.12-0.11a10.75,10.75,0,0,0,2.66-3.292,11,11,0,0,0,.41-9.284h16.82a5.015,5.015,0,0,0,4.94-5.082V205.472a5.015,5.015,0,0,0-4.94-5.086h-19.86a5.022,5.022,0,0,0-4.94,5.086v25.887l-8.98-6.154V205.472a5.015,5.015,0,0,0-4.94-5.086h-19.86a4.987,4.987,0,0,0-4.89,4.475l-9.78-6.7V66.3h126.65v52.015a4.107,4.107,0,1,0,8.21,0V64.952a7.022,7.022,0,0,0-6.9-7.115h-6.31V46.08a6.008,6.008,0,0,0-5.91-6.09H1604.07a6.008,6.008,0,0,0-5.91,6.09V57.837h-6.3a7.022,7.022,0,0,0-6.91,7.113V192.532l-5.04-3.452a5.636,5.636,0,0,0-6.42,0l-16.8,11.506v-5.709a6.706,6.706,0,0,0-6.6-6.8h-19.61a6.707,6.707,0,0,0-6.6,6.8v6.74a6.843,6.843,0,0,0,3.49,5.994v13.058L1507.63,234.2a10.9,10.9,0,0,0-3.42,14.037,10.506,10.506,0,0,0,6.66,5.356,10.2,10.2,0,0,0,8.33-1.476h0l1.56-1.065v20.882a4.107,4.107,0,1,0,8.21,0V245.417l47.73-32.694,47.72,32.694v67.857h-52.68V267.806a5.979,5.979,0,0,0-5.88-6.056h-26.84a5.979,5.979,0,0,0-5.88,6.056v45.468h-4.17V298.222a4.107,4.107,0,1,0-8.21,0v15.052h-21.29a11.9,11.9,0,0,0,0,23.788h249.75A11.9,11.9,0,0,0,1749.22,313.272Zm-47.36-24.05h-13.3V267.589h13.3v21.633Zm-52.02-80.371h13.3v21.633h-13.3V208.851Zm-43.46-160.4H1706.6v9.384H1606.38V48.453Zm88.79,264.7c0.04-.053.08-0.1,0.12-0.152,0.17-.207.34-0.411,0.52-0.6,0.02-.019.03-0.038,0.05-0.055,0.19-.2.39-0.4,0.6-0.593,0.05-.048.1-0.093,0.15-0.137,0.21-.188.42-0.373,0.64-0.544a0.254,0.254,0,0,0,.05-0.046c0.21-.161.43-0.315,0.65-0.464,0.05-.036.1-0.072,0.15-0.11,0.24-.15.47-0.3,0.72-0.434,0.04-.022.08-0.047,0.12-0.066,0.22-.124.45-0.236,0.67-0.344l0.15-.071c0.26-.114.52-0.22,0.78-0.321l0.17-.059c0.24-.088.49-0.167,0.74-0.24l0.1-.03q0.42-.114.84-0.194c0.07-.015.13-0.029,0.2-0.04,0.28-.051.57-0.1,0.87-0.131a4.08,4.08,0,0,0,3.05-1.961,17.2,17.2,0,0,1,14.75-8.429c0.33,0,.68.013,1.02,0.036l0.08,0.006c0.34,0.025.69,0.057,1.06,0.1,0.01,0,.03,0,0.04,0a17.665,17.665,0,0,1,14.97,14.992h-43.35C1695.11,313.234,1695.14,313.194,1695.17,313.158Zm-84.05-104.307h13.3v10.723l-13.3-9.108v-1.615Zm-79.02-12.309h16.37v3.407H1532.1v-3.407Zm12.88,11.87h0v0.194l-9.39,6.432v-6.626h9.39Zm34.93-3.657a5.688,5.688,0,0,0-2.19-.892,1.766,1.766,0,0,0-.19-0.046,0.341,0.341,0,0,0-.05,0,5.611,5.611,0,0,0-3.34.561,6.659,6.659,0,0,0-.65.379l-58.84,40.309a2.157,2.157,0,0,1-1.78.315,2.224,2.224,0,0,1-1.42-1.143,2.321,2.321,0,0,1,.73-2.993l64.52-44.2,64.51,44.2a2.321,2.321,0,0,1,.73,2.993,2.2,2.2,0,0,1-1.42,1.143,2.164,2.164,0,0,1-1.78-.315l-7.94-5.439Zm-38.55,65.458h22.16v43.059h-22.16V270.213ZM1749.22,328.6H1499.47a3.432,3.432,0,0,1,0-6.861h249.75A3.432,3.432,0,0,1,1749.22,328.6Zm-135.55-60.772h-32.2a5.387,5.387,0,0,0-5.3,5.454v20.173a4.173,4.173,0,0,0,4.11,4.231h34.58a4.173,4.173,0,0,0,4.11-4.231V273.281A5.387,5.387,0,0,0,1613.67,267.827Zm-2.92,21.395h-26.36v-12.93h26.36v12.93Zm16.96-206.313h-19.87a5.014,5.014,0,0,0-4.93,5.085v28.392a5.013,5.013,0,0,0,4.93,5.082h19.87a5.013,5.013,0,0,0,4.93-5.082V87.994h0A5.014,5.014,0,0,0,1627.71,82.909Zm-3.29,30.1h-13.3V91.374h13.3v21.633Zm42-30.1h-19.86a5.022,5.022,0,0,0-4.94,5.085v28.392a5.021,5.021,0,0,0,4.94,5.082h19.86a5.021,5.021,0,0,0,4.94-5.082V87.994h0A5.022,5.022,0,0,0,1666.42,82.909Zm-3.28,30.1h-13.3V91.374h13.3v21.633Zm42-30.1h-19.86a5.022,5.022,0,0,0-4.94,5.085v28.392a5.021,5.021,0,0,0,4.94,5.082h19.86a5.021,5.021,0,0,0,4.94-5.082V87.994A5.022,5.022,0,0,0,1705.14,82.909Zm-3.28,30.1h-13.3V91.374h13.3v21.633Zm-74.15,28.641h-19.87a5.014,5.014,0,0,0-4.93,5.084v28.394a5.013,5.013,0,0,0,4.93,5.082h19.87a5.013,5.013,0,0,0,4.93-5.082V146.732A5.014,5.014,0,0,0,1627.71,141.648Zm-3.29,30.1h-13.3V150.111h13.3v21.634Zm42-30.1h-19.86a5.022,5.022,0,0,0-4.94,5.084v28.394a5.022,5.022,0,0,0,4.94,5.082h19.86a5.022,5.022,0,0,0,4.94-5.082V146.732A5.022,5.022,0,0,0,1666.42,141.648Zm-3.28,30.1h-13.3V150.111h13.3v21.634Zm42-30.1h-19.86a5.022,5.022,0,0,0-4.94,5.084v28.394a5.022,5.022,0,0,0,4.94,5.082h19.86a5.022,5.022,0,0,0,4.94-5.082V146.732A5.022,5.022,0,0,0,1705.14,141.648Zm-3.28,30.1h-13.3V150.111h13.3v21.634Zm3.28,28.641h-19.86a5.022,5.022,0,0,0-4.94,5.086v28.392a5.022,5.022,0,0,0,4.94,5.082h19.86a5.022,5.022,0,0,0,4.94-5.082V205.472A5.022,5.022,0,0,0,1705.14,200.386Zm-3.28,30.1h-13.3V208.851h13.3v21.633Zm-34.61,28.642h-21.52a4.173,4.173,0,0,0-4.11,4.231v30.1a4.173,4.173,0,0,0,4.11,4.231h21.52a4.173,4.173,0,0,0,4.11-4.231v-30.1A4.173,4.173,0,0,0,1667.25,259.126Zm-4.11,30.1h-13.3V267.589h13.3v21.633Z"/>
  <path id="Forma_1_copy_3" data-name="Forma 1 copy 3" class="cls-1" d="M1040.17,1484.67a156.646,156.646,0,1,0,45.84,110.72A155.383,155.383,0,0,0,1040.17,1484.67ZM929.519,1742.81c-81.231,0-147.318-66.13-147.318-147.42s66.087-147.42,147.318-147.42,147.321,66.14,147.321,147.42S1010.75,1742.81,929.519,1742.81Zm9.169-248.96h-9.169a4.583,4.583,0,0,0-4.584,4.59v18.35a4.589,4.589,0,0,0,4.584,4.59h9.169a37.31,37.31,0,0,1,0,74.62H924.323a4.59,4.59,0,0,0,0,9.18h14.365a46.49,46.49,0,0,0,0-92.98H934.1v-9.17h4.584a83.19,83.19,0,0,1,0,166.38H887.646a4.581,4.581,0,0,0-4.584,4.58v7.28l-43.947-43.98,43.947-43.97v7.27a4.584,4.584,0,0,0,4.584,4.59h18.339a4.59,4.59,0,0,0,0-9.18H892.231v-13.76a4.581,4.581,0,0,0-7.826-3.24l-55.015,55.05a4.593,4.593,0,0,0,0,6.49l55.015,55.05a4.571,4.571,0,0,0,3.243,1.34,4.49,4.49,0,0,0,1.754-.35,4.582,4.582,0,0,0,2.829-4.23v-13.77h46.457A92.365,92.365,0,0,0,938.688,1493.85Z"/>
  <path class="cls-1" d="M254.123,933.1H241.487a6.006,6.006,0,0,0,0,12.01h12.636A6.006,6.006,0,0,0,254.123,933.1Zm1.558,49.616a12.118,12.118,0,0,0-9.652-4.775H110.551a12.116,12.116,0,0,0-9.651,4.775,12.456,12.456,0,0,0-2.227,10.646l3.16,12.817a12.263,12.263,0,0,0,11.878,9.4H242.87a12.265,12.265,0,0,0,11.879-9.4l3.16-12.817A12.462,12.462,0,0,0,255.681,982.717Zm-9.268,7.736-3.16,12.807a0.389,0.389,0,0,1-.383.31H113.711a0.4,0.4,0,0,1-.384-0.31l-3.16-12.807a0.37,0.37,0,0,1,.072-0.343,0.361,0.361,0,0,1,.311-0.154H246.029a0.362,0.362,0,0,1,.312.154A0.37,0.37,0,0,1,246.413,990.453ZM205.845,830.605H150.734M129.2,862.634H84.138a24.98,24.98,0,0,0-23.385,16.6L44.95,923.3a18.668,18.668,0,0,0-18.325-15.818H20.3a18.818,18.818,0,0,0,0,37.632h6.319a18.224,18.224,0,0,0,8.139-1.91L21.218,960.366a32.018,32.018,0,0,0-6.838,19.76V1099.26a12.344,12.344,0,0,0,12.244,12.41H45.582a12.343,12.343,0,0,0,12.244-12.41v-26.03H298.755v26.03A12.343,12.343,0,0,0,311,1111.67h18.958a12.343,12.343,0,0,0,12.244-12.41V980.126a32.019,32.019,0,0,0-6.837-19.76L321.818,943.2a18.225,18.225,0,0,0,8.139,1.91h6.32a18.818,18.818,0,0,0,0-37.632h-6.319A18.669,18.669,0,0,0,311.632,923.3l-15.805-44.059a24.975,24.975,0,0,0-23.385-16.6H227.383M26.624,933.1H20.3a6.807,6.807,0,0,1,0-13.612h6.32A6.807,6.807,0,0,1,26.624,933.1ZM215.3,862.634H141.281m-95.3,236.626a0.4,0.4,0,0,1-.4.4H26.623a0.4,0.4,0,0,1-.395-0.4v-29.77a24.515,24.515,0,0,0,13.034,3.74h6.714v26.03h0ZM248.2,1061.22H108.382v-13.21a0.4,0.4,0,0,1,.395-0.4H247.805a0.4,0.4,0,0,1,.4.4v13.21h0Zm82.152,38.04a0.4,0.4,0,0,1-.395.4H311a0.4,0.4,0,0,1-.4-0.4v-26.03h6.714a24.518,24.518,0,0,0,13.034-3.74v29.77h0Zm-4.239-131.392a19.882,19.882,0,0,1,4.24,12.258v67.884a13.134,13.134,0,0,1-13.034,13.21h-57.27v-13.21a12.344,12.344,0,0,0-12.244-12.41H108.777a12.344,12.344,0,0,0-12.244,12.41v13.21H39.263a13.134,13.134,0,0,1-13.034-13.21V980.126a19.871,19.871,0,0,1,4.241-12.258L48.43,945.111H216.208a6.006,6.006,0,0,0,0-12.01H54.041l17.85-49.759a13.079,13.079,0,0,1,12.249-8.694h188.3a13.083,13.083,0,0,1,12.249,8.694L302.541,933.1H279.4a6.006,6.006,0,0,0,0,12.01h28.749Zm-2.87-41.573a6.767,6.767,0,0,1,6.714-6.806h6.319a6.807,6.807,0,0,1,0,13.612h-6.319A6.768,6.768,0,0,1,323.243,926.3Zm-258.7,96.5a12.411,12.411,0,1,0,12.244,12.41A12.338,12.338,0,0,0,64.541,1022.79Zm227.5,0a12.411,12.411,0,1,0,12.243,12.41A12.337,12.337,0,0,0,292.041,1022.79ZM61.382,971.538A22.023,22.023,0,1,0,83.1,993.557,21.9,21.9,0,0,0,61.382,971.538Zm0,32.032a10.012,10.012,0,1,1,9.874-10.013A9.955,9.955,0,0,1,61.382,1003.57ZM295.2,971.538a22.023,22.023,0,1,0,21.723,22.019A21.9,21.9,0,0,0,295.2,971.538Zm0,32.032a10.012,10.012,0,1,1,9.874-10.013A9.955,9.955,0,0,1,295.2,1003.57Z"/>
</svg>
