<svg xmlns="http://www.w3.org/2000/svg" width="355" height="248" viewBox="0 0 355 248">
  <metadata><?xpacket begin="﻿" id="W5M0MpCehiHzreSzNTczkc9d"?>
<x:xmpmeta xmlns:x="adobe:ns:meta/" x:xmptk="Adobe XMP Core 5.6-c138 79.159824, 2016/09/14-01:09:01        ">
   <rdf:RDF xmlns:rdf="http://www.w3.org/1999/02/22-rdf-syntax-ns#">
      <rdf:Description rdf:about=""/>
   </rdf:RDF>
</x:xmpmeta>
                                                                                                    
                                                                                                    
                                                                                                    
                                                                                                    
                                                                                                    
                                                                                                    
                                                                                                    
                                                                                                    
                                                                                                    
                                                                                                    
                                                                                                    
                                                                                                    
                                                                                                    
                                                                                                    
                                                                                                    
                                                                                                    
                                                                                                    
                                                                                                    
                                                                                                    
                                                                                                    
                           
<?xpacket end="w"?></metadata>
<defs>
    <style>
      .cls-1 {
        fill-rule: evenodd;
      }
    </style>
  </defs>
  <path class="cls-1" d="M1128.44-720.243a168.537,168.537,0,0,0-12.84-31.028,39.359,39.359,0,0,0-5.33-48.648L1095-815.193a39.263,39.263,0,0,0-48.61-5.334,168.322,168.322,0,0,0-31.01-12.853A39.286,39.286,0,0,0,977.237-864H955.651a39.292,39.292,0,0,0-38.144,30.622,168.223,168.223,0,0,0-31,12.853,39.271,39.271,0,0,0-48.614,5.332l-15.264,15.274a39.339,39.339,0,0,0-5.331,48.648,168.461,168.461,0,0,0-12.843,31.026,39.315,39.315,0,0,0-30.606,38.172v21.6a39.315,39.315,0,0,0,30.6,38.173,168.523,168.523,0,0,0,12.843,31.024,39.337,39.337,0,0,0,5.332,48.646l15.263,15.278a39.269,39.269,0,0,0,48.613,5.332,168.285,168.285,0,0,0,31.006,12.853,39.3,39.3,0,0,0,38.143,30.624h21.588a39.293,39.293,0,0,0,38.144-30.624,168.609,168.609,0,0,0,31.01-12.853,39.271,39.271,0,0,0,48.61-5.332l15.26-15.278a39.328,39.328,0,0,0,5.33-48.646,168.538,168.538,0,0,0,12.85-31.024,39.312,39.312,0,0,0,30.6-38.173v-21.6A39.3,39.3,0,0,0,1128.44-720.243Zm15.26,59.769a23.836,23.836,0,0,1-21.88,23.671,7.681,7.681,0,0,0-6.82,5.659,152.838,152.838,0,0,1-15.15,36.609,7.68,7.68,0,0,0,.82,8.828,23.856,23.856,0,0,1-1.26,32.216l-15.26,15.275a23.819,23.819,0,0,1-32.2,1.259,7.672,7.672,0,0,0-8.82-.822,152.818,152.818,0,0,1-36.58,15.166,7.682,7.682,0,0,0-5.66,6.823A23.827,23.827,0,0,1,977.237-493.9H955.651A23.831,23.831,0,0,1,932-515.788a7.683,7.683,0,0,0-5.656-6.825,152.731,152.731,0,0,1-36.582-15.166,7.661,7.661,0,0,0-3.829-1.023,7.662,7.662,0,0,0-4.993,1.847,23.82,23.82,0,0,1-32.2-1.259l-15.265-15.275a23.854,23.854,0,0,1-1.256-32.217,7.679,7.679,0,0,0,.821-8.827,153.068,153.068,0,0,1-15.154-36.609,7.675,7.675,0,0,0-6.819-5.659,23.836,23.836,0,0,1-21.875-23.671v-21.6a23.831,23.831,0,0,1,21.875-23.668,7.681,7.681,0,0,0,6.819-5.661,153.217,153.217,0,0,1,15.154-36.607,7.68,7.68,0,0,0-.821-8.828,23.854,23.854,0,0,1,1.256-32.218l15.265-15.275a23.815,23.815,0,0,1,32.2-1.257,7.672,7.672,0,0,0,8.822.822,152.74,152.74,0,0,1,36.582-15.166A7.684,7.684,0,0,0,932-826.758a23.832,23.832,0,0,1,23.654-21.888h21.587a23.829,23.829,0,0,1,23.653,21.886,7.688,7.688,0,0,0,5.66,6.827,152.853,152.853,0,0,1,36.58,15.164,7.666,7.666,0,0,0,8.82-.822,23.817,23.817,0,0,1,32.2,1.257l15.26,15.277a23.858,23.858,0,0,1,1.26,32.218,7.663,7.663,0,0,0-.82,8.828A152.776,152.776,0,0,1,1115-711.406a7.687,7.687,0,0,0,6.82,5.663,23.832,23.832,0,0,1,21.88,23.668v21.6h0ZM966.444-807.567c-75.1,0-136.2,61.143-136.2,136.293s61.1,136.295,136.2,136.295,136.2-61.141,136.2-136.295S1041.55-807.567,966.444-807.567Zm0,257.23c-66.639,0-120.854-54.249-120.854-120.937s54.215-120.935,120.854-120.935S1087.3-737.958,1087.3-671.274,1033.08-550.337,966.444-550.337ZM1057.7-731.561a7.663,7.663,0,0,0-10.63-2.17,7.7,7.7,0,0,0-2.17,10.642,93.633,93.633,0,0,1,15.54,51.815,7.678,7.678,0,0,0,7.67,7.679,7.68,7.68,0,0,0,7.68-7.679A109,109,0,0,0,1057.7-731.561Zm-16.77-19.815c-1.2-1.12-2.45-2.231-3.7-3.3a7.677,7.677,0,0,0-10.82.879,7.688,7.688,0,0,0,.88,10.825c1.08,0.919,2.15,1.874,3.19,2.84a7.636,7.636,0,0,0,5.22,2.06,7.644,7.644,0,0,0,5.62-2.45A7.673,7.673,0,0,0,1040.93-751.376Zm-69.943,72.022v-43.17c13.811,0.757,19.109,7.006,23.082,7.006,4.351,0,6.811-5.68,6.811-8.708,0-7.573-16.461-11.929-29.894-12.5v-5.3c0-2.083-2.459-3.975-4.919-3.975-2.839,0-4.92,1.892-4.92,3.975v5.678c-17.027,1.518-35,9.846-35,33.7,0,24.235,18.162,30.482,35,36.352v50.361c-21.569-.949-26.108-15.147-31.406-15.147-3.6,0-7,4.923-7,8.71,0,7.953,14.757,21.013,38.407,21.39h0v6.25c0,2.083,2.081,3.978,4.92,3.978,2.459,0,4.919-1.895,4.919-3.978v-6.815c19.677-2.652,33.3-14.957,33.3-38.054C1004.29-665.535,987.069-673.486,970.987-679.354Zm-9.083-3.223c-11.162-4.162-20.622-8.517-20.621-21.582,0-12.116,9.27-17.037,20.621-18.175v39.757Zm8.325,66.268v-46.386c10.406,4.356,18.92,10.224,18.92,24.614C989.149-625.588,982.149-618.2,970.229-616.309Z"/>
  <path class="cls-1" d="M321.937-808.73A187.278,187.278,0,0,0,188.586-864,187.282,187.282,0,0,0,55.234-808.73,187.539,187.539,0,0,0,0-675.29,187.541,187.541,0,0,0,55.234-541.848a187.29,187.29,0,0,0,133.352,55.275,187.286,187.286,0,0,0,133.351-55.275A187.539,187.539,0,0,0,377.173-675.29,187.538,187.538,0,0,0,321.937-808.73ZM188.586-501.61c-95.7,0-173.56-77.912-173.56-173.68s77.859-173.676,173.56-173.676,173.56,77.91,173.56,173.676S284.287-501.61,188.586-501.61Zm96.958-270.81a26.314,26.314,0,0,0-37.189,0L91.672-615.633A26.3,26.3,0,0,0,83.926-596.8a26.293,26.293,0,0,0,7.916,18.763,26.349,26.349,0,0,0,18.532,7.556,26.359,26.359,0,0,0,18.739-7.759L285.546-735.206A26.359,26.359,0,0,0,285.544-772.42Zm-10.633,26.589L118.467-588.852a11.446,11.446,0,0,1-16.1.091,11.37,11.37,0,0,1-3.419-8.107A11.34,11.34,0,0,1,102.3-605L258.98-761.789a11.284,11.284,0,0,1,15.939,0A11.3,11.3,0,0,1,274.911-745.831ZM128.854-768.518a33.483,33.483,0,0,0-33.435,33.456A33.485,33.485,0,0,0,128.854-701.6a33.485,33.485,0,0,0,33.435-33.458A33.483,33.483,0,0,0,128.854-768.518Zm0,51.875a18.435,18.435,0,0,1-18.408-18.419,18.437,18.437,0,0,1,18.408-18.422,18.437,18.437,0,0,1,18.408,18.422A18.435,18.435,0,0,1,128.854-716.643Zm119.464,67.669a33.481,33.481,0,0,0-33.434,33.455,33.484,33.484,0,0,0,33.434,33.457,33.484,33.484,0,0,0,33.434-33.457A33.482,33.482,0,0,0,248.318-648.974Zm0,51.878a18.436,18.436,0,0,1-18.408-18.421,18.435,18.435,0,0,1,18.408-18.42,18.435,18.435,0,0,1,18.408,18.42A18.436,18.436,0,0,1,248.318-597.1Zm92.118-47.134A7.509,7.509,0,0,0,331.3-638.8,147.125,147.125,0,0,1,188.586-527.926a7.515,7.515,0,0,0-7.513,7.519,7.516,7.516,0,0,0,7.513,7.517,162.144,162.144,0,0,0,157.277-122.2A7.516,7.516,0,0,0,340.436-644.23Zm2.927-38.577a7.516,7.516,0,0,0-7.513,7.517c0,2.151-.047,4.316-0.139,6.443a7.516,7.516,0,0,0,7.182,7.836q0.165,0.006.33,0.006a7.514,7.514,0,0,0,7.5-7.194c0.1-2.339.153-4.725,0.153-7.091A7.516,7.516,0,0,0,343.363-682.807Z"/>
  <path id="Forma_1" data-name="Forma 1" class="cls-1" d="M1503.96,215.151a5.21,5.21,0,0,0-3.61,1.459,4.867,4.867,0,0,0,0,7.029,5.178,5.178,0,0,0,7.21,0,4.867,4.867,0,0,0,0-7.029A5.177,5.177,0,0,0,1503.96,215.151Zm132.41,1.459a4.867,4.867,0,0,0,0,7.029,5.2,5.2,0,0,0,7.22,0,4.89,4.89,0,0,0,0-7.029A5.2,5.2,0,0,0,1636.37,216.61Zm-12.71-1.459H1520.28a4.976,4.976,0,1,0,0,9.949h103.38A4.976,4.976,0,1,0,1623.66,215.151Zm154.08-94.412a21.69,21.69,0,0,0-16.42-6.067l-7.16-15.707a15.37,15.37,0,0,0,5.18-11.468,15.649,15.649,0,0,0-10.89-14.764V11.168l4.38-5.508a5.006,5.006,0,0,0,.91-1.822A15.415,15.415,0,0,0,1759.34-8a15.807,15.807,0,0,0-15.99-15.583A15.868,15.868,0,0,0,1727.51-10L1715.99,3.03a5.184,5.184,0,0,0-1.77.658L1486.19,140.879h-9.44a15.805,15.805,0,0,0-15.98,15.584V162.1h-11.22a10.418,10.418,0,0,0-10.54,10.279v26.527a10.419,10.419,0,0,0,10.54,10.277h36.17a20.363,20.363,0,0,0-3.19,10.942c0,11.517,9.61,20.889,21.43,20.889h136.02c11.81,0,21.42-9.372,21.42-20.889s-9.61-20.89-21.42-20.89h-16.67V168.773L1738.25,24.015V72.733A15.64,15.64,0,0,0,1727.37,87.5a15.4,15.4,0,0,0,5.17,11.468l-7.28,15.977a21.77,21.77,0,0,0-18.82,5.8,20.55,20.55,0,0,0,0,29.541l7.67,7.478,0.03,0.025a0.048,0.048,0,0,0,.02.025l7.67,7.478a5.191,5.191,0,0,0,7.21,0,4.872,4.872,0,0,0,0-7.033l-4.08-3.987,17.13-16.7,17.13,16.7-4.08,3.987a4.872,4.872,0,0,0,0,7.033,5.191,5.191,0,0,0,7.21,0l7.66-7.471a0.234,0.234,0,0,0,.03-0.032,0.4,0.4,0,0,0,.04-0.034l7.66-7.469A20.533,20.533,0,0,0,1777.74,120.739ZM1743.35-13.634a5.717,5.717,0,0,1,5.78,5.641,5.715,5.715,0,0,1-5.78,5.637,5.721,5.721,0,0,1-5.78-5.637A5.723,5.723,0,0,1,1743.35-13.634ZM1613.11,181.7l-15.8-4.4a16.381,16.381,0,0,1-12.08-15.621v-10.85h11.22a16.473,16.473,0,0,1,16.66,16.245V181.7Zm-38.03-18.522a16.271,16.271,0,0,0-5.83-1.078h-5.79V151.157a0.34,0.34,0,0,1,.34-0.329h11.23v10.85C1575.03,162.18,1575.05,162.68,1575.08,163.178Zm19.03-22.3H1563.8a10.424,10.424,0,0,0-10.54,10.28V162.1H1514.5v-5.637a15.64,15.64,0,0,0-10.47-14.627l190.65-114.7Zm-123.14,15.584a5.714,5.714,0,0,1,5.78-5.635h10.88s0,0,.01,0,0,0,.01,0h10.86a5.723,5.723,0,0,1,5.79,5.635V162.1h-33.33v-5.637Zm-21.76,42.443V187.963h11.22a4.976,4.976,0,1,0,0-9.949h-11.22v-5.635a0.336,0.336,0,0,1,.34-0.332h119.7a5.721,5.721,0,0,1,5.78,5.638v0.329h-92.84a4.976,4.976,0,1,0,0,9.949h92.84v11.272H1449.55A0.334,0.334,0,0,1,1449.21,198.906Zm201.99,21.219a11.1,11.1,0,0,1-11.22,10.943H1503.96a10.946,10.946,0,1,1,0-21.885h136.02A11.093,11.093,0,0,1,1651.2,220.125Zm-65.97-20.89V182.2a26.947,26.947,0,0,0,9.28,4.669l18.6,5.182v7.189h-27.88Zm35.47-43.421a26.73,26.73,0,0,0-14.65-13.2L1730.75,1.571a16.079,16.079,0,0,0,7.5,5.2v1Zm122.65-73.956a5.64,5.64,0,1,1-5.78,5.639A5.715,5.715,0,0,1,1743.35,81.858Zm-25.61,65.375-4.08-3.986a10.755,10.755,0,0,1,0-15.475,11.428,11.428,0,0,1,15.86,0l4.09,3.988Zm24.35-21.275-5.35-5.219a21.406,21.406,0,0,0-2.13-1.812l7.25-15.917c0.49,0.044.99,0.073,1.49,0.073s1-.029,1.49-0.073l6.67,14.625a21.3,21.3,0,0,0-4.07,3.1Zm28.44,17.289-4.09,3.986-15.87-15.473,4.08-3.988a11.452,11.452,0,0,1,15.88,0A10.766,10.766,0,0,1,1770.53,143.247Z"/>
  <path id="Forma_1-2" data-name="Forma 1" class="cls-1" d="M1042.53,8.318L1039.5-13.71a4.169,4.169,0,0,0-1.62-2.779,4.062,4.062,0,0,0-3.08-.78l-23.87,3.717a4.176,4.176,0,0,0-3.44,4.774,4.121,4.121,0,0,0,4.69,3.506l13.91-2.167c-18.6,23.381-38.6,43.3-59.552,59.254a242.715,242.715,0,0,1-56.422,32.531C877.423,97.45,855.1,96.59,854.88,96.58a4.189,4.189,0,0,0-.394,8.368c0.135,0.006.7,0.03,1.66,0.03,5.934,0,27.044-.926,56.473-12.636a250.376,250.376,0,0,0,58.537-33.581c21.7-16.484,42.384-37.065,61.574-61.236l1.65,11.953a4.141,4.141,0,0,0,4.07,3.608,4.058,4.058,0,0,0,.58-0.042A4.168,4.168,0,0,0,1042.53,8.318Zm46.46,200.242h-33.28a51.036,51.036,0,0,0,7.7-77.811,49.519,49.519,0,0,0-10.99-8.417V105.425a4.121,4.121,0,1,0-8.24,0v13.188a48.734,48.734,0,0,0-34.51,1.031V68.206a0.971,0.971,0,0,1,.96-0.981h32.59a0.971,0.971,0,0,1,.96.981V78.6a4.121,4.121,0,1,0,8.24,0V68.206a9.293,9.293,0,0,0-9.2-9.359h-32.59a9.293,9.293,0,0,0-9.2,9.359V124a49.6,49.6,0,0,0-8.235,6.747,50.888,50.888,0,0,0,7.695,77.809h-26V106.2a9.29,9.29,0,0,0-9.2-9.356H933.1a9.29,9.29,0,0,0-9.2,9.356V208.56H897.356V140.651a9.29,9.29,0,0,0-9.2-9.356H855.567a9.291,9.291,0,0,0-9.2,9.356V208.56H829.4V-6.8a7.672,7.672,0,0,0-7.6-7.727h-6.515a7.672,7.672,0,0,0-7.6,7.727V22.929a4.119,4.119,0,1,0,8.237,0V-6.153h5.239v215.36a7.673,7.673,0,0,0,7.6,7.728H1088.35v6.3H815.925V49.392a4.119,4.119,0,1,0-8.237,0V223.884a7.673,7.673,0,0,0,7.6,7.728h273.7a7.674,7.674,0,0,0,7.6-7.728v-7.6A7.673,7.673,0,0,0,1088.99,208.56Zm-199.87,0H854.6V140.651a0.974,0.974,0,0,1,.966-0.981h32.587a0.974,0.974,0,0,1,.966.981V208.56h0Zm43.012,0V106.2a0.975,0.975,0,0,1,.967-0.981h32.586a0.974,0.974,0,0,1,.966.981V208.56H932.132Zm114.358-4.282a41.114,41.114,0,0,1-13.32,3.984l-0.23.028c-0.31.036-.63,0.069-0.95,0.1-0.48.044-.96,0.082-1.44,0.109l-0.46.019c-0.6.026-1.19,0.045-1.79,0.045s-1.19-.019-1.79-0.045c-0.19-.008-0.38-0.017-0.56-0.027-0.45-.027-0.9-0.061-1.34-0.1q-0.555-.051-1.11-0.118c-0.27-.03-0.53-0.062-0.79-0.1-0.38-.051-0.75-0.106-1.13-0.169l-0.14-.027a40.86,40.86,0,0,1-13.83-5.046,0.449,0.449,0,0,1-.07-0.036,41.547,41.547,0,0,1-8.522-6.667,42.617,42.617,0,0,1,0-59.555,41.359,41.359,0,0,1,9.9-7.439l0.3-.158a40.981,40.981,0,0,1,34.51-1.7c0.08,0.035.17,0.067,0.25,0.1,0.52,0.213,1.02.44,1.53,0.674,0.2,0.093.4,0.19,0.6,0.287a41.241,41.241,0,0,1,11.47,8.234,42.659,42.659,0,0,1,0,59.555,41.352,41.352,0,0,1-10.94,7.989C1046.59,204.237,1046.54,204.254,1046.49,204.278ZM1030.22,162.4V147.478c5.05,0.367,6.93,2.718,8.67,2.718,2.16,0,3.18-2.79,3.18-4.186,0-3.6-6.94-5.144-11.85-5.292v-1.984a2.1,2.1,0,0,0-2.17-1.689,1.919,1.919,0,0,0-2.1,1.689v2.132c-6.86.735-13.73,4.41-13.73,13.667,0,9.405,7.23,12.051,13.73,14.4V186.2c-7.37-.587-9.32-5.731-11.7-5.731-1.81,0-3.33,2.425-3.33,4.189,0,3.6,6.07,8.523,15.03,8.67h0v2.279a1.92,1.92,0,0,0,2.1,1.689,2.1,2.1,0,0,0,2.17-1.689v-2.5c7.8-1.1,13.15-6.1,13.15-15.135C1043.37,167.978,1036.5,164.746,1030.22,162.4Zm-3.83-1.4c-3.83-1.471-6.94-3.013-6.94-7.2,0-3.821,2.89-5.657,6.94-6.172V161Zm3.39,25.055v-15.5c3.54,1.545,6.36,3.6,6.36,8.231C1036.14,182.969,1033.68,185.32,1029.78,186.054Z"/>
  <path id="Forma_1-3" data-name="Forma 1" class="cls-1" d="M1749.22-550.728h-2.5a26.221,26.221,0,0,0-18.69-22.658V-719.394a4.172,4.172,0,0,0-4.11-4.232,4.17,4.17,0,0,0-4.1,4.232v145.105c-0.02,0-.03,0-0.05,0-0.17.011-.34,0.028-0.52,0.043-0.32.027-.64,0.052-0.96,0.088-0.19.025-.39,0.057-0.58,0.085-0.29.04-.58,0.082-0.87,0.133-0.2.035-.41,0.08-0.61,0.12-0.27.057-.55,0.114-0.82,0.181-0.21.048-.41,0.1-0.62,0.158-0.26.07-.53,0.141-0.79,0.222-0.21.063-.41,0.13-0.61,0.2-0.26.086-.51,0.171-0.77,0.265-0.2.074-.4,0.154-0.6,0.234-0.25.1-.5,0.2-0.75,0.306-0.19.085-.39,0.177-0.59,0.27s-0.4.19-.6,0.291v-28.1a5.021,5.021,0,0,0-4.94-5.081h-19.86a5.021,5.021,0,0,0-4.94,5.081V-571.4a5.021,5.021,0,0,0,4.94,5.083h17.6c-0.12.131-.25,0.259-0.37,0.4-0.22.245-.44,0.506-0.65,0.762-0.11.124-.21,0.246-0.32,0.375-0.31.39-.61,0.789-0.91,1.2-0.46.1-.91,0.211-1.36,0.34-0.15.042-.29,0.09-0.44,0.136-0.3.1-.6,0.192-0.9,0.3-0.17.063-.33,0.128-0.49,0.19-0.28.109-.55,0.219-0.81,0.337-0.17.074-.33,0.148-0.5,0.228q-0.39.186-.78,0.394c-0.15.08-.31,0.16-0.46,0.247-0.27.15-.53,0.314-0.8,0.477-0.13.08-.26,0.156-0.38,0.242q-0.525.336-1.02,0.713c-0.04.025-.08,0.051-0.12,0.08q-0.555.423-1.08,0.877c-0.09.085-.19,0.178-0.28,0.268-0.25.22-.5,0.447-0.73,0.683-0.12.118-.23,0.239-0.35,0.357-0.21.219-.41,0.438-0.61,0.662-0.12.135-.23,0.268-0.34,0.4-0.19.226-.38,0.458-0.56,0.692-0.1.139-.21,0.278-0.31,0.421-0.19.251-.36,0.507-0.53,0.768-0.09.131-.18,0.262-0.27,0.4-0.2.323-.39,0.654-0.58,0.99-0.04.076-.09,0.152-0.13,0.231-0.23.416-.44,0.844-0.64,1.277-0.05.113-.09,0.229-0.14,0.341-0.12.266-.24,0.532-0.35,0.8h-53.03v-62.225l1.55,1.065a10.891,10.891,0,0,0,.95.574,2.068,2.068,0,0,0,.2.093,10.185,10.185,0,0,0,5.55,1.077,10.379,10.379,0,0,0,1.64-.268,10.207,10.207,0,0,0,2.04-.774c0.05-.021.09-0.054,0.14-0.075,0.27-.146.55-0.3,0.81-0.467,0,0,0,0,.01-0.006,0.3-.2.59-0.409,0.88-0.634,0.04-.034.08-0.074,0.12-0.11a10.75,10.75,0,0,0,2.66-3.292,11,11,0,0,0,.41-9.284h16.82a5.015,5.015,0,0,0,4.94-5.082v-28.392a5.015,5.015,0,0,0-4.94-5.086h-19.86a5.022,5.022,0,0,0-4.94,5.086v25.887l-8.98-6.154v-19.733a5.015,5.015,0,0,0-4.94-5.086h-19.86a4.987,4.987,0,0,0-4.89,4.475l-9.78-6.7V-797.7h126.65v52.015a4.168,4.168,0,0,0,4.1,4.231,4.17,4.17,0,0,0,4.11-4.231v-53.363a7.022,7.022,0,0,0-6.9-7.115h-6.31V-817.92a6.009,6.009,0,0,0-5.91-6.09H1604.07a6.009,6.009,0,0,0-5.91,6.09v11.757h-6.3a7.022,7.022,0,0,0-6.91,7.113v127.582l-5.04-3.452a5.636,5.636,0,0,0-6.42,0l-16.8,11.506v-5.709a6.706,6.706,0,0,0-6.6-6.8h-19.61a6.707,6.707,0,0,0-6.6,6.8v6.74a6.843,6.843,0,0,0,3.49,5.994v13.058L1507.63-629.8a10.9,10.9,0,0,0-3.42,14.037,10.506,10.506,0,0,0,6.66,5.356,10.179,10.179,0,0,0,2.54.323,10.258,10.258,0,0,0,5.79-1.8h0l1.56-1.065v20.882a4.168,4.168,0,0,0,4.1,4.231,4.17,4.17,0,0,0,4.11-4.231v-26.512l47.73-32.694,47.72,32.694v67.857h-52.68v-45.468a5.979,5.979,0,0,0-5.88-6.056h-26.84a5.979,5.979,0,0,0-5.88,6.056v45.468h-4.17v-15.052a4.173,4.173,0,0,0-4.11-4.232,4.171,4.171,0,0,0-4.1,4.232v15.052h-21.29a11.739,11.739,0,0,0-11.55,11.894,11.737,11.737,0,0,0,11.55,11.894h249.75a11.737,11.737,0,0,0,11.55-11.894A11.741,11.741,0,0,0,1749.22-550.728Zm-47.36-24.05h-13.3v-21.633h13.3v21.633Zm-52.02-80.371h13.3v21.633h-13.3v-21.633Zm-43.46-160.4H1706.6v9.384H1606.38v-9.384Zm88.79,264.705c0.04-.053.08-0.1,0.12-0.152,0.17-.207.34-0.411,0.52-0.605,0.02-.019.03-0.038,0.05-0.055,0.19-.205.39-0.4,0.6-0.593,0.05-.048.1-0.093,0.15-0.137,0.21-.188.42-0.373,0.64-0.544a0.254,0.254,0,0,0,.05-0.046c0.21-.161.43-0.315,0.65-0.464,0.05-.036.1-0.072,0.15-0.11,0.24-.15.47-0.3,0.72-0.434,0.04-.022.08-0.047,0.12-0.066,0.22-.124.45-0.236,0.67-0.344l0.15-.071c0.26-.114.52-0.22,0.78-0.321l0.17-.059c0.24-.088.49-0.167,0.74-0.24l0.1-.03q0.42-.114.84-0.194c0.07-.015.13-0.029,0.2-0.04,0.28-.051.57-0.1,0.87-0.131a4.08,4.08,0,0,0,3.05-1.961,17.2,17.2,0,0,1,14.75-8.429c0.33,0,.68.013,1.02,0.036l0.08,0.006c0.34,0.025.69,0.057,1.06,0.1,0.01,0,.03,0,0.04,0a17.665,17.665,0,0,1,14.97,14.992h-43.35C1695.11-550.766,1695.14-550.806,1695.17-550.842Zm-84.05-104.307h13.3v10.723l-13.3-9.108v-1.615Zm-79.02-12.309h16.37v3.407H1532.1v-3.407Zm12.88,11.87h0v0.194l-9.39,6.432v-6.626h9.39Zm34.93-3.657a5.688,5.688,0,0,0-2.19-.892,1.766,1.766,0,0,0-.19-0.046,0.341,0.341,0,0,0-.05,0,5.611,5.611,0,0,0-3.34.561,6.659,6.659,0,0,0-.65.379l-58.84,40.309a2.157,2.157,0,0,1-1.78.315,2.224,2.224,0,0,1-1.42-1.143,2.321,2.321,0,0,1,.73-2.993l64.52-44.2,64.51,44.2a2.321,2.321,0,0,1,.73,2.993,2.2,2.2,0,0,1-1.42,1.143,2.164,2.164,0,0,1-1.78-.315l-7.94-5.439Zm-38.55,65.458h22.16v43.059h-22.16v-43.059ZM1749.22-535.4H1499.47a3.382,3.382,0,0,1-3.33-3.431,3.383,3.383,0,0,1,3.33-3.43h249.75a3.383,3.383,0,0,1,3.33,3.43A3.382,3.382,0,0,1,1749.22-535.4Zm-135.55-60.772h-32.2a5.387,5.387,0,0,0-5.3,5.454v20.173a4.173,4.173,0,0,0,4.11,4.231h34.58a4.173,4.173,0,0,0,4.11-4.231v-20.173A5.387,5.387,0,0,0,1613.67-596.173Zm-2.92,21.395h-26.36v-12.93h26.36v12.93Zm16.96-206.313h-19.87a5.013,5.013,0,0,0-4.93,5.085v28.392a5.013,5.013,0,0,0,4.93,5.082h19.87a5.013,5.013,0,0,0,4.93-5.082v-28.392h0A5.013,5.013,0,0,0,1627.71-781.091Zm-3.29,30.1h-13.3v-21.633h13.3v21.633Zm42-30.1h-19.86a5.022,5.022,0,0,0-4.94,5.085v28.392a5.021,5.021,0,0,0,4.94,5.082h19.86a5.021,5.021,0,0,0,4.94-5.082v-28.392h0A5.022,5.022,0,0,0,1666.42-781.091Zm-3.28,30.1h-13.3v-21.633h13.3v21.633Zm42-30.1h-19.86a5.022,5.022,0,0,0-4.94,5.085v28.392a5.021,5.021,0,0,0,4.94,5.082h19.86a5.021,5.021,0,0,0,4.94-5.082v-28.392A5.022,5.022,0,0,0,1705.14-781.091Zm-3.28,30.1h-13.3v-21.633h13.3v21.633Zm-74.15,28.641h-19.87a5.014,5.014,0,0,0-4.93,5.084v28.394a5.013,5.013,0,0,0,4.93,5.082h19.87a5.013,5.013,0,0,0,4.93-5.082v-28.394A5.014,5.014,0,0,0,1627.71-722.352Zm-3.29,30.1h-13.3v-21.634h13.3v21.634Zm42-30.1h-19.86a5.022,5.022,0,0,0-4.94,5.084v28.394a5.022,5.022,0,0,0,4.94,5.082h19.86a5.022,5.022,0,0,0,4.94-5.082v-28.394A5.022,5.022,0,0,0,1666.42-722.352Zm-3.28,30.1h-13.3v-21.634h13.3v21.634Zm42-30.1h-19.86a5.022,5.022,0,0,0-4.94,5.084v28.394a5.022,5.022,0,0,0,4.94,5.082h19.86a5.022,5.022,0,0,0,4.94-5.082v-28.394A5.022,5.022,0,0,0,1705.14-722.352Zm-3.28,30.1h-13.3v-21.634h13.3v21.634Zm3.28,28.641h-19.86a5.022,5.022,0,0,0-4.94,5.086v28.392a5.022,5.022,0,0,0,4.94,5.082h19.86a5.022,5.022,0,0,0,4.94-5.082v-28.392A5.022,5.022,0,0,0,1705.14-663.614Zm-3.28,30.1h-13.3v-21.633h13.3v21.633Zm-34.61,28.642h-21.52a4.173,4.173,0,0,0-4.11,4.231v30.1a4.173,4.173,0,0,0,4.11,4.231h21.52a4.173,4.173,0,0,0,4.11-4.231v-30.1A4.173,4.173,0,0,0,1667.25-604.874Zm-4.11,30.1h-13.3v-21.633h13.3v21.633Z"/>
  <path id="Forma_1_copy_3" data-name="Forma 1 copy 3" class="cls-1" d="M1040.17,620.665a156.655,156.655,0,1,0,45.84,110.728A155.39,155.39,0,0,0,1040.17,620.665ZM929.519,878.81c-81.231,0-147.318-66.13-147.318-147.417s66.087-147.419,147.318-147.419,147.321,66.133,147.321,147.419S1010.75,878.81,929.519,878.81Zm9.169-248.958h-9.169a4.584,4.584,0,0,0-4.584,4.588v18.351a4.586,4.586,0,0,0,4.584,4.588h9.169a37.313,37.313,0,0,1,0,74.625H924.323a4.588,4.588,0,0,0,0,9.176h14.365a46.489,46.489,0,0,0,0-92.978H934.1v-9.175h4.584a83.191,83.191,0,0,1,0,166.381H887.646a4.584,4.584,0,0,0-4.584,4.586v7.276l-43.947-43.976,43.947-43.978v7.276a4.586,4.586,0,0,0,4.584,4.588h18.339a4.588,4.588,0,0,0,0-9.176H892.231V718.242A4.585,4.585,0,0,0,884.405,715L829.39,770.049a4.591,4.591,0,0,0,0,6.488l55.015,55.052a4.583,4.583,0,0,0,7.826-3.243V814.582h46.457A92.365,92.365,0,0,0,938.688,629.852Z"/>
  <path class="cls-1" d="M254.123,69.1H241.487a6.006,6.006,0,0,0,0,12.01h12.636A6.006,6.006,0,0,0,254.123,69.1Zm1.558,49.616a12.118,12.118,0,0,0-9.652-4.775H110.551a12.116,12.116,0,0,0-9.651,4.775,12.456,12.456,0,0,0-2.227,10.646l3.16,12.815a12.257,12.257,0,0,0,11.878,9.4H242.87a12.259,12.259,0,0,0,11.879-9.4l3.16-12.813A12.462,12.462,0,0,0,255.681,118.717Zm-9.268,7.736-3.16,12.809a0.39,0.39,0,0,1-.383.3H113.711a0.391,0.391,0,0,1-.384-0.3l-3.16-12.811a0.37,0.37,0,0,1,.072-0.343,0.361,0.361,0,0,1,.311-0.154H246.029a0.362,0.362,0,0,1,.312.154A0.37,0.37,0,0,1,246.413,126.453ZM205.845-33.395H150.734M129.2-1.366H84.138a24.981,24.981,0,0,0-23.385,16.6L44.95,59.3A18.668,18.668,0,0,0,26.624,43.479H20.3a18.818,18.818,0,0,0,0,37.632h6.319a18.222,18.222,0,0,0,8.139-1.91L21.218,96.366a32.016,32.016,0,0,0-6.838,19.76V235.26a12.343,12.343,0,0,0,12.244,12.412H45.582A12.342,12.342,0,0,0,57.826,235.26V209.233H298.755V235.26A12.342,12.342,0,0,0,311,247.672h18.958A12.342,12.342,0,0,0,342.2,235.26V116.126a32.017,32.017,0,0,0-6.837-19.76L321.818,79.2a18.224,18.224,0,0,0,8.139,1.91h6.32a18.818,18.818,0,0,0,0-37.632h-6.319A18.669,18.669,0,0,0,311.632,59.3l-15.805-44.06a24.977,24.977,0,0,0-23.385-16.6H227.383M26.624,69.1H20.3a6.806,6.806,0,0,1,0-13.612h6.32A6.806,6.806,0,0,1,26.624,69.1ZM215.3-1.366H141.281M45.978,235.26a0.4,0.4,0,0,1-.4.4H26.623a0.4,0.4,0,0,1-.395-0.4V205.486a24.494,24.494,0,0,0,13.034,3.747h6.714V235.26h0ZM248.2,197.221H108.382V184.01a0.4,0.4,0,0,1,.395-0.4H247.805a0.4,0.4,0,0,1,.4.4v13.211h0Zm82.152,38.039a0.4,0.4,0,0,1-.395.4H311a0.4,0.4,0,0,1-.4-0.4V209.233h6.714a24.5,24.5,0,0,0,13.034-3.747V235.26h0Zm-4.239-131.392a19.882,19.882,0,0,1,4.24,12.258V184.01a13.138,13.138,0,0,1-13.034,13.211h-57.27V184.01A12.342,12.342,0,0,0,247.805,171.6H108.777A12.342,12.342,0,0,0,96.533,184.01v13.211H39.263A13.138,13.138,0,0,1,26.23,184.01V116.126a19.871,19.871,0,0,1,4.241-12.258L48.43,81.111H216.208a6.006,6.006,0,0,0,0-12.01H54.041l17.85-49.758a13.079,13.079,0,0,1,12.249-8.695h188.3a13.083,13.083,0,0,1,12.249,8.695L302.541,69.1H279.4a6.006,6.006,0,0,0,0,12.01h28.749ZM323.243,62.3a6.767,6.767,0,0,1,6.714-6.806h6.319a6.806,6.806,0,0,1,0,13.612h-6.319A6.768,6.768,0,0,1,323.243,62.3Zm-258.7,96.491A12.413,12.413,0,1,0,76.785,171.2,12.342,12.342,0,0,0,64.541,158.786Zm227.5,0A12.413,12.413,0,1,0,304.284,171.2,12.342,12.342,0,0,0,292.041,158.786ZM61.382,107.538A22.022,22.022,0,1,0,83.1,129.557,21.9,21.9,0,0,0,61.382,107.538Zm0,32.028a10.01,10.01,0,1,1,9.874-10.009A9.952,9.952,0,0,1,61.382,139.566ZM295.2,107.538a22.022,22.022,0,1,0,21.723,22.019A21.9,21.9,0,0,0,295.2,107.538Zm0,32.028a10.01,10.01,0,1,1,9.874-10.009A9.952,9.952,0,0,1,295.2,139.566Z"/>
</svg>
